<svg width="30" height="30" viewBox="0 0 30 30" fill="none" xmlns="http://www.w3.org/2000/svg">
<path d="M26.0499 5.76234C25.4115 5.1236 24.6534 4.6169 23.8191 4.2712C22.9848 3.92549 22.0905 3.74756 21.1874 3.74756C20.2843 3.74756 19.39 3.92549 18.5557 4.2712C17.7214 4.6169 16.9634 5.1236 16.3249 5.76234L14.9999 7.08734L13.6749 5.76234C12.3853 4.47273 10.6362 3.74823 8.8124 3.74823C6.98861 3.74823 5.23952 4.47273 3.9499 5.76234C2.66029 7.05196 1.93579 8.80105 1.93579 10.6248C1.93579 12.4486 2.66029 14.1977 3.9499 15.4873L5.2749 16.8123L14.9999 26.5373L24.7249 16.8123L26.0499 15.4873C26.6886 14.8489 27.1953 14.0909 27.541 13.2565C27.8868 12.4222 28.0647 11.5279 28.0647 10.6248C28.0647 9.72173 27.8868 8.82747 27.541 7.99315C27.1953 7.15882 26.6886 6.40079 26.0499 5.76234V5.76234Z" stroke="#F9F9F9" stroke-width="2" stroke-linecap="round" stroke-linejoin="round"/>
</svg>
