<svg width="20" height="20" viewBox="0 0 20 20" fill="none" xmlns="http://www.w3.org/2000/svg">
<path id="Vector" d="M15.8907 11.4048H10.5V8.59524H19.5V10C19.5 15.2379 15.2379 19.5 10 19.5C4.76214 19.5 0.5 15.2379 0.5 10C0.5 4.76214 4.76214 0.5 10 0.5C11.9491 0.5 13.7995 1.07657 15.3866 2.17335L13.6694 4.40401C12.5805 3.68667 11.3206 3.30952 10 3.30952C6.31043 3.30952 3.30952 6.31043 3.30952 10C3.30952 13.6896 6.31043 16.6905 10 16.6905C12.9728 16.6905 15.4965 14.743 16.3663 12.0589L16.5783 11.4048H15.8907Z" fill="#F9F9F9" stroke="#F9F9F9"/>
</svg>
