<svg width="42" height="43" viewBox="0 0 42 43" fill="none" xmlns="http://www.w3.org/2000/svg">
<path d="M20.5907 27.8076L20.6869 22.2948L21.3152 22.2665C21.6378 22.2495 22.017 22.2325 22.4019 22.2155C26.7601 22.0288 31.5145 21.8307 33.3597 17.4894C33.5521 17.0366 33.6993 16.5612 33.7955 16.0688C33.8918 15.5763 33.9427 15.0669 33.9427 14.5349C33.9427 14.0029 33.8917 13.5218 33.8012 13.052C33.705 12.5709 33.5578 12.1124 33.3654 11.6653C33.1673 11.2125 32.9409 10.7936 32.6692 10.3974C32.4088 10.0126 32.1032 9.64466 31.7579 9.2994C31.4183 8.9598 31.0504 8.65416 30.6542 8.38814C30.258 8.12212 29.8279 7.89005 29.3637 7.69195C28.9053 7.49385 28.4355 7.34669 27.9544 7.25047C27.479 7.15425 26.9809 7.10897 26.4658 7.10897C25.447 7.10897 24.4791 7.30141 23.5679 7.69195C23.1038 7.89005 22.6736 8.12212 22.2774 8.38814C21.8812 8.65416 21.5133 8.95414 21.1737 9.29374C20.8284 9.64466 20.5228 10.0069 20.2624 10.3974C19.9964 10.7936 19.7644 11.2181 19.5663 11.6653C19.3738 12.1124 19.2267 12.5709 19.1304 13.052C19.0342 13.5218 18.9889 14.0142 18.9889 14.5349V42.7218L12.0328 37.1014L11.9932 14.6481V14.5349C11.9932 13.5557 12.0894 12.5935 12.2818 11.654C12.4743 10.7144 12.7573 9.80314 13.1308 8.92584C13.51 8.04287 13.9515 7.22217 14.4666 6.45241C14.9817 5.68265 15.559 4.96949 16.2099 4.30727C16.8608 3.64505 17.5683 3.05641 18.3324 2.53002C19.0965 2.0093 19.9172 1.55084 20.7945 1.16596C21.6774 0.781082 22.5944 0.486761 23.5452 0.29432C24.4961 0.0962199 25.4753 0 26.4715 0C27.4676 0 28.4185 0.0962199 29.3637 0.29432C30.309 0.486761 31.2259 0.781082 32.1202 1.16596C33.0088 1.55084 33.8408 2.0093 34.6106 2.52436C35.386 3.05075 36.1048 3.63939 36.7614 4.29595C37.4123 4.94685 38.0009 5.66001 38.533 6.44109C39.0593 7.21651 39.5121 8.03722 39.897 8.90886C40.2819 9.79182 40.5762 10.7031 40.7687 11.6426C40.9611 12.5822 41.063 13.5444 41.063 14.5292C41.063 15.5141 40.9668 16.5046 40.7687 17.4555C40.5762 18.4064 40.2819 19.3233 39.897 20.2062C39.5121 21.0779 39.065 21.9042 38.5443 22.6797C38.0236 23.4607 37.4293 24.1739 36.7501 24.8248C35.0294 26.4775 32.7711 27.485 30.3316 28.0454C27.3375 28.7359 24.066 28.7529 21.202 28.4755L20.5907 28.4133L20.602 27.7963L20.5907 27.8076Z" fill="#009ACA"/>
<path fill-rule="evenodd" clip-rule="evenodd" d="M7.31273 20.5971L7.26745 32.5001L0 26.3477C2.43946 24.361 4.87893 22.3744 7.31839 20.3877V20.5971H7.31273Z" fill="#009ACA"/>
<path fill-rule="evenodd" clip-rule="evenodd" d="M21.2645 19.6968H21.2871C23.2964 19.7421 27.1905 19.9119 28.747 18.8818C30.7167 17.5743 31.2488 15.4462 30.7054 13.3859C30.4564 12.4407 29.8337 11.886 29.6866 11.5747C29.1602 11.054 28.6451 10.6805 28.0622 10.4144C26.8679 9.87107 25.6001 9.79183 24.3718 10.2673C23.4436 10.6295 22.5437 11.2861 21.9494 12.2143C21.2079 13.3633 21.2079 14.6198 21.2249 15.9329C21.2362 17.1838 21.2871 18.4573 21.2645 19.6912V19.6968Z" fill="#29CFCF"/>
</svg>
