<svg width="156" height="314" viewBox="0 0 156 314" fill="none" xmlns="http://www.w3.org/2000/svg">
<g opacity="0.12">
<path d="M180.04 182.205L180.139 182.105L180.117 183.344L180.026 188.263L184.896 188.759C184.896 188.759 184.897 188.759 184.897 188.759C209.833 191.173 238.296 191.023 264.329 185.019L264.329 185.019C285.54 180.147 305.136 171.396 320.053 157.068L320.053 157.068C325.948 151.419 331.105 145.229 335.625 138.449L335.626 138.448C340.148 131.714 344.033 124.536 347.378 116.961C350.719 109.295 353.274 101.335 354.944 93.0818L354.945 93.079C356.664 84.8247 357.5 76.2236 357.5 67.6695C357.5 59.1181 356.616 50.763 354.944 42.6037C353.274 34.4493 350.72 26.5387 347.378 18.8715C344.034 11.2993 340.101 4.17094 335.53 -2.56352C330.908 -9.34815 325.796 -15.5414 320.144 -21.1933C314.444 -26.8934 308.202 -32.005 301.467 -36.5771C294.781 -41.0507 287.555 -45.0327 279.837 -48.3756C272.069 -51.7185 264.108 -54.2737 255.904 -55.9441L255.901 -55.9447C247.695 -57.6644 239.44 -58.5 230.788 -58.5C222.135 -58.5 213.633 -57.6642 205.378 -55.9446L205.376 -55.944C197.122 -54.2736 189.162 -51.7187 181.495 -48.3769C173.876 -45.0342 166.748 -41.0526 160.112 -36.5301C153.476 -31.9584 147.332 -26.847 141.681 -21.0977C136.029 -15.3472 131.016 -9.15401 126.542 -2.46826C122.07 4.2153 118.235 11.3428 114.941 19.0139C111.697 26.6311 109.24 34.5435 107.569 42.7024C105.898 50.8599 105.062 59.215 105.062 67.7188V68.7053V68.7057L105.407 264.22L165.053 312.412V67.7188C165.053 63.1504 165.451 58.8238 166.297 54.6912C166.297 54.6908 166.297 54.6904 166.297 54.69L166.787 54.7904C167.626 50.596 168.909 46.599 170.587 42.7007L180.04 182.205ZM180.04 182.205L180.849 135.85M180.04 182.205L180.849 135.85M195.33 135.18L195.331 135.18L195.519 135.172C214.444 134.361 234.3 133.51 251.44 128.138C268.665 122.74 283.187 112.764 291.301 93.6727C292.992 89.6935 294.286 85.5151 295.131 81.1873C295.977 76.8628 296.424 72.3896 296.424 67.7188C296.424 63.047 295.976 58.8209 295.181 54.6957L295.18 54.6923C294.334 50.4611 293.04 46.4308 291.35 42.5031L291.349 42.5003C289.611 38.5283 287.623 34.849 285.234 31.3659C282.946 27.9831 280.261 24.7517 277.23 21.7208C274.248 18.7385 271.015 16.0529 267.533 13.7147C264.051 11.3772 260.274 9.3395 256.201 7.60093C252.173 5.8605 248.044 4.56714 243.816 3.72131C239.634 2.87505 235.258 2.47775 230.739 2.47775C221.792 2.47775 213.286 4.16805 205.277 7.60074C201.204 9.33936 197.426 11.3771 193.944 13.7147C190.464 16.0512 187.232 18.6869 184.247 21.6715L184.244 21.6744C181.217 24.7511 178.531 27.9334 176.24 31.3697L185.834 135.125C188.647 134.977 191.953 134.828 195.309 134.68L195.33 135.18ZM195.33 135.18C191.974 135.328 188.671 135.476 185.861 135.624L185.857 135.624L180.849 135.85M195.33 135.18L180.849 135.85" stroke="white"/>
<path d="M63.3035 120.069H63.2561L63.2542 120.567L62.8635 223.267L0.782646 170.711L32.2175 145.111L63.3035 119.795V120.069Z" stroke="white"/>
</g>
</svg>
