<svg width="129" height="181" viewBox="0 0 129 181" fill="none" xmlns="http://www.w3.org/2000/svg">
<g opacity="0.1">
<path d="M1 27.5368C1 48.1765 26 65.8676 26 65.8676C26 65.8676 51 48.1765 51 27.5368C51 20.4988 48.3661 13.749 43.6777 8.77243C38.9893 3.79583 32.6304 1 26 1C19.3696 1 13.0107 3.79583 8.32233 8.77243C3.63393 13.749 1 20.4988 1 27.5368Z" stroke="white" stroke-linecap="round" stroke-linejoin="round"/>
<circle cx="11.0709" cy="11.0709" r="11.0709" transform="matrix(-1 0 0 1 37.1616 14.8384)" stroke="white"/>
</g>
<g opacity="0.1">
<path d="M37 85.5368C37 106.176 62 123.868 62 123.868C62 123.868 87 106.176 87 85.5368C87 78.4988 84.3661 71.749 79.6777 66.7724C74.9893 61.7958 68.6304 59 62 59C55.3696 59 49.0107 61.7958 44.3223 66.7724C39.6339 71.749 37 78.4988 37 85.5368Z" stroke="white" stroke-linecap="round" stroke-linejoin="round"/>
<circle cx="11.0709" cy="11.0709" r="11.0709" transform="matrix(-1 0 0 1 73.1616 72.8384)" stroke="white"/>
</g>
<g opacity="0.1">
<path d="M78 141.537C78 162.176 103 179.868 103 179.868C103 179.868 128 162.176 128 141.537C128 134.499 125.366 127.749 120.678 122.772C115.989 117.796 109.63 115 103 115C96.3696 115 90.0107 117.796 85.3223 122.772C80.6339 127.749 78 134.499 78 141.537Z" stroke="white" stroke-linecap="round" stroke-linejoin="round"/>
<circle cx="11.0709" cy="11.0709" r="11.0709" transform="matrix(-1 0 0 1 114.162 128.838)" stroke="white"/>
</g>
</svg>
