<svg width="200" height="233" viewBox="0 0 200 233" fill="none" xmlns="http://www.w3.org/2000/svg">
<g opacity="0.15">
<path fill-rule="evenodd" clip-rule="evenodd" d="M49 0C132.385 0 200 67.6147 200 151C200 234.385 132.385 302 49 302C-34.3853 302 -102 234.385 -102 151C-102 67.6147 -34.3853 0 49 0Z" fill="white"/>
<path d="M35.3727 187.838L35.8932 158.012L39.2923 157.859C41.0378 157.767 43.0895 157.675 45.1719 157.583C68.7513 156.573 94.4743 155.501 104.457 132.013C105.498 129.564 106.295 126.991 106.815 124.327C107.336 121.663 107.611 118.907 107.611 116.028C107.611 113.15 107.336 110.547 106.846 108.005C106.325 105.402 105.529 102.922 104.488 100.503C103.416 98.053 102.191 95.7869 100.721 93.6433C99.3126 91.561 97.659 89.5705 95.791 87.7026C93.9537 85.8652 91.9632 84.2116 89.8196 82.7723C87.676 81.3331 85.3487 80.0775 82.8377 79.0057C80.3572 77.934 77.8156 77.1378 75.2126 76.6172C72.6403 76.0966 69.9456 75.8516 67.1589 75.8516C61.6468 75.8516 56.4104 76.8928 51.4801 79.0057C48.9691 80.0775 46.6418 81.3331 44.4982 82.7723C42.3546 84.2116 40.3641 85.8346 38.5268 87.6719C36.6588 89.5705 35.0052 91.5304 33.5965 93.6433C32.1573 95.7869 30.9017 98.0836 29.83 100.503C28.7888 102.922 27.9926 105.402 27.472 108.005C26.9514 110.547 26.7065 113.211 26.7065 116.028V268.529L-10.9287 238.121L-11.1431 116.641V116.028C-11.1431 110.731 -10.6225 105.525 -9.58131 100.442C-8.54015 95.3582 -7.00902 90.428 -4.98792 85.6815C-2.93621 80.9044 -0.547647 76.4641 2.23901 72.2994C5.02567 68.1347 8.14916 64.2763 11.6708 60.6934C15.1924 57.1106 19.0202 53.9258 23.1542 51.0779C27.2883 48.2607 31.7286 45.7802 36.4751 43.6979C41.2522 41.6156 46.2131 40.0232 51.3577 38.982C56.5022 37.9102 61.7999 37.3896 67.1895 37.3896C72.5791 37.3896 77.7237 37.9102 82.8377 38.982C87.9516 40.0232 92.9125 41.6156 97.7509 43.6979C102.559 45.7802 107.06 48.2607 111.225 51.0473C115.42 53.8952 119.309 57.08 122.861 60.6322C126.383 64.1538 129.568 68.0122 132.446 72.2382C135.294 76.4335 137.744 80.8737 139.826 85.5896C141.909 90.3667 143.501 95.297 144.542 100.38C145.583 105.464 146.135 110.67 146.135 115.998C146.135 121.326 145.614 126.685 144.542 131.83C143.501 136.974 141.909 141.935 139.826 146.712C137.744 151.428 135.325 155.899 132.508 160.094C129.69 164.32 126.475 168.179 122.8 171.7C113.491 180.642 101.272 186.093 88.0741 189.125C71.8748 192.861 54.1749 192.952 38.6799 191.452L35.3727 191.115L35.4339 187.777L35.3727 187.838Z" fill="#009ACA"/>
<path fill-rule="evenodd" clip-rule="evenodd" d="M39.0172 143.957H39.1397C50.0107 144.202 71.079 145.12 79.5003 139.547C90.1569 132.473 93.0354 120.959 90.0957 109.813C88.7483 104.699 85.3798 101.698 84.5836 100.013C81.7357 97.196 78.9491 95.1749 75.7949 93.7357C69.3336 90.7959 62.4741 90.3672 55.829 92.9395C50.8069 94.8993 45.9379 98.4516 42.7225 103.474C38.711 109.69 38.711 116.488 38.8028 123.593C38.8641 130.36 39.1397 137.25 39.0172 143.926V143.957Z" fill="#29CFCF"/>
</g>
</svg>
