<svg width="62" height="64" viewBox="0 0 62 64" fill="none" xmlns="http://www.w3.org/2000/svg">
<path fill-rule="evenodd" clip-rule="evenodd" d="M30.5 3C47.3427 3 61 16.6573 61 33.5C61 50.3427 47.3427 64 30.5 64C13.6573 64 0 50.3427 0 33.5C0 16.6573 13.6573 3 30.5 3Z" fill="#EB3A22"/>
<path d="M31.2109 39.1779L31.2804 35.1777L31.7342 35.1571C31.9673 35.1448 32.2412 35.1325 32.5193 35.1202C35.6676 34.9846 39.1022 34.8409 40.4352 31.6908C40.5742 31.3622 40.6805 31.0172 40.75 30.6599C40.8195 30.3026 40.8563 29.933 40.8563 29.5469C40.8563 29.1608 40.8195 28.8117 40.7541 28.4709C40.6846 28.1218 40.5783 27.7891 40.4393 27.4646C40.2961 27.1361 40.1326 26.8321 39.9363 26.5446C39.7482 26.2654 39.5275 25.9984 39.278 25.7479C39.0327 25.5015 38.7669 25.2797 38.4807 25.0866C38.1945 24.8936 37.8838 24.7252 37.5485 24.5815C37.2173 24.4377 36.8779 24.3309 36.5304 24.2611C36.1869 24.1913 35.8271 24.1585 35.455 24.1585C34.719 24.1585 34.0199 24.2981 33.3616 24.5815C33.0263 24.7252 32.7155 24.8936 32.4293 25.0866C32.1431 25.2797 31.8773 25.4973 31.632 25.7438C31.3826 25.9984 31.1618 26.2613 30.9737 26.5446C30.7815 26.8321 30.6139 27.1402 30.4708 27.4646C30.3318 27.7891 30.2255 28.1218 30.156 28.4709C30.0864 28.8117 30.0537 29.1691 30.0537 29.5469V50L25.0286 45.9217L25 29.629V29.5469C25 28.8364 25.0695 28.1382 25.2085 27.4564C25.3475 26.7746 25.552 26.1134 25.8218 25.4768C26.0958 24.8361 26.4147 24.2406 26.7868 23.682C27.1589 23.1235 27.5759 22.606 28.0461 22.1255C28.5164 21.6449 29.0275 21.2178 29.5794 20.8359C30.1314 20.458 30.7243 20.1253 31.3581 19.8461C31.9959 19.5668 32.6583 19.3532 33.3452 19.2136C34.0321 19.0698 34.7395 19 35.4591 19C36.1787 19 36.8657 19.0698 37.5485 19.2136C38.2313 19.3532 38.8937 19.5668 39.5397 19.8461C40.1817 20.1253 40.7827 20.458 41.3388 20.8317C41.8989 21.2137 42.4182 21.6408 42.8925 22.1172C43.3627 22.5896 43.788 23.107 44.1723 23.6738C44.5526 24.2365 44.8797 24.832 45.1577 25.4645C45.4357 26.1052 45.6484 26.7664 45.7874 27.4482C45.9264 28.13 46 28.8282 46 29.5428C46 30.2574 45.9305 30.9762 45.7874 31.6661C45.6484 32.3561 45.4357 33.0215 45.1577 33.6622C44.8797 34.2946 44.5567 34.8943 44.1805 35.4569C43.8043 36.0237 43.375 36.5412 42.8843 37.0135C41.6414 38.2128 40.0099 38.9438 38.2477 39.3504C36.0847 39.8515 33.7214 39.8638 31.6525 39.6626L31.2109 39.6174L31.219 39.1697L31.2109 39.1779Z" fill="white"/>
<path fill-rule="evenodd" clip-rule="evenodd" d="M21.9954 34.1383L21.9582 42L16 37.9364C18 36.6243 20 35.3121 22 34V34.1383H21.9954Z" fill="white"/>
<path fill-rule="evenodd" clip-rule="evenodd" d="M32.0316 32.9763H32.048C33.5003 33.0041 36.3147 33.1082 37.4397 32.4764C38.8633 31.6743 39.2479 30.3689 38.8552 29.1051C38.6752 28.5253 38.2252 28.1851 38.1188 27.9941C37.7384 27.6747 37.3661 27.4456 36.9447 27.2824C36.0816 26.9491 35.1652 26.9005 34.2775 27.1921C33.6066 27.4143 32.9562 27.817 32.5266 28.3864C31.9907 29.0912 31.9907 29.862 32.003 30.6675C32.0112 31.4348 32.048 32.216 32.0316 32.9728V32.9763Z" fill="#29CFCF"/>
<circle cx="52.5" cy="9.5" r="9.5" fill="#F7ACA2"/>
<path d="M49 13L56 7M49 7L56 13" stroke="#EB3A22" stroke-width="2" stroke-linecap="round" stroke-linejoin="round"/>
</svg>
