<svg width="38" height="27" viewBox="0 0 38 27" fill="none" xmlns="http://www.w3.org/2000/svg">
<path d="M31.2462 19.3401L25.5054 4.51192M25.5054 4.51192V0.999982H20.53M25.5054 4.51192L20.53 8.41408H13.641L9.0483 5.68257H1.39385V8.02386L7.51741 11.1456L12.1101 11.5358L15.5546 17.389M15.5546 17.389H20.53C20.53 17.389 21.2982 13.442 22.8263 11.5358C24.4006 9.57205 25.7573 8.57943 28.1844 8.02386C30.8456 7.41472 35.0734 9.19451 35.0734 9.19451M15.5546 17.389C15.5546 17.389 12.9455 17.007 11.3446 17.389C9.71756 17.7773 7.51741 19.3401 7.51741 19.3401M31.2462 25.9738C34.6282 25.7583 37.1984 22.7883 36.9871 19.3401C36.7893 16.1138 34.4106 13.6885 31.2462 13.4869C27.8643 13.2714 24.9513 15.892 24.7399 19.3401C24.5158 22.9967 27.6599 26.2023 31.2462 25.9738ZM7.51741 13.4869C4.14475 13.1527 1.2225 15.892 1.01113 19.3401C0.78698 22.9967 3.9408 26.3267 7.51741 25.9738C10.7937 25.6505 13.0795 22.6897 12.8755 19.3401C12.6855 16.2194 10.5697 13.7894 7.51741 13.4869Z" stroke="#0096C2" stroke-width="2" stroke-linecap="round" stroke-linejoin="round"/>
</svg>
