<svg width="332" height="12" viewBox="0 0 332 12" fill="none" xmlns="http://www.w3.org/2000/svg">
<path opacity="0.35" fill-rule="evenodd" clip-rule="evenodd" d="M326.993 0.00244762C328.469 0.00244762 329.666 1.19939 329.666 2.6759V8.69116C329.666 10.1677 328.469 11.3646 326.993 11.3646H310.283C308.807 11.3646 307.61 10.1677 307.61 8.69116V2.6759C307.61 1.19939 308.807 0.00244762 310.283 0.00244762H326.993ZM326.993 1.00499H310.283C309.409 1.00499 308.692 1.67641 308.619 2.53172L308.613 2.6759V8.69116C308.613 9.5654 309.284 10.2828 310.139 10.3559L310.283 10.3621H326.993C327.867 10.3621 328.584 9.69065 328.657 8.83533L328.663 8.69116V2.6759C328.663 1.80165 327.992 1.08422 327.137 1.01112L326.993 1.00499ZM332 5.68353C332 6.55888 331.475 7.34898 330.668 7.68861V3.67844C331.475 4.01808 332 4.80817 332 5.68353Z" fill="white"/>
<path fill-rule="evenodd" clip-rule="evenodd" d="M300.876 4.6675C299.266 3.13682 297.13 2.28322 294.908 2.28312C292.686 2.28311 290.549 3.13672 288.939 4.6675C288.818 4.78586 288.624 4.78437 288.505 4.66416L287.346 3.49453C287.285 3.43361 287.251 3.35112 287.252 3.26532C287.253 3.17952 287.287 3.09749 287.349 3.03737C291.574 -1.01246 298.241 -1.01246 302.467 3.03737C302.528 3.09753 302.563 3.17959 302.563 3.26539C302.564 3.35119 302.53 3.43365 302.47 3.49453L301.311 4.66416C301.191 4.78419 300.997 4.78568 300.876 4.6675ZM298.21 7.36134C297.306 6.54205 296.129 6.08837 294.908 6.08844C293.688 6.08895 292.512 6.54259 291.608 7.36134C291.486 7.47761 291.293 7.47509 291.174 7.35566L290.016 6.18602C289.955 6.12476 289.921 6.04154 289.922 5.95503C289.923 5.86852 289.958 5.78595 290.021 5.72585C292.776 3.16297 297.043 3.16297 299.798 5.72585C299.86 5.78595 299.895 5.86847 299.896 5.95496C299.897 6.04144 299.863 6.12467 299.802 6.18602L298.645 7.35566C298.526 7.47509 298.333 7.47761 298.21 7.36134ZM297.133 8.87986C297.195 8.8191 297.229 8.73548 297.227 8.64875C297.225 8.56203 297.188 8.47988 297.123 8.42169C295.845 7.34007 293.972 7.34007 292.693 8.42169C292.628 8.47983 292.591 8.56196 292.589 8.64868C292.587 8.73541 292.621 8.81905 292.683 8.87986L294.686 10.9006C294.745 10.96 294.825 10.9935 294.908 10.9935C294.992 10.9935 295.072 10.96 295.13 10.9006L297.133 8.87986ZM310.952 2.00776C310.213 2.00776 309.615 2.60623 309.615 3.34448V8.02302C309.615 8.76127 310.213 9.35974 310.952 9.35974H326.324C327.062 9.35974 327.661 8.76127 327.661 8.02302V3.34448C327.661 2.60623 327.062 2.00776 326.324 2.00776H310.952ZM281.21 0.336845H280.207C279.653 0.336845 279.204 0.785699 279.204 1.33939V10.0281C279.204 10.5818 279.653 11.0306 280.207 11.0306H281.21C281.763 11.0306 282.212 10.5818 282.212 10.0281V1.33939C282.212 0.785699 281.763 0.336845 281.21 0.336845ZM275.529 2.67611H276.531C277.085 2.67611 277.534 3.12497 277.534 3.67866V10.0281C277.534 10.5818 277.085 11.0306 276.531 11.0306H275.529C274.975 11.0306 274.526 10.5818 274.526 10.0281V3.67866C274.526 3.12497 274.975 2.67611 275.529 2.67611ZM271.853 5.01538H270.85C270.296 5.01538 269.847 5.46424 269.847 6.01792V10.0281C269.847 10.5818 270.296 11.0306 270.85 11.0306H271.853C272.406 11.0306 272.855 10.5818 272.855 10.0281V6.01792C272.855 5.46424 272.406 5.01538 271.853 5.01538ZM267.174 7.02047H266.171C265.618 7.02047 265.169 7.46932 265.169 8.02301V10.0281C265.169 10.5818 265.618 11.0306 266.171 11.0306H267.174C267.728 11.0306 268.177 10.5818 268.177 10.0281V8.02301C268.177 7.46932 267.728 7.02047 267.174 7.02047ZM7.62775 6.13998C7.62775 9.4707 6.13373 11.4376 3.61856 11.4376C1.80928 11.4376 0.431759 10.3685 0.137066 8.74425H1.89837C2.12453 9.49126 2.78245 9.95728 3.63226 9.95728C5.07831 9.95728 5.93498 8.60718 5.93498 6.34558H5.81847C5.35245 7.28449 4.41354 7.8259 3.25533 7.8259C1.37066 7.8259 0 6.44153 0 4.5363C0 2.50772 1.52144 1.06167 3.67338 1.06167C5.11943 1.06167 6.26394 1.747 6.92871 3.01487C7.38788 3.83041 7.62775 4.88582 7.62775 6.13998ZM1.73389 4.48148C1.73389 5.61228 2.54258 6.42097 3.68024 6.42097C4.81103 6.42097 5.64029 5.61228 5.64029 4.50889C5.64029 3.3918 4.79047 2.53513 3.68709 2.53513C2.5837 2.53513 1.73389 3.37809 1.73389 4.48148ZM10.4516 5.00918C11.1027 5.00918 11.5481 4.55001 11.5481 3.93321C11.5481 3.30956 11.1027 2.85039 10.4516 2.85039C9.80738 2.85039 9.35506 3.30956 9.35506 3.93321C9.35506 4.55001 9.80738 5.00918 10.4516 5.00918ZM11.5481 9.06635C11.5481 9.68315 11.1027 10.1492 10.4516 10.1492C9.80738 10.1492 9.35506 9.68315 9.35506 9.06635C9.35506 8.4427 9.80738 7.98353 10.4516 7.98353C11.1027 7.98353 11.5481 8.4427 11.5481 9.06635ZM19.7929 11.1977V9.35419H21.1293V7.86017H19.7929V1.30839H17.2983C15.5507 3.94006 14.1595 6.13998 13.2686 7.77793V9.35419H18.1002V11.1977H19.7929ZM14.9065 7.90129H18.1276V2.74759H18.0316C17.0859 4.14566 16.0579 5.7699 14.9065 7.79849V7.90129ZM26.8247 11.1977V1.30839H25.0634L22.4797 3.11767V4.81729L24.9401 3.09025H25.0566V11.1977H26.8247Z" fill="white"/>
</svg>
