<svg width="69" height="66" viewBox="0 0 69 66" fill="none" xmlns="http://www.w3.org/2000/svg">
<path fill-rule="evenodd" clip-rule="evenodd" d="M30.7225 4.53283C47.6881 4.53283 61.445 18.2897 61.445 35.2553C61.445 52.221 47.6881 65.9779 30.7225 65.9779C13.7569 65.9779 0 52.221 0 35.2553C0 18.2897 13.7569 4.53283 30.7225 4.53283Z" fill="#29CF57"/>
<path d="M31.4386 40.9747L31.5086 36.9453L31.9658 36.9246C32.2005 36.9122 32.4765 36.8997 32.7565 36.8873C35.9279 36.7508 39.3875 36.606 40.7302 33.4329C40.8702 33.102 40.9773 32.7545 41.0473 32.3945C41.1173 32.0346 41.1544 31.6623 41.1544 31.2734C41.1544 30.8845 41.1173 30.5329 41.0514 30.1895C40.9814 29.8379 40.8743 29.5028 40.7343 29.1759C40.5901 28.845 40.4254 28.5388 40.2277 28.2493C40.0382 27.9679 39.8158 27.699 39.5646 27.4467C39.3175 27.1985 39.0498 26.9751 38.7615 26.7806C38.4732 26.5862 38.1602 26.4166 37.8224 26.2718C37.4888 26.127 37.147 26.0194 36.7969 25.9491C36.4509 25.8787 36.0885 25.8456 35.7137 25.8456C34.9723 25.8456 34.2681 25.9863 33.605 26.2718C33.2672 26.4166 32.9542 26.5862 32.6659 26.7806C32.3776 26.9751 32.1099 27.1943 31.8628 27.4425C31.6116 27.699 31.3891 27.9638 31.1997 28.2493C31.0061 28.5388 30.8373 28.8491 30.6931 29.1759C30.5531 29.5028 30.446 29.8379 30.376 30.1895C30.3059 30.5329 30.273 30.8928 30.273 31.2734V51.8757L25.2112 47.7677L25.1824 31.3561V31.2734C25.1824 30.5577 25.2524 29.8544 25.3924 29.1677C25.5325 28.4809 25.7384 27.8149 26.0102 27.1736C26.2862 26.5283 26.6074 25.9284 26.9822 25.3658C27.357 24.8031 27.7771 24.2819 28.2508 23.7978C28.7244 23.3138 29.2392 22.8835 29.7952 22.4988C30.3513 22.1182 30.9485 21.7831 31.5868 21.5018C32.2293 21.2205 32.8966 21.0053 33.5885 20.8647C34.2804 20.7199 34.9929 20.6496 35.7178 20.6496C36.4427 20.6496 37.1346 20.7199 37.8224 20.8647C38.5102 21.0053 39.1774 21.2205 39.8282 21.5018C40.4748 21.7831 41.0802 22.1182 41.6404 22.4947C42.2046 22.8794 42.7277 23.3097 43.2055 23.7896C43.6791 24.2653 44.1074 24.7866 44.4946 25.3575C44.8776 25.9243 45.2071 26.5241 45.4872 27.1612C45.7672 27.8066 45.9814 28.4727 46.1214 29.1594C46.2615 29.8461 46.3356 30.5494 46.3356 31.2693C46.3356 31.9891 46.2656 32.7131 46.1214 33.4081C45.9814 34.1031 45.7672 34.7733 45.4872 35.4187C45.2071 36.0558 44.8817 36.6598 44.5028 37.2266C44.1239 37.7975 43.6915 38.3187 43.1972 38.7945C41.9452 40.0025 40.3018 40.7389 38.5267 41.1485C36.348 41.6532 33.9674 41.6656 31.8834 41.4629L31.4386 41.4174L31.4468 40.9664L31.4386 40.9747Z" fill="white"/>
<path fill-rule="evenodd" clip-rule="evenodd" d="M22.1558 35.8983L22.1184 43.8174L16.1167 39.7242C18.1313 38.4024 20.1459 37.0807 22.1605 35.759V35.8983H22.1558Z" fill="white"/>
<path fill-rule="evenodd" clip-rule="evenodd" d="M32.2653 34.7278H32.2818C33.7447 34.7558 36.5797 34.8607 37.7129 34.2242C39.1469 33.4164 39.5342 32.1014 39.1386 30.8284C38.9573 30.2444 38.504 29.9016 38.3969 29.7093C38.0137 29.3875 37.6387 29.1567 37.2143 28.9924C36.3448 28.6566 35.4218 28.6077 34.5276 28.9014C33.8518 29.1253 33.1966 29.5309 32.7639 30.1045C32.2241 30.8144 32.2241 31.5908 32.2365 32.4022C32.2447 33.1751 32.2818 33.9619 32.2653 34.7243V34.7278Z" fill="#29CFCF"/>
<circle cx="57.4159" cy="13.5985" r="11.0803" fill="#A9ECBC"/>
<path d="M67.4888 1.51094L57.1839 18.635L52.3794 13.6591" stroke="#29CF57" stroke-width="3" stroke-linecap="round" stroke-linejoin="bevel"/>
</svg>
