<svg width="22" height="22" viewBox="0 0 22 22" fill="none" xmlns="http://www.w3.org/2000/svg">
<path d="M11.0003 19.3332C15.6027 19.3332 19.3337 15.6022 19.3337 10.9998C19.3337 6.39746 15.6027 2.6665 11.0003 2.6665C6.39795 2.6665 2.66699 6.39746 2.66699 10.9998C2.66699 15.6022 6.39795 19.3332 11.0003 19.3332Z" stroke="#0096C2" stroke-width="2" stroke-linecap="round" stroke-linejoin="round"/>
<path d="M10.9997 15.1668C13.3009 15.1668 15.1663 13.3013 15.1663 11.0002C15.1663 8.69898 13.3009 6.8335 10.9997 6.8335C8.69849 6.8335 6.83301 8.69898 6.83301 11.0002C6.83301 13.3013 8.69849 15.1668 10.9997 15.1668Z" fill="#0096C2"/>
<path d="M20.9997 11H19.333" stroke="#0096C2" stroke-width="2" stroke-linecap="round" stroke-linejoin="round"/>
<path d="M2.66667 11H1" stroke="#0096C2" stroke-width="2" stroke-linecap="round" stroke-linejoin="round"/>
<path d="M11 2.66667V1" stroke="#0096C2" stroke-width="2" stroke-linecap="round" stroke-linejoin="round"/>
<path d="M11 21.0002V19.3335" stroke="#0096C2" stroke-width="2" stroke-linecap="round" stroke-linejoin="round"/>
</svg>
