<svg width="37" height="48" viewBox="0 0 37 48" fill="none" xmlns="http://www.w3.org/2000/svg">
<path fill-rule="evenodd" clip-rule="evenodd" d="M19 0C29.4922 0 37 8.50781 37 19C37 28.269 22.9524 43.6213 19.6769 47.075C19.2999 47.4726 18.6932 47.482 18.3054 47.0949C14.8854 43.6807 0 28.2869 0 19C0 8.50781 8.50781 0 19 0Z" fill="#009ACA"/>
<path d="M17.2853 23.6352L17.3508 19.8822L17.7785 19.863C17.9982 19.8514 18.2563 19.8399 18.5184 19.8283C21.4853 19.7011 24.722 19.5663 25.9781 16.6109C26.1091 16.3026 26.2093 15.979 26.2748 15.6437C26.3403 15.3085 26.375 14.9617 26.375 14.5995C26.375 14.2373 26.3403 13.9098 26.2787 13.59C26.2131 13.2625 26.113 12.9504 25.982 12.646C25.8471 12.3377 25.693 12.0526 25.508 11.7829C25.3308 11.5209 25.1227 11.2704 24.8877 11.0354C24.6565 10.8042 24.406 10.5961 24.1363 10.415C23.8666 10.2339 23.5737 10.0759 23.2578 9.94105C22.9457 9.80619 22.6258 9.70601 22.2983 9.64051C21.9747 9.575 21.6356 9.54418 21.2849 9.54418C20.5914 9.54418 19.9325 9.67518 19.3121 9.94105C18.9962 10.0759 18.7033 10.2339 18.4336 10.415C18.1639 10.5961 17.9134 10.8003 17.6822 11.0315C17.4472 11.2704 17.2391 11.517 17.0619 11.7829C16.8808 12.0526 16.7228 12.3416 16.5879 12.646C16.4569 12.9504 16.3567 13.2625 16.2912 13.59C16.2257 13.9098 16.1949 14.245 16.1949 14.5995V33.7883L11.4593 29.9621L11.4324 14.6766V14.5995C11.4324 13.9329 11.4979 13.2779 11.6289 12.6383C11.7599 11.9986 11.9526 11.3783 12.2069 10.781C12.465 10.1799 12.7656 9.62124 13.1162 9.09721C13.4668 8.57318 13.8599 8.08768 14.303 7.63685C14.7461 7.18603 15.2277 6.7853 15.7479 6.42696C16.2681 6.07247 16.8268 5.76036 17.4241 5.49834C18.0252 5.23633 18.6494 5.03596 19.2967 4.90495C19.944 4.77009 20.6106 4.70459 21.2888 4.70459C21.9669 4.70459 22.6143 4.77009 23.2578 4.90495C23.9012 5.03596 24.5255 5.23633 25.1343 5.49834C25.7392 5.76036 26.3056 6.07247 26.8297 6.42311C27.3575 6.78145 27.8469 7.18218 28.2939 7.62915C28.737 8.07226 29.1377 8.55776 29.4999 9.0895C29.8582 9.61739 30.1665 10.1761 30.4285 10.7695C30.6905 11.3706 30.8909 11.9909 31.0219 12.6306C31.1529 13.2702 31.2223 13.9252 31.2223 14.5957C31.2223 15.2661 31.1568 15.9404 31.0219 16.5878C30.8909 17.2351 30.6905 17.8593 30.4285 18.4604C30.1665 19.0538 29.8621 19.6164 29.5076 20.1443C29.1531 20.676 28.7485 21.1615 28.2862 21.6046C27.1148 22.7297 25.5774 23.4156 23.9167 23.7971C21.8783 24.2672 19.6512 24.2787 17.7015 24.0899L17.2853 24.0475L17.2931 23.6275L17.2853 23.6352Z" fill="white"/>
<path fill-rule="evenodd" clip-rule="evenodd" d="M8.24588 18.7266L8.21505 26.8298L3.26758 22.6414C4.9283 21.2889 6.58901 19.9364 8.24973 18.584V18.7266H8.24588Z" fill="white"/>
<path fill-rule="evenodd" clip-rule="evenodd" d="M17.7439 18.114H17.7593C19.1272 18.1449 21.7782 18.2605 22.8378 17.5592C24.1787 16.6691 24.5409 15.2203 24.171 13.8177C24.0015 13.1743 23.5776 12.7967 23.4774 12.5847C23.1191 12.2302 22.7685 11.9759 22.3716 11.7948C21.5586 11.4249 20.6955 11.371 19.8593 11.6946C19.2274 11.9412 18.6147 12.3882 18.2102 13.0201C17.7054 13.8023 17.7054 14.6577 17.717 15.5517C17.7247 16.4032 17.7593 17.2702 17.7439 18.1102V18.114Z" fill="#29CFCF"/>
</svg>
