<svg width="108" height="75" viewBox="0 0 108 75" fill="none" xmlns="http://www.w3.org/2000/svg">
<path d="M99.3755 34.4981C99.3755 34.4981 100.79 33.0707 101.195 41.7042C101.577 49.853 102.138 61.6003 100.18 66.6419C99.9678 67.187 99.5923 67.6561 99.0939 67.9621C98.6893 68.2123 98.126 68.4624 97.3951 68.5764C95.6897 68.8422 88.9506 68.6925 88.9506 68.6925C88.9506 68.6925 85.1262 68.6925 85.0681 65.5452C85.0212 62.9562 85.0681 57.3249 85.0681 57.3249L99.3755 34.4981Z" fill="#263238"/>
<g opacity="0.3">
<path d="M99.3755 34.4981C99.3755 34.4981 100.79 33.0707 101.195 41.7042C101.577 49.853 102.138 61.6003 100.18 66.6419C99.9678 67.187 99.5923 67.6561 99.0939 67.9621C98.6893 68.2123 98.126 68.4624 97.3951 68.5764C95.6897 68.8422 88.9506 68.6925 88.9506 68.6925C88.9506 68.6925 85.1262 68.6925 85.0681 65.5452C85.0212 62.9562 85.0681 57.3249 85.0681 57.3249L99.3755 34.4981Z" fill="black"/>
</g>
<path d="M21.5283 34.4981C21.5283 34.4981 22.9432 33.0707 23.3478 41.7042C23.73 49.853 24.291 61.6003 22.333 66.6419C22.1207 67.187 21.7452 67.6561 21.2467 67.9621C20.8421 68.2123 20.2789 68.4624 19.5502 68.5764C17.8448 68.8422 11.1057 68.6925 11.1057 68.6925C11.1057 68.6925 7.28129 68.6925 7.22318 65.5452C7.17624 62.9562 7.22318 57.3249 7.22318 57.3249L21.5306 34.4981H21.5283Z" fill="#263238"/>
<g opacity="0.3">
<path d="M21.5283 34.4981C21.5283 34.4981 22.9432 33.0707 23.3478 41.7042C23.73 49.853 24.291 61.6003 22.333 66.6419C22.1207 67.187 21.7452 67.6561 21.2467 67.9621C20.8421 68.2123 20.2789 68.4624 19.5502 68.5764C17.8448 68.8422 11.1057 68.6925 11.1057 68.6925C11.1057 68.6925 7.28129 68.6925 7.22318 65.5452C7.17624 62.9562 7.22318 57.3249 7.22318 57.3249L21.5306 34.4981H21.5283Z" fill="black"/>
</g>
<path d="M0.716577 19.5609C0.716577 19.5609 1.14574 21.0196 2.0264 21.1715C2.9093 21.3234 9.86295 21.5356 9.86295 21.5356L10.5424 22.9339H11.8523L12.8044 17.325L11.9931 17.4925C11.7159 17.5506 11.4835 17.7382 11.3717 17.9995C11.2488 18.2877 10.9783 18.4865 10.6676 18.5178L0.714353 19.5587L0.716577 19.5609Z" fill="#263238"/>
<path d="M1.00701 19.7774C0.490685 19.7372 0.11293 19.2704 0.186691 18.7566C0.41468 17.155 1.25511 14.0411 4.35084 13.581C7.09117 13.1722 9.08049 13.2973 10.131 13.4336C10.6116 13.4961 10.8507 13.9317 10.9066 14.4142C11.1704 16.6167 10.958 19.3486 10.321 19.6836C9.65716 20.0343 3.26678 19.9584 1.00701 19.7797V19.7774Z" fill="#E8E8E8"/>
<path d="M5.15552 13.5947C5.15552 13.5947 5.08622 13.6684 4.97892 13.8158C4.87162 13.961 4.72408 14.18 4.54972 14.4548C4.201 15.0043 3.76063 15.7907 3.3672 16.7021C2.97376 17.6136 2.70104 18.4737 2.54009 19.1037C2.45962 19.4187 2.40149 19.6756 2.36796 19.8543C2.33443 20.033 2.31878 20.1313 2.32773 20.1335C2.33667 20.1335 2.36573 20.0397 2.41267 19.8632C2.45738 19.689 2.52891 19.4343 2.61833 19.1238C2.79939 18.5027 3.08106 17.6538 3.47225 16.7468C3.86569 15.8421 4.29041 15.0535 4.61902 14.4972C4.7822 14.2179 4.92081 13.9946 5.01693 13.8404C5.11305 13.6863 5.16223 13.5991 5.15552 13.5947Z" fill="#263238"/>
<path d="M2.28799 40.3439C2.28799 40.3439 0.873115 38.9165 0.468548 47.55C0.0863304 55.6987 -0.474691 67.4461 1.48333 72.4877C1.69567 73.0327 2.07118 73.5018 2.56962 73.8078C2.97419 74.058 3.53745 74.3082 4.26612 74.4221C5.97156 74.6879 12.7106 74.5383 12.7106 74.5383C12.7106 74.5383 16.535 74.5383 16.5932 71.3909C16.6401 68.802 16.5932 63.1707 16.5932 63.1707L2.28575 40.3439H2.28799Z" fill="#263238"/>
<path d="M2.28812 40.3439C2.28812 40.3439 2.30824 40.3819 2.35294 40.4556C2.39988 40.5316 2.4647 40.6388 2.55187 40.7818C2.73069 41.0699 2.98997 41.4921 3.32971 42.0394C4.01368 43.1384 5.01058 44.7378 6.26898 46.7571C8.7925 50.7935 12.3621 56.503 16.5508 63.1998L16.5419 63.1707C16.5419 65.6234 16.5419 68.1967 16.5396 70.8616C16.5396 71.1944 16.5531 71.5317 16.4972 71.8556C16.448 72.1817 16.3452 72.5012 16.182 72.7893C15.8579 73.3723 15.2969 73.8012 14.6733 74.0626C13.4104 74.6277 11.9709 74.4602 10.5672 74.5115C9.08755 74.5249 7.6235 74.5294 6.18181 74.4892C5.46431 74.4624 4.74236 74.4512 4.05392 74.3239C3.70971 74.2547 3.37442 74.1474 3.05926 74.0045C2.7441 73.8593 2.44012 73.6851 2.19425 73.4483C1.94615 73.2137 1.74498 72.9323 1.60416 72.624C1.5304 72.4721 1.48569 72.3046 1.42981 72.1438C1.37616 71.9807 1.32253 71.8199 1.26888 71.6568C1.21077 71.496 1.17054 71.3307 1.1303 71.1654C1.09007 71.0001 1.04984 70.8348 1.00961 70.6717C0.920199 70.3456 0.866548 70.0128 0.806197 69.6822C0.674322 69.0254 0.602797 68.3642 0.51339 67.7164C0.473156 67.3903 0.44857 67.0664 0.417278 66.7425C0.38822 66.4209 0.352459 66.0992 0.334578 65.7798C0.153528 63.2244 0.128933 60.7851 0.144579 58.5067C0.164696 56.226 0.229521 54.1039 0.303282 52.165C0.379278 50.2283 0.457514 48.4748 0.531275 46.9358C0.613976 45.399 0.736912 44.0766 0.90902 43.0066C1.08336 41.9411 1.29347 41.1101 1.59522 40.6254C1.67122 40.507 1.75168 40.4087 1.83885 40.3462C1.92602 40.2814 2.01543 40.2591 2.08695 40.2635C2.23224 40.2792 2.28589 40.3507 2.28589 40.3439C2.28589 40.3439 2.27471 40.3283 2.24342 40.3082C2.21212 40.2881 2.16071 40.2591 2.08695 40.2524C2.01319 40.2457 1.91708 40.268 1.82768 40.3305C1.73827 40.3931 1.65333 40.4914 1.5751 40.612C1.26441 41.1012 1.04536 41.9322 0.864314 42.9977C0.6855 44.0699 0.555853 45.3922 0.466446 46.9313C0.385979 48.4704 0.301048 50.2239 0.220581 52.1605C0.142349 54.0994 0.0708199 56.2237 0.0484676 58.5044C0.0283508 60.7851 0.0484791 63.2266 0.227293 65.7865C0.242939 66.1059 0.2787 66.4276 0.307756 66.7515C0.339048 67.0754 0.363634 67.4015 0.403868 67.7276C0.491039 68.3799 0.5648 69.0411 0.696675 69.7023C0.75479 70.0329 0.810664 70.3679 0.900071 70.6963C0.940305 70.8616 0.980547 71.0269 1.02078 71.1944C1.05878 71.3619 1.10124 71.5272 1.15936 71.6903C1.213 71.8534 1.26664 72.0164 1.32252 72.1817C1.3784 72.3448 1.4231 72.5123 1.50134 72.6732C1.64886 72.9948 1.85897 73.2874 2.11825 73.5332C2.37753 73.7811 2.69269 73.962 3.01456 74.1095C3.33866 74.2591 3.68288 74.3664 4.0338 74.4378C4.74235 74.5674 5.46208 74.5786 6.18181 74.6054C7.62573 74.6456 9.08978 74.6411 10.5717 74.6277C11.278 74.6165 11.9799 74.6054 12.6773 74.5964C13.3813 74.5786 14.0787 74.4401 14.7224 74.1698C15.3617 73.9017 15.9473 73.4572 16.2848 72.8452C16.4547 72.5436 16.5598 72.2085 16.6112 71.8712C16.667 71.5317 16.6514 71.1944 16.6536 70.8616C16.6536 68.1967 16.6536 65.6212 16.6514 63.1685V63.1529L16.6425 63.1395C12.4403 56.4494 8.85732 50.7466 6.32262 46.7146C5.05528 44.7042 4.04944 43.1093 3.35877 42.0148C3.01455 41.472 2.74857 41.0543 2.56752 40.7684C2.47811 40.6299 2.40883 40.5226 2.36189 40.4489C2.31495 40.3775 2.29036 40.3417 2.29036 40.3417L2.28812 40.3439Z" fill="#455A64"/>
<path d="M105.73 40.3439C105.73 40.3439 107.145 38.9165 107.549 47.55C107.932 55.6987 108.493 67.4461 106.535 72.4877C106.322 73.0327 105.947 73.5018 105.448 73.8078C105.044 74.058 104.481 74.3082 103.752 74.4221C102.046 74.6879 95.3073 74.5383 95.3073 74.5383C95.3073 74.5383 91.4829 74.5383 91.4248 71.3909C91.3779 68.802 91.4248 63.1707 91.4248 63.1707L105.732 40.3439H105.73Z" fill="#263238"/>
<path d="M0.973656 32.9052L4.10515 30.8502C4.81593 27.6537 10.6229 21.0216 10.6229 21.0216C10.6229 21.0216 16.6669 6.45528 21.8815 3.01976C27.0962 -0.415764 52.5639 0.017587 52.5639 0.017587L53.9117 0.0376901C53.9117 0.0376901 80.8993 -0.41353 86.114 3.01976C91.3287 6.45528 97.3726 21.0216 97.3726 21.0216C97.3726 21.0216 103.18 27.6537 103.89 30.8502L107.022 32.9052C107.654 33.3207 108.025 34.0355 107.999 34.7928C107.809 40.1873 106.769 61.6068 104.959 64.0104C103.224 66.3111 86.8382 65.0915 82.3835 65.0848C75.9931 65.0736 56.0955 64.8123 56.0955 64.8123L26.8526 64.7408C23.5356 64.3856 5.29202 66.6149 3.0412 64.0104C1.07423 61.7342 0.191345 40.1873 0.00135803 34.7928C-0.0254669 34.0355 0.345573 33.3207 0.978127 32.9052H0.973656Z" fill="#EAE8E8"/>
<path d="M23.2942 3.99613C23.4261 3.76605 23.6675 3.62086 23.9313 3.60745L53.5407 2.33868L53.7732 2.32974L53.7776 2.34985L84.0822 3.60745C84.3482 3.61862 84.5874 3.76605 84.7193 3.99613L92.4396 17.459C92.7011 17.9125 92.3815 18.4821 91.8584 18.4955C91.0113 18.52 89.7529 18.5334 88.2933 18.4731C85.9196 18.3748 67.0323 18.4195 57.0634 18.453L57.0678 18.4731C57.0678 18.4731 55.9123 18.4687 54.0079 18.462C52.1035 18.4687 50.9479 18.4731 50.9479 18.4731L50.9524 18.453C40.9835 18.4218 22.0962 18.3771 19.7224 18.4731C18.1846 18.5357 16.8748 18.52 16.0277 18.4932C15.5627 18.4776 15.2811 17.9728 15.5113 17.5685L23.2942 3.99613Z" fill="#455A64"/>
<path d="M107.301 19.5609C107.301 19.5609 106.872 21.0196 105.992 21.1715C105.111 21.3234 98.155 21.5356 98.155 21.5356L97.4755 22.9339H96.1657L95.2135 17.325L96.0249 17.4925C96.302 17.5506 96.5345 17.7382 96.6462 17.9995C96.7692 18.2877 97.0396 18.4865 97.3503 18.5178L107.304 19.5587L107.301 19.5609Z" fill="#263238"/>
<path d="M89.5673 15.9377L18.3521 15.7456L17.7755 17.1596L52.1839 17.3852L90.2356 17.1373L89.5673 15.9377Z" fill="#565656"/>
<g opacity="0.5">
<path d="M89.6077 15.9377L18.5982 15.7456L17.8159 17.1596L52.2265 17.3852L90.276 17.1373L89.6077 15.9377Z" fill="black"/>
</g>
<path d="M62.8817 16.2615C62.8817 15.4841 63.1812 13.2883 63.9009 12.7031C64.4575 12.2519 65.774 12.1156 66.4245 12.0776C66.4446 12.0776 66.4647 12.0776 66.487 12.0776C66.8313 12.0821 69.1335 12.1424 69.8219 12.7031C70.5417 13.2883 70.8434 15.4841 70.8412 16.2615V16.2838C70.8412 16.7663 70.45 17.1572 69.965 17.1572H63.7556C63.2728 17.1572 62.8795 16.7663 62.8795 16.2838V16.2615H62.8817Z" fill="#263238"/>
<g opacity="0.3">
<path d="M62.8817 16.2615C62.8817 15.4841 63.1812 13.2883 63.9009 12.7031C64.4575 12.2519 65.774 12.1156 66.4245 12.0776C66.4446 12.0776 66.4647 12.0776 66.487 12.0776C66.8313 12.0821 69.1335 12.1424 69.8219 12.7031C70.5417 13.2883 70.8434 15.4841 70.8412 16.2615V16.2838C70.8412 16.7663 70.45 17.1572 69.965 17.1572H63.7556C63.2728 17.1572 62.8795 16.7663 62.8795 16.2838V16.2615H62.8817Z" fill="black"/>
</g>
<path d="M66.0153 15.6899C66.0153 14.4189 66.5048 10.8248 67.685 9.86649C68.5969 9.12712 70.7516 8.90598 71.8156 8.84343C71.8491 8.84343 71.8826 8.8412 71.9162 8.84343C72.4794 8.85013 76.2479 8.95065 77.3767 9.86873C78.5569 10.827 79.0464 14.4234 79.0464 15.6921V15.7301C79.0464 16.5209 78.4049 17.162 77.6136 17.162H67.448C66.6568 17.162 66.0153 16.5209 66.0153 15.7301V15.6921V15.6899Z" fill="#263238"/>
<g opacity="0.3">
<path d="M78.4674 52.8551C78.4674 52.8551 101.266 49.8596 102.194 49.7479C103.602 49.5782 104.357 50.4895 104.357 51.5751C104.357 52.3391 104.46 55.2586 104.521 56.9183C104.556 57.8967 104.062 58.8237 103.218 59.3218C102.73 59.6077 102.078 59.9048 101.21 60.1595C99.2926 60.7224 87.7367 61.2563 85.3428 61.3613C85.0634 61.3747 84.7885 61.2764 84.5784 61.091C83.7156 60.3315 81.4066 58.2586 80.6802 57.231C78.2997 53.867 78.4674 52.8529 78.4674 52.8529V52.8551ZM90.3027 59.0828L101.324 57.298L100.891 51.2647L85.9172 52.6228L90.3004 59.0806L90.3027 59.0828Z" fill="black"/>
</g>
<g opacity="0.3">
<path d="M104.013 37.3663C104.013 37.3663 105.142 40.7929 97.9673 42.3878C90.703 44.0028 79.954 46.929 79.954 46.929L85.7274 42.8167C85.7274 42.8167 102.335 40.049 102.748 37.5092C103.222 34.6054 102.748 31.3418 102.748 31.3418L104.013 37.3663Z" fill="black"/>
</g>
<path d="M75.9887 52.7524C75.9887 52.7524 76.0156 52.7502 76.067 52.7368C76.1251 52.7234 76.1989 52.7055 76.295 52.6831C76.5006 52.6318 76.7934 52.5581 77.1667 52.4642C77.9244 52.2788 79.0197 52.0063 80.3831 51.707C83.1056 51.0972 86.8897 50.3511 91.0919 49.6676C93.1929 49.328 95.1979 49.0131 97.0285 48.7741C97.9427 48.649 98.81 48.5306 99.6236 48.4189C100.435 48.305 101.195 48.1955 101.888 48.2134C102.578 48.229 103.207 48.3899 103.651 48.716C104.101 49.031 104.414 49.4018 104.621 49.7279C105.037 50.3913 105.033 50.8537 105.055 50.8425C105.055 50.8425 105.055 50.7331 105.008 50.532C104.963 50.331 104.865 50.0384 104.659 49.7033C104.456 49.3682 104.145 48.9885 103.689 48.6624C103.238 48.3206 102.592 48.1486 101.892 48.1307C101.188 48.1084 100.426 48.2134 99.6146 48.3229C98.801 48.4301 97.9315 48.5462 97.0173 48.6691C95.1867 48.9014 93.1795 49.2119 91.0762 49.5537C86.8718 50.2372 83.0877 50.9944 80.3697 51.6266C79.0085 51.9371 77.9155 52.223 77.16 52.4218C76.7889 52.5246 76.4984 52.605 76.295 52.663C76.2011 52.6899 76.1273 52.7122 76.0715 52.7278C76.02 52.7435 75.9955 52.7524 75.9955 52.7546L75.9887 52.7524Z" fill="#263238"/>
<path d="M104.925 43.8931C104.925 43.8931 104.934 43.8485 104.936 43.7658C104.939 43.6698 104.943 43.5492 104.948 43.3995C104.954 43.0823 104.957 42.6221 104.948 42.0525C104.934 40.9155 104.872 39.3452 104.72 37.6163C104.565 35.8874 104.349 34.3304 104.163 33.2091C104.069 32.6484 103.986 32.195 103.924 31.8845C103.893 31.7393 103.868 31.6209 103.848 31.5271C103.83 31.4444 103.819 31.402 103.814 31.4042C103.81 31.4042 103.814 31.4489 103.826 31.5315C103.839 31.6276 103.857 31.746 103.879 31.8934C103.931 32.224 103.998 32.673 104.083 33.2225C104.248 34.3461 104.451 35.9008 104.606 37.6275C104.758 39.3519 104.834 40.92 104.867 42.0548C104.881 42.611 104.894 43.0667 104.903 43.3995C104.907 43.5469 104.912 43.6698 104.914 43.7658C104.919 43.8485 104.921 43.8931 104.925 43.8931Z" fill="#263238"/>
<path d="M99.9363 28.4586C99.9363 28.4586 99.9475 28.3603 99.9453 28.1838C99.9453 28.0944 99.943 27.9872 99.9251 27.8621C99.9095 27.737 99.9028 27.594 99.8737 27.4376C99.7798 26.8121 99.5697 25.9632 99.2791 25.045C98.9907 24.1268 98.68 23.3114 98.4453 22.7261C98.3268 22.4335 98.2262 22.1989 98.1547 22.0381C98.0809 21.8772 98.0362 21.7901 98.0295 21.7946C98.0228 21.7968 98.0519 21.8906 98.1122 22.0559C98.1815 22.2436 98.2665 22.4782 98.3693 22.7552C98.5861 23.3472 98.8812 24.1648 99.1696 25.0785C99.4579 25.9922 99.6815 26.8344 99.7933 27.451C99.9095 28.0676 99.914 28.4586 99.9363 28.4586Z" fill="#263238"/>
<path d="M98.5818 30.0215C98.5818 30.0215 102.321 28.6589 102.8 31.5561C103.278 34.4533 103.229 37.3371 102.601 38.349C101.973 39.3631 96.1991 40.7436 96.1991 40.7436L86.2145 42.9371C86.2145 42.9371 85.497 43.0868 85.9284 42.2737C86.4135 41.3645 89.0577 35.5344 90.5865 34.1182C93.4073 31.5025 98.5818 30.0193 98.5818 30.0193V30.0215Z" fill="#F5F5F5"/>
<g opacity="0.3">
<path d="M94.8959 41.0317C94.8959 41.0317 94.8803 34.2031 95.3809 33.4458C95.8816 32.6886 101.767 29.9656 101.767 29.9656C101.767 29.9656 101.195 29.4787 100.019 29.702C98.8432 29.9254 96.8874 30.457 95.2647 31.2902C93.6397 32.1234 91.0402 33.3163 90.0701 34.6967C89.6477 35.2954 88.7648 36.7294 87.9221 38.2841C86.8269 40.3057 85.7898 42.468 85.7898 42.5864C85.7898 42.8343 85.7317 43.0599 86.7017 42.8544C88.9503 42.3741 94.8959 41.0361 94.8959 41.0361V41.0317Z" fill="black"/>
</g>
<path d="M91.6435 40.4159C90.3052 40.4159 89.2203 39.3317 89.2203 37.9943C89.2203 36.6568 90.3052 35.5726 91.6435 35.5726C92.9818 35.5726 94.0667 36.6568 94.0667 37.9943C94.0667 39.3317 92.9818 40.4159 91.6435 40.4159Z" fill="#F5F5F5"/>
<path d="M89.2204 37.9941C89.2361 37.9941 89.2204 37.7774 89.3188 37.4088C89.4127 37.0469 89.6563 36.513 90.2018 36.1019C90.4723 35.9009 90.812 35.7311 91.2032 35.6641C91.5922 35.5993 92.0303 35.6127 92.4484 35.7713C92.6585 35.845 92.8597 35.9545 93.0474 36.0952C93.2352 36.2315 93.4073 36.4013 93.5459 36.5979C93.8365 36.9844 93.9997 37.4825 94.0042 37.9941C93.9997 38.5057 93.8365 39.0039 93.5459 39.3904C93.4051 39.587 93.2352 39.7567 93.0474 39.893C92.8619 40.0315 92.6585 40.1432 92.4484 40.2169C92.0303 40.3755 91.5922 40.389 91.2032 40.3242C90.812 40.2571 90.4723 40.0851 90.2018 39.8841C89.6563 39.473 89.4127 38.9413 89.3188 38.5772C89.2227 38.2086 89.2361 37.9896 89.2204 37.9919C89.2204 37.9919 89.1914 38.2086 89.2741 38.5884C89.3568 38.9614 89.5937 39.5155 90.1526 39.9489C90.4298 40.1611 90.7807 40.342 91.1876 40.418C91.5922 40.4895 92.0505 40.4805 92.4864 40.3175C92.7054 40.2415 92.92 40.1276 93.1145 39.9824C93.3112 39.8394 93.4923 39.6629 93.6398 39.4574C93.9461 39.053 94.1182 38.5303 94.1227 37.9919C94.1182 37.4535 93.9438 36.933 93.6398 36.5286C93.4923 36.3231 93.3112 36.1466 93.1145 36.0036C92.92 35.8584 92.7077 35.7445 92.4864 35.6685C92.0482 35.5055 91.5922 35.4943 91.1876 35.568C90.7807 35.644 90.4298 35.8249 90.1526 36.0371C89.5937 36.4705 89.3568 37.0246 89.2741 37.3976C89.1914 37.7774 89.2204 37.9941 89.2204 37.9941Z" fill="#263238"/>
<path d="M91.6437 37.8892C90.754 37.8892 89.9806 38.3829 89.5804 39.109C89.3949 38.7716 89.2898 38.3874 89.2898 37.9763C89.2898 36.6761 90.3449 35.6217 91.646 35.6217C92.947 35.6217 94.0021 36.6761 94.0021 37.9763C94.0021 38.3874 93.897 38.7739 93.7115 39.109C93.3113 38.3807 92.5379 37.8892 91.6482 37.8892H91.6437Z" fill="#E0E0E0"/>
<path d="M90.5994 37.914C90.5994 38.4904 91.0666 38.9573 91.6433 38.9573C92.2201 38.9573 92.6873 38.4904 92.6873 37.914C92.6873 37.3376 92.2201 36.8707 91.6433 36.8707C91.0666 36.8707 90.5994 37.3376 90.5994 37.914Z" fill="white"/>
<path d="M90.5998 37.9137C90.611 37.9137 90.6087 37.8198 90.6534 37.6635C90.6981 37.5093 90.8032 37.2859 91.0357 37.1161C91.2592 36.9441 91.6258 36.8503 91.979 36.9843C92.33 37.1072 92.6318 37.478 92.6273 37.9137C92.6318 38.3493 92.33 38.7224 91.979 38.843C91.6258 38.9748 91.2592 38.881 91.0357 38.709C90.8032 38.5392 90.6981 38.3158 90.6534 38.1616C90.6087 38.0053 90.611 37.9114 90.5998 37.9114C90.5953 37.9114 90.5931 37.9338 90.5908 37.9785C90.5886 38.0231 90.5908 38.0879 90.611 38.1706C90.6422 38.3337 90.7428 38.5794 90.9887 38.7715C91.2235 38.9659 91.6258 39.082 92.0193 38.9391C92.4105 38.8095 92.7525 38.3962 92.748 37.9092C92.7525 37.4222 92.4105 37.0067 92.0193 36.8793C91.6258 36.7386 91.2235 36.8548 90.9887 37.0469C90.7451 37.2412 90.6445 37.4847 90.611 37.6478C90.5931 37.7305 90.5886 37.7975 90.5908 37.8399C90.5908 37.8846 90.5953 37.907 90.5998 37.907V37.9137Z" fill="#263238"/>
<path d="M90.7293 36.2762C90.7718 36.3499 90.9909 36.2851 91.3217 36.265C91.6503 36.2404 92.1063 36.2762 92.5244 36.4974C92.9402 36.7208 93.2263 37.0782 93.3895 37.3641C93.5571 37.6501 93.6264 37.8668 93.7114 37.8623C93.7851 37.8623 93.8678 37.6143 93.774 37.2145C93.6845 36.8258 93.3761 36.2918 92.7993 35.9835C92.2226 35.6775 91.6056 35.7199 91.2323 35.8629C90.8478 36.0059 90.6891 36.2136 90.7293 36.2762Z" fill="white"/>
<path d="M90.124 36.6604C90.2558 36.752 90.3788 36.8056 90.4012 36.7855C90.4235 36.7632 90.3721 36.6403 90.2849 36.5062C90.1977 36.3722 90.0636 36.303 89.9965 36.3677C89.9295 36.4325 89.9943 36.5688 90.1262 36.6604H90.124Z" fill="white"/>
<path d="M53.5093 30.3789C53.5093 30.3789 53.5406 30.3834 53.6054 30.3856C53.6747 30.3856 53.7664 30.3878 53.8871 30.3901C54.1396 30.3923 54.5017 30.3945 54.9667 30.399C55.9099 30.4012 57.2667 30.4079 58.9386 30.4124C62.2981 30.4124 66.9271 30.4124 72.0412 30.4124C74.6005 30.4079 77.0368 30.4035 79.2564 30.399C80.365 30.3968 81.4178 30.3923 82.4035 30.3901C82.8953 30.3901 83.3714 30.3856 83.8296 30.3856C84.2833 30.3566 84.7147 30.4839 85.0388 30.7363C85.6803 31.2747 86.2592 31.7616 86.7688 32.1905C87.0236 32.4049 87.2628 32.6037 87.4819 32.7869C87.7121 32.9634 87.9602 33.0706 88.1904 33.1264C88.4206 33.1823 88.6352 33.1867 88.814 33.1733C88.9928 33.1644 89.1448 33.1555 89.27 33.1488C89.3885 33.1421 89.4823 33.1354 89.5494 33.1309C89.612 33.1264 89.6455 33.1242 89.6455 33.122C89.6455 33.122 89.612 33.1197 89.5494 33.122C89.4801 33.122 89.3885 33.1242 89.2678 33.1264C89.1426 33.1309 88.9906 33.1331 88.8118 33.1398C88.6307 33.151 88.4251 33.1421 88.1993 33.084C87.9758 33.0259 87.7367 32.9187 87.5154 32.7445C87.2986 32.5591 87.0639 32.358 86.8113 32.1436C86.3039 31.7102 85.7272 31.2188 85.088 30.6738C84.7527 30.4057 84.2878 30.2695 83.8273 30.2985C83.3691 30.2985 82.893 30.2985 82.4013 30.2985C81.4156 30.2985 80.3628 30.2985 79.2541 30.2985C77.0368 30.2985 74.5983 30.3007 72.039 30.303C66.9249 30.3164 62.2958 30.3275 58.9363 30.3342C57.2644 30.3432 55.9077 30.3521 54.9644 30.3566C54.4995 30.361 54.1374 30.3655 53.8848 30.3677C53.7664 30.37 53.6725 30.3722 53.6032 30.3744C53.5406 30.3744 53.5071 30.3789 53.5071 30.3811L53.5093 30.3789Z" fill="#263238"/>
<path d="M6.66004 62.219C6.78074 61.9666 7.03555 61.7857 7.53847 61.8415C8.93546 62.0001 23.5804 62.3262 25.5965 61.8415C27.6149 61.3568 34.3383 53.7307 37.1837 53.2125C39.5709 52.7769 51.1782 52.5446 54.8573 52.6496C58.5386 52.5424 70.1459 52.7769 72.5308 53.2125C75.3762 53.733 81.9991 62.1029 84.0174 62.5876C86.0358 63.0723 100.781 62.0001 102.178 61.8415C102.683 61.7834 102.938 61.9644 103.057 62.219C103.305 62.7439 102.902 63.3493 102.319 63.3672C99.201 63.4543 87.1556 63.5928 84.9026 63.5526C82.5378 63.5101 58.3576 63.0678 54.3052 62.9941C48.1964 63.0321 27.3243 63.1661 25.1137 63.1974C22.5075 63.2331 10.509 63.4543 7.38871 63.3672C6.80756 63.3515 6.403 62.7462 6.65111 62.219H6.66004Z" fill="#263238"/>
<path d="M58.9655 3.33927C58.8448 3.33927 58.4827 5.44124 56.7862 5.40103C55.0896 5.36083 50.9479 5.40103 50.9479 5.40103V2.77637L58.9655 3.34151V3.33927Z" fill="#263238"/>
<path d="M107.009 19.7774C107.525 19.7372 107.903 19.2704 107.829 18.7566C107.601 17.155 106.761 14.0411 103.665 13.581C100.924 13.1722 98.9351 13.2973 97.8846 13.4336C97.404 13.4961 97.1649 13.9317 97.109 14.4142C96.8452 16.6167 97.0576 19.3486 97.6946 19.6836C98.3585 20.0343 104.749 19.9584 107.009 19.7797V19.7774Z" fill="#EAE8E8"/>
<path d="M85.5865 2.77411C85.5865 2.77411 85.5932 2.79198 85.6089 2.82772C85.629 2.86793 85.6536 2.91707 85.6849 2.97515C85.7586 3.11364 85.8592 3.30128 85.9866 3.54029C86.2571 4.03842 86.6415 4.74205 87.1154 5.61098C88.081 7.36002 89.4087 9.76355 90.875 12.4173C92.0775 14.5751 93.1884 16.5653 94.0713 18.1513L94.0758 18.1603L94.0825 18.167C95.1486 18.9845 96.0248 19.6591 96.6462 20.1349C96.948 20.3627 97.1871 20.5437 97.357 20.671C97.4352 20.7268 97.4956 20.7738 97.5448 20.8095C97.5872 20.8408 97.6096 20.8542 97.6118 20.8519C97.6118 20.8519 97.5939 20.8318 97.5537 20.7983C97.5068 20.7603 97.4486 20.7112 97.3749 20.6509C97.2072 20.5169 96.9748 20.3292 96.6797 20.0947C96.0673 19.6122 95.1978 18.9264 94.1428 18.0955L94.154 18.1089C93.2756 16.5207 92.1714 14.5259 90.9778 12.3636C89.5003 9.71664 88.1615 7.31758 87.1869 5.57301C86.6997 4.71301 86.3063 4.01385 86.0269 3.52242C85.8905 3.28787 85.7832 3.10247 85.7072 2.96845L85.6223 2.82549C85.6022 2.79421 85.591 2.77858 85.5888 2.77858L85.5865 2.77411Z" fill="#263238"/>
<path d="M81.4622 1.51636C81.4578 1.53424 81.6746 1.60349 82.0166 1.73306C82.3564 1.86487 82.8258 2.06146 83.2685 2.39209C83.7111 2.72495 84.0307 3.12037 84.252 3.40855C84.4711 3.7012 84.5985 3.88886 84.6142 3.87992C84.6253 3.87322 84.5225 3.66993 84.3191 3.36164C84.1134 3.05782 83.796 2.64453 83.3377 2.30049C82.8795 1.95869 82.3922 1.7688 82.0434 1.6571C81.6903 1.54764 81.4667 1.50519 81.4622 1.5186V1.51636Z" fill="#263238"/>
<g opacity="0.3">
<path d="M94.0937 18.1446L94.3083 18.292C94.3954 18.1848 89.145 29.1816 86.6751 32.0833L85.0501 30.7073C88.5549 27.3164 91.1723 22.047 94.0937 18.1446Z" fill="black"/>
</g>
<path d="M83.6799 61.3814C83.6799 61.3814 83.633 61.3724 83.557 61.3233C83.4788 61.2764 83.3692 61.2004 83.2284 61.0887C82.949 60.8698 82.5534 60.5281 82.0527 60.0724C81.0558 59.1632 79.6432 57.8141 77.9445 56.1008C77.5198 55.6719 77.0794 55.2207 76.6235 54.7426C76.163 54.2735 75.7294 53.7374 75.1728 53.284C74.6163 52.8372 73.9658 52.4642 73.2506 52.2051C72.5353 51.9437 71.7597 51.7896 70.9595 51.7293C70.5594 51.7003 70.1526 51.7003 69.7458 51.6958C69.3368 51.6913 68.9233 51.6868 68.5053 51.6846C67.6693 51.6757 66.8177 51.669 65.9482 51.66C64.2115 51.6444 62.4144 51.6265 60.5726 51.6087C53.2055 51.5484 46.5379 51.4925 41.7055 51.4523C39.2937 51.4389 37.3424 51.4255 35.9879 51.4188C35.3151 51.4188 34.792 51.4166 34.4344 51.4166C34.2601 51.4166 34.1259 51.4166 34.0298 51.4166C33.9382 51.4166 33.8913 51.421 33.8913 51.421C33.8913 51.421 33.9382 51.4255 34.0298 51.4277C34.1259 51.43 34.2601 51.4322 34.4344 51.4367C34.7943 51.4434 35.3173 51.4501 35.9879 51.4612C37.3424 51.4791 39.2937 51.5014 41.7055 51.5327C46.5379 51.5819 53.2055 51.6489 60.5726 51.7226C62.4144 51.7382 64.2115 51.7561 65.9482 51.7717C66.8155 51.7784 67.6693 51.7874 68.5053 51.7941C68.9233 51.7985 69.3368 51.8008 69.7458 51.8052C70.1548 51.8097 70.5572 51.8097 70.9528 51.8365C71.7441 51.8968 72.5107 52.0465 73.2148 52.3011C73.9211 52.5558 74.5626 52.9199 75.1125 53.3599C75.6601 53.8022 76.096 54.3361 76.5609 54.8052C77.0169 55.281 77.4617 55.73 77.8863 56.1588C79.5918 57.8677 81.0134 59.2079 82.0214 60.1081C82.5266 60.5571 82.9267 60.8944 83.2128 61.1088C83.3536 61.2161 83.4676 61.292 83.5481 61.3345C83.6285 61.3791 83.6777 61.3814 83.6777 61.3814H83.6799Z" fill="#263238"/>
<g opacity="0.3">
<path d="M95.7203 48.0615C96.4111 47.3779 97.1085 46.6898 97.9289 46.1715C98.7493 45.6533 99.9296 45.0456 100.674 45.5282C101.052 45.9392 101.356 46.4151 101.573 46.9266C101.646 47.1009 101.709 47.3064 101.626 47.4762C101.521 47.6884 101.251 47.742 101.016 47.7711C99.3059 47.9855 97.5958 48.2 95.8835 48.4167C95.7852 48.4301 95.66 48.4301 95.613 48.343C95.5616 48.2492 95.6443 48.1375 95.7203 48.0615Z" fill="white"/>
</g>
<g opacity="0.3">
<path d="M75.7246 44.818C62.6309 48.3027 48.7974 47.4271 35.3371 45.8746C33.2584 45.6356 30.9986 45.2894 29.5815 43.7525" fill="black"/>
</g>
<path d="M26.9239 32.7534C32.038 32.0319 42.7892 31.6723 53.4622 31.679C64.1352 31.6723 74.8887 32.0319 80.0005 32.7534C81.6032 32.979 82.647 34.5694 82.1888 36.1219C82.1843 36.1398 82.1776 36.1576 82.1731 36.1778C81.6143 38.0139 79.4082 43.8731 75.8968 44.7509C74.2673 45.1575 65.0852 45.5484 55.2861 45.6288V45.6422C54.6782 45.6422 54.0702 45.6422 53.4622 45.6377C52.8543 45.64 52.2463 45.6422 51.6383 45.6422V45.6288C41.8415 45.5506 32.6572 45.1575 31.0277 44.7509C27.514 43.8731 25.3101 38.0139 24.7513 36.1778C24.7468 36.1599 24.7401 36.142 24.7357 36.1219C24.2797 34.5694 25.3213 32.979 26.9239 32.7534Z" fill="#263238"/>
<path d="M25.6298 43.9735C25.6298 43.9735 25.6746 44.0003 25.764 44.0472C25.8578 44.0964 25.992 44.1634 26.1641 44.255C26.3429 44.3465 26.5597 44.456 26.819 44.5878C26.9486 44.6526 27.0872 44.7263 27.2392 44.7955C27.3912 44.8625 27.5543 44.9363 27.7265 45.0122C29.0921 45.6488 31.1373 46.4373 33.7436 47.1298C36.3543 47.8044 39.5237 48.3807 43.0777 48.6823C46.6294 49.0106 50.5521 49.0821 54.6626 49.0665C58.7754 49.0464 62.6981 48.861 66.2364 48.3919C69.7725 47.934 72.9129 47.1946 75.4699 46.3368C78.0315 45.4902 80.0074 44.5409 81.3328 43.8238C81.6681 43.6496 81.9542 43.4776 82.2068 43.3324C82.4594 43.1895 82.6672 43.0599 82.8349 42.9549C83.0003 42.8499 83.1277 42.7717 83.2171 42.7159C83.302 42.6623 83.3445 42.631 83.3445 42.631C83.3445 42.631 83.2975 42.6556 83.2104 42.707C83.1187 42.7606 82.9913 42.8365 82.8215 42.937C82.6516 43.0398 82.4415 43.1649 82.1867 43.3056C81.9341 43.4463 81.6457 43.6161 81.3082 43.7859C79.9783 44.4895 78.0024 45.4254 75.4409 46.2609C72.8861 47.1052 69.7501 47.8357 66.2185 48.2869C62.6869 48.7493 58.7687 48.9325 54.6582 48.9503C50.5499 48.9682 46.6294 48.8989 43.0844 48.5773C39.5372 48.2802 36.3699 47.7151 33.7614 47.0516C31.1552 46.3703 29.1123 45.5952 27.7421 44.972C27.57 44.8983 27.4068 44.8268 27.2526 44.762C27.1006 44.695 26.962 44.6213 26.8324 44.5587C26.5731 44.4314 26.3518 44.3242 26.173 44.2371C25.9964 44.1522 25.8623 44.0874 25.7662 44.0405C25.6746 43.9958 25.6254 43.978 25.6254 43.978L25.6298 43.9735Z" fill="#263238"/>
<path d="M24.9996 35.6059C24.9996 35.6371 37.767 35.6639 53.5161 35.6639C69.2652 35.6639 82.0348 35.6371 82.0348 35.6059C82.0348 35.5746 69.2697 35.5478 53.5161 35.5478C37.7625 35.5478 24.9996 35.5746 24.9996 35.6059Z" fill="#455A64"/>
<path d="M24.9996 33.8702C24.9996 33.9014 37.767 33.9283 53.5161 33.9283C69.2652 33.9283 82.0348 33.9014 82.0348 33.8702C82.0348 33.8389 69.2697 33.8121 53.5161 33.8121C37.7625 33.8121 24.9996 33.8389 24.9996 33.8702Z" fill="#455A64"/>
<path d="M33.0708 32.1347C33.0708 32.166 42.2104 32.1928 53.4824 32.1928C64.7545 32.1928 73.8964 32.166 73.8964 32.1347C73.8964 32.1035 64.7589 32.0767 53.4824 32.0767C42.206 32.0767 33.0708 32.1035 33.0708 32.1347Z" fill="#455A64"/>
<path d="M24.9996 37.3661C24.9996 37.3974 37.767 37.4242 53.5161 37.4242C69.2652 37.4242 82.0348 37.3974 82.0348 37.3661C82.0348 37.3348 69.2697 37.308 53.5161 37.308C37.7625 37.308 24.9996 37.3348 24.9996 37.3661Z" fill="#455A64"/>
<path d="M26.2668 39.1263C26.2668 39.1576 38.5268 39.1844 53.6478 39.1844C68.7688 39.1844 81.031 39.1576 81.031 39.1263C81.031 39.0951 68.7733 39.0683 53.6478 39.0683C38.5223 39.0683 26.2668 39.0951 26.2668 39.1263Z" fill="#455A64"/>
<path d="M26.8211 40.8866C26.8211 40.9178 38.7503 40.9446 53.4622 40.9446C68.1742 40.9446 80.1056 40.9178 80.1056 40.8866C80.1056 40.8553 68.1787 40.8285 53.4622 40.8285C38.7458 40.8285 26.8211 40.8553 26.8211 40.8866Z" fill="#455A64"/>
<path d="M28.1979 42.6468C28.1979 42.6781 39.5124 42.7049 53.4644 42.7049C67.4164 42.7049 78.7332 42.6781 78.7332 42.6468C78.7332 42.6156 67.4209 42.5887 53.4644 42.5887C39.5079 42.5887 28.1979 42.6156 28.1979 42.6468Z" fill="#455A64"/>
<path d="M29.9102 44.4045C29.9102 44.4358 40.3932 44.4626 53.3215 44.4626C66.2497 44.4626 76.735 44.4358 76.735 44.4045C76.735 44.3733 66.2542 44.3465 53.3215 44.3465C40.3887 44.3465 29.9102 44.3733 29.9102 44.4045Z" fill="#455A64"/>
<path d="M97.028 62.6434L97.0235 62.6591C96.9139 63.0388 97.2001 63.4611 97.5957 63.4521L101.311 63.3896C101.602 63.3829 101.843 63.0947 101.879 62.8065L101.903 62.601C101.948 62.2346 101.608 61.8995 101.242 61.9263L97.5555 62.1966C97.3096 62.2145 97.0928 62.4044 97.0257 62.6434H97.028Z" fill="white"/>
<path d="M27.7153 60.4811C27.7153 60.5124 39.6959 60.5392 54.4704 60.5392C69.245 60.5392 81.2278 60.5124 81.2278 60.4811C81.2278 60.4498 69.2494 60.423 54.4704 60.423C39.6914 60.423 27.7153 60.4498 27.7153 60.4811Z" fill="#455A64"/>
<path d="M69.4326 62.4292H71.0019L71.1136 60.4812H69.3141L69.4326 62.4292Z" fill="#455A64"/>
<path d="M54.754 62.4292H56.3233L56.4351 60.4812H54.6356L54.754 62.4292Z" fill="#455A64"/>
<path d="M40.0757 62.4292H41.6449L41.7567 60.4812H39.9572L40.0757 62.4292Z" fill="#455A64"/>
<path d="M28.5447 59.7753C31.3834 57.3315 35.2077 53.5721 37.1747 53.2125C39.5619 52.7769 51.1692 52.5446 54.8483 52.6496C58.5296 52.5424 70.1369 52.7769 72.5219 53.2125C74.3525 53.5475 77.7477 57.1327 80.4724 59.7753H28.5402H28.5447Z" fill="#455A64"/>
<path d="M104.085 58.4952C104.085 58.4952 104.045 58.455 103.962 58.3835C103.87 58.3076 103.747 58.2048 103.591 58.0753C103.256 57.805 102.782 57.4185 102.19 56.9383L102.178 56.9294H102.163C100.321 57.1572 97.5471 57.4967 94.4446 57.8787C92.9359 58.0708 91.5031 58.2517 90.2268 58.4126H90.2157L90.2067 58.4193C88.6644 59.2659 87.3569 59.9851 86.427 60.4967C85.9755 60.7491 85.6134 60.9524 85.3564 61.0953L85.0747 61.2584C85.0122 61.2964 84.9786 61.3165 84.9809 61.3187C84.9809 61.3209 85.0166 61.3053 85.0837 61.2718C85.1574 61.2338 85.2536 61.1847 85.3743 61.1244C85.6358 60.9859 86.0001 60.7938 86.4583 60.5525C87.3949 60.0499 88.7091 59.344 90.2581 58.5109L90.2402 58.5176C91.5165 58.359 92.9493 58.1803 94.458 57.9949C97.5582 57.5972 100.332 57.2421 102.172 57.0075L102.143 56.9986C102.744 57.4677 103.224 57.843 103.564 58.1088C103.725 58.2316 103.853 58.3277 103.946 58.4014C104.034 58.4662 104.08 58.4997 104.083 58.4974L104.085 58.4952Z" fill="#263238"/>
<path d="M84.9808 54.2312C84.9808 54.2312 84.2209 52.949 84.9808 52.6251C85.8526 52.2543 100.408 50.5097 101 50.4561C102.181 50.3511 102.61 50.885 102.887 52.2699C103.164 53.6548 103.774 57.0904 102.61 58.0889C101.445 59.0873 99.6146 59.5296 96.0115 59.7508C92.4061 59.9719 90.5107 60.0948 88.7359 59.0963C86.9612 58.0978 84.9831 54.2289 84.9831 54.2289L84.9808 54.2312Z" fill="#263238"/>
<path d="M85.7273 42.8164C85.7653 42.832 85.9687 42.4567 86.3218 41.771C86.675 41.0852 87.1757 40.089 87.8261 38.8783C88.1569 38.2752 88.5168 37.614 88.9348 36.926C89.3527 36.2402 89.811 35.5075 90.3653 34.8106C90.6492 34.4644 90.9375 34.1382 91.2974 33.8434C91.6527 33.5463 92.0394 33.2827 92.4596 33.0415C92.8799 32.8002 93.3291 32.5679 93.7806 32.3266C94.2321 32.0876 94.6926 31.8486 95.1597 31.6185C96.0963 31.1562 97.0284 30.7563 97.9582 30.4615C98.4231 30.314 98.8858 30.1934 99.344 30.0974C99.8022 29.9968 100.245 29.9298 100.667 29.9432C101.085 29.9589 101.479 30.0638 101.78 30.2805C102.08 30.4972 102.29 30.8189 102.431 31.1718C102.576 31.5225 102.663 31.8955 102.746 32.2574C102.824 32.6215 102.905 32.9811 102.985 33.3162C103.305 34.652 103.564 35.7354 103.745 36.4926C103.924 37.2432 104.024 37.6564 104.067 37.6519C104.105 37.6452 104.08 37.2164 103.969 36.4502C103.859 35.684 103.658 34.5827 103.387 33.2291C103.323 32.8896 103.256 32.5366 103.186 32.1681C103.113 31.795 103.034 31.3996 102.88 30.9931C102.73 30.591 102.482 30.1711 102.084 29.8673C101.684 29.568 101.181 29.4317 100.692 29.4071C100.2 29.3826 99.7083 29.454 99.2345 29.5523C98.7562 29.6484 98.2734 29.769 97.7906 29.9187C96.8227 30.218 95.8594 30.629 94.9072 31.0981C94.4311 31.3326 93.9662 31.5739 93.5124 31.8174C93.0609 32.0608 92.6139 32.2931 92.1735 32.55C91.7354 32.8069 91.3152 33.0973 90.942 33.419C90.5642 33.7339 90.2334 34.1159 89.9473 34.4778C89.3773 35.2194 88.9303 35.9721 88.5235 36.6802C88.1167 37.3906 87.7769 38.0674 87.4663 38.6884C86.8583 39.9326 86.4112 40.9601 86.1207 41.6772C85.8301 42.3942 85.696 42.8008 85.7318 42.8164H85.7273Z" fill="#263238"/>
<path d="M98.8612 35.4944C97.7278 35.4944 96.742 36.1221 96.2323 37.0492C95.9954 36.6203 95.8612 36.1288 95.8612 35.6061C95.8612 33.9507 97.2047 32.6081 98.8612 32.6081C100.518 32.6081 101.861 33.9507 101.861 35.6061C101.861 36.1288 101.727 36.6203 101.49 37.0492C100.98 36.1221 99.9945 35.4944 98.8612 35.4944Z" fill="#E0E0E0"/>
<path d="M98.8613 36.7989C98.1477 36.7989 97.5692 36.2208 97.5692 35.5077C97.5692 34.7946 98.1477 34.2165 98.8613 34.2165C99.5748 34.2165 100.153 34.7946 100.153 35.5077C100.153 36.2208 99.5748 36.7989 98.8613 36.7989Z" fill="white"/>
<path d="M97.5689 35.5079C97.5801 35.5079 97.5778 35.3918 97.6315 35.1974C97.6851 35.0053 97.817 34.7261 98.1054 34.5138C98.3848 34.2994 98.8431 34.1787 99.2857 34.344C99.7238 34.4959 100.104 34.9629 100.097 35.5079C100.102 36.053 99.7238 36.5199 99.2857 36.6719C98.8431 36.8372 98.3848 36.7188 98.1054 36.5021C97.817 36.2876 97.6851 36.0084 97.6315 35.8185C97.5778 35.6241 97.5801 35.5079 97.5689 35.5079C97.5644 35.5079 97.5622 35.537 97.5622 35.5906C97.5622 35.6442 97.5667 35.7269 97.589 35.8274C97.6315 36.0285 97.7544 36.3301 98.0562 36.5669C98.3468 36.8037 98.8386 36.9444 99.3215 36.7702C99.5606 36.6875 99.7864 36.5266 99.9496 36.3032C100.117 36.0821 100.211 35.7984 100.213 35.5057C100.211 35.2131 100.117 34.9293 99.9496 34.7082C99.7864 34.4848 99.5584 34.3239 99.3215 34.2413C98.8386 34.067 98.3468 34.2078 98.0562 34.4446C97.7544 34.6814 97.6315 34.983 97.589 35.184C97.5667 35.2868 97.5599 35.3672 97.5622 35.4208C97.5622 35.4744 97.5667 35.5035 97.5689 35.5035V35.5079Z" fill="#263238"/>
<path d="M95.8611 35.6062C95.879 35.6062 95.8611 35.3381 95.9773 34.8802C96.0936 34.4311 96.3931 33.7676 97.0704 33.2561C97.4057 33.0058 97.8282 32.7936 98.3156 32.7087C98.7984 32.6261 99.3438 32.6439 99.8647 32.8405C100.126 32.9321 100.379 33.0684 100.609 33.2426C100.844 33.4124 101.056 33.6224 101.231 33.8682C101.593 34.3507 101.796 34.9673 101.803 35.6062C101.796 36.2429 101.593 36.8639 101.231 37.3442C101.056 37.5878 100.844 37.8 100.609 37.9698C100.377 38.144 100.126 38.2803 99.8647 38.3719C99.3461 38.5707 98.8006 38.5863 98.3156 38.5037C97.8282 38.4188 97.4057 38.2066 97.0704 37.9564C96.3931 37.4448 96.0913 36.7835 95.9773 36.3323C95.8611 35.8743 95.879 35.604 95.8611 35.6062C95.8566 35.6062 95.8566 35.671 95.8611 35.7983C95.8611 35.8609 95.8633 35.9391 95.879 36.0307C95.8901 36.1223 95.9013 36.2273 95.9348 36.3434C96.0399 36.8036 96.3327 37.4872 97.0235 38.0211C97.3655 38.2825 97.7992 38.5059 98.2999 38.5975C98.7984 38.6869 99.364 38.6735 99.9027 38.4724C100.173 38.3786 100.437 38.2378 100.676 38.0591C100.92 37.8826 101.141 37.6659 101.324 37.4113C101.702 36.9131 101.915 36.2675 101.921 35.6062C101.915 34.9427 101.702 34.2993 101.324 33.8011C101.141 33.5487 100.92 33.3298 100.676 33.1533C100.435 32.9746 100.173 32.8338 99.9027 32.74C99.364 32.5389 98.7984 32.5255 98.2999 32.6149C97.7969 32.7065 97.3633 32.9299 97.0235 33.1913C96.3327 33.7252 96.0399 34.4088 95.9348 34.869C95.9013 34.9852 95.8901 35.0902 95.879 35.1817C95.8633 35.2733 95.8611 35.3515 95.8611 35.4141C95.8588 35.5392 95.8611 35.6062 95.8611 35.6062Z" fill="#263238"/>
<path d="M97.73 33.4794C97.7747 33.5531 98.0385 33.457 98.4542 33.4168C98.8656 33.3722 99.4512 33.4079 99.9855 33.6916C100.52 33.9776 100.875 34.4422 101.067 34.8086C101.266 35.1772 101.333 35.4498 101.418 35.4431C101.49 35.4431 101.577 35.1392 101.45 34.6589C101.331 34.1898 100.951 33.5486 100.256 33.1778C99.5608 32.8092 98.8164 32.8516 98.3604 33.0147C97.8909 33.1778 97.6875 33.4191 97.7277 33.4794H97.73Z" fill="white"/>
<path d="M96.9793 33.9551C97.1112 34.0467 97.2409 34.0914 97.2722 34.0601C97.3035 34.0288 97.2632 33.8992 97.1761 33.763C97.0889 33.6289 96.9436 33.5664 96.8653 33.6423C96.7871 33.7183 96.8452 33.8635 96.9771 33.9551H96.9793Z" fill="white"/>
<path d="M79.954 46.929C79.9943 47.0853 84.0042 46.2052 88.9127 44.9677C93.8211 43.728 97.7684 42.5977 97.7304 42.4413C97.6902 42.285 93.6803 43.1629 88.7718 44.4026C83.8634 45.6423 79.916 46.7726 79.9563 46.929H79.954Z" fill="#263238"/>
<path d="M103.6 30.5241C103.6 30.5241 103.6 30.4995 103.598 30.4548C103.593 30.4102 103.582 30.3409 103.564 30.2538C103.524 30.0796 103.452 29.8227 103.289 29.5211C103.126 29.224 102.853 28.8845 102.435 28.6321C102.333 28.5673 102.214 28.5204 102.098 28.4623C101.973 28.4243 101.85 28.3707 101.713 28.3439C101.577 28.3194 101.441 28.2792 101.293 28.2747C101.148 28.2635 100.996 28.268 100.844 28.2792C100.234 28.3283 99.5833 28.4757 98.8949 28.6589C98.2064 28.8421 97.48 29.0721 96.72 29.3335C95.2068 29.8607 93.5617 30.4906 91.8809 31.2702C91.6708 31.3707 91.4651 31.4712 91.2617 31.5807C91.0561 31.6879 90.8683 31.8286 90.6918 31.9671C90.3364 32.2508 90.0167 32.5657 89.7418 32.9097C89.2232 33.6201 88.765 34.317 88.318 34.9827C87.4306 36.314 86.6662 37.5381 86.0471 38.579C85.4301 39.62 84.9563 40.4777 84.6367 41.0764C84.4757 41.3735 84.355 41.608 84.2746 41.7666C84.2366 41.8425 84.2075 41.9006 84.1829 41.9475C84.1628 41.9877 84.1539 42.0101 84.1561 42.0101C84.1561 42.0101 84.1717 41.9922 84.1941 41.952C84.2209 41.9073 84.2544 41.8493 84.2947 41.7755C84.3863 41.6125 84.5137 41.3846 84.6769 41.0965C85.0077 40.5068 85.4927 39.6557 86.1186 38.6215C86.7444 37.5872 87.5156 36.3698 88.4074 35.0408C88.8544 34.3818 89.3216 33.6737 89.8312 32.979C90.1017 32.6439 90.4168 32.3334 90.7655 32.0564C90.9421 31.9202 91.1209 31.7862 91.3199 31.6812C91.5188 31.574 91.7244 31.4734 91.9323 31.3751C93.6042 30.6 95.2493 29.9656 96.7558 29.434C97.5113 29.1727 98.2355 28.9403 98.9195 28.7527C99.6034 28.5673 100.252 28.4154 100.851 28.3618C101 28.3484 101.146 28.3439 101.287 28.3529C101.427 28.3551 101.564 28.3931 101.696 28.4154C101.827 28.44 101.948 28.4914 102.071 28.5271C102.185 28.5829 102.301 28.6254 102.402 28.6879C102.813 28.9292 103.084 29.2553 103.249 29.5435C103.414 29.8361 103.495 30.0885 103.542 30.2583C103.564 30.3432 103.578 30.4102 103.587 30.4548C103.595 30.4995 103.6 30.5219 103.602 30.5219L103.6 30.5241Z" fill="#263238"/>
<path d="M102.862 13.5946C102.862 13.5946 102.904 13.6862 103 13.8403C103.097 13.9945 103.233 14.2179 103.398 14.4971C103.727 15.0534 104.152 15.842 104.545 16.7468C104.936 17.6538 105.22 18.5027 105.399 19.1237C105.491 19.4342 105.56 19.6867 105.605 19.8632C105.652 20.0374 105.681 20.1335 105.69 20.1335C105.699 20.1335 105.683 20.033 105.649 19.8542C105.618 19.6755 105.56 19.4186 105.477 19.1036C105.316 18.4736 105.044 17.6158 104.65 16.7021C104.255 15.7906 103.816 15.0042 103.468 14.4547C103.293 14.1799 103.146 13.9632 103.038 13.8158C102.931 13.6683 102.869 13.5901 102.862 13.5946Z" fill="#263238"/>
<g opacity="0.3">
<path d="M104.53 31.7884C104.751 31.8621 105.965 32.6172 106.479 32.9053C106.993 33.1935 107.442 33.6469 107.592 34.2165C107.74 34.7839 107.576 35.3825 107.415 35.9455C106.886 37.7883 106.271 41.101 105.741 42.9416C105.328 39.5999 104.876 33.9083 104.53 31.7862" fill="white"/>
</g>
<path d="M87.8845 58.2989C87.8889 58.3301 91.3445 57.8789 95.6048 57.2892C99.865 56.6995 103.314 56.1969 103.309 56.1656C103.305 56.1344 99.8494 56.5856 95.5891 57.1753C91.3311 57.765 87.88 58.2676 87.8845 58.2989Z" fill="#455A64"/>
<path d="M88.984 59.1433C88.984 59.1433 89.0354 59.1433 89.1293 59.1343C89.2366 59.1231 89.3729 59.1075 89.5428 59.0896C89.9161 59.045 90.4324 58.9824 91.065 58.9065C92.3636 58.7523 94.1316 58.5401 96.0852 58.3078C98.0477 58.0755 99.8202 57.8521 101.103 57.6757C101.745 57.5863 102.263 57.5126 102.621 57.4545C102.791 57.4277 102.927 57.4054 103.032 57.3875C103.126 57.3719 103.175 57.3607 103.175 57.3562C103.175 57.3518 103.124 57.3562 103.03 57.3652C102.923 57.3764 102.786 57.392 102.616 57.4099C102.243 57.4545 101.727 57.5171 101.094 57.593C99.7956 57.7472 98.0275 57.9594 96.074 58.1917C94.1137 58.424 92.339 58.6474 91.056 58.8238C90.4145 58.9132 89.896 58.9869 89.5383 59.045C89.3685 59.0718 89.2321 59.0941 89.1271 59.112C89.0332 59.1276 88.984 59.1388 88.984 59.1433Z" fill="#455A64"/>
<path d="M91.4024 59.7753C91.3912 59.8044 91.9679 59.7574 92.8799 59.6659C93.794 59.5743 95.0569 59.4336 96.4472 59.2705C97.8397 59.1074 99.1004 58.9511 100.01 58.8327C100.45 58.7724 100.815 58.7232 101.087 58.6852C101.342 58.6473 101.481 58.6227 101.481 58.616C101.481 58.6071 101.338 58.616 101.083 58.6406C100.808 58.6674 100.444 58.7053 100.001 58.75C99.0713 58.855 97.8174 58.998 96.4338 59.1543C95.0502 59.3196 93.8008 59.4715 92.8687 59.5832C92.4261 59.6391 92.064 59.686 91.7891 59.7195C91.5365 59.753 91.389 59.7731 91.4002 59.7731L91.4024 59.7753Z" fill="#455A64"/>
<path d="M87.0776 57.3385C87.082 57.3698 90.7187 56.9186 95.2002 56.3288C99.684 55.7391 103.312 55.2365 103.309 55.2053C103.305 55.174 99.6683 55.6252 95.1868 56.2149C90.7053 56.8046 87.0753 57.3072 87.0798 57.3385H87.0776Z" fill="#455A64"/>
<path d="M86.4471 56.4448C86.4516 56.476 90.2156 56.0069 94.8559 55.3994C99.4961 54.7895 103.256 54.2691 103.251 54.2378C103.247 54.2065 99.4827 54.6734 94.8402 55.2854C90.2 55.8953 86.4427 56.4157 86.4471 56.447V56.4448Z" fill="#455A64"/>
<path d="M85.7385 55.3905C85.743 55.4218 89.6143 54.9393 94.3842 54.3139C99.1563 53.6862 103.019 53.1523 103.016 53.121C103.012 53.0898 99.1407 53.5723 94.3708 54.1977C89.6009 54.8254 85.7363 55.3593 85.7408 55.3905H85.7385Z" fill="#455A64"/>
<path d="M85.1955 54.314C85.2 54.3452 89.1406 53.8538 93.9954 53.2172C98.8524 52.5783 102.784 52.0355 102.78 52.0043C102.775 51.973 98.8368 52.4644 93.9797 53.1033C89.1249 53.7421 85.191 54.2849 85.1955 54.3162V54.314Z" fill="#455A64"/>
<path d="M84.6455 53.2371C84.65 53.2684 88.6219 52.7725 93.5147 52.1292C98.4097 51.4858 102.375 50.9386 102.37 50.9073C102.366 50.876 98.3963 51.3719 93.499 52.0152C88.604 52.6586 84.6388 53.2058 84.6433 53.2371H84.6455Z" fill="#455A64"/>
<path d="M97.4665 50.7799C97.4352 50.7866 97.8196 52.7211 98.327 55.1C98.8344 57.479 99.2703 59.4022 99.3016 59.3955C99.3329 59.3888 98.9484 57.4544 98.441 55.0754C97.9336 52.6965 97.4978 50.7732 97.4665 50.7799Z" fill="#455A64"/>
<path d="M98.9283 50.5365C98.897 50.5432 99.2814 52.4776 99.7888 54.8565C100.296 57.2355 100.732 59.1588 100.763 59.1521C100.795 59.1454 100.41 57.2109 99.9028 54.832C99.3954 52.453 98.9596 50.5298 98.9283 50.5365Z" fill="#455A64"/>
<path d="M100.392 50.293C100.361 50.2997 100.723 52.1292 101.204 54.3808C101.684 56.6324 102.098 58.4507 102.129 58.444C102.16 58.4373 101.798 56.6079 101.318 54.3562C100.837 52.1068 100.424 50.2863 100.392 50.293Z" fill="#455A64"/>
<path d="M101.977 50.6258C101.977 50.6258 101.979 50.7152 102.006 50.8715C102.04 51.0525 102.078 51.2737 102.124 51.535C102.23 52.1226 102.366 52.8821 102.518 53.7221C102.668 54.5777 102.822 55.3507 102.945 55.9069C103.007 56.184 103.059 56.4096 103.099 56.5637C103.139 56.7179 103.164 56.8028 103.173 56.8005C103.182 56.7983 103.171 56.7112 103.144 56.5548C103.11 56.3738 103.072 56.1527 103.025 55.8913C102.92 55.3038 102.784 54.5442 102.632 53.7042C102.482 52.8486 102.33 52.0757 102.205 51.5216C102.142 51.2446 102.091 51.019 102.051 50.8648C102.01 50.7107 101.986 50.6258 101.977 50.628V50.6258Z" fill="#455A64"/>
<path d="M95.7745 51.0836C95.7432 51.0903 96.1142 52.9577 96.6037 55.254C97.0932 57.5503 97.5157 59.4066 97.547 59.3999C97.5783 59.3932 97.2072 57.5257 96.7177 55.2294C96.2282 52.9331 95.8058 51.0769 95.7745 51.0836Z" fill="#455A64"/>
<path d="M94.0914 51.4232C94.0601 51.4299 94.4312 53.3017 94.9229 55.6025C95.4124 57.9055 95.8371 59.7662 95.8684 59.7595C95.8997 59.7528 95.5286 57.881 95.0369 55.5779C94.5474 53.2772 94.1227 51.4142 94.0914 51.4209V51.4232Z" fill="#455A64"/>
<path d="M92.3567 51.5148C92.3254 51.5215 92.6942 53.3777 93.1793 55.6584C93.6666 57.9413 94.0845 59.7842 94.1158 59.7775C94.1471 59.7708 93.7783 57.9167 93.2933 55.6338C92.8082 53.3532 92.388 51.5081 92.3567 51.5148Z" fill="#455A64"/>
<path d="M90.6491 51.7382C90.6178 51.7449 90.9844 53.59 91.4672 55.8595C91.95 58.129 92.368 59.9629 92.3993 59.9562C92.4306 59.9495 92.064 58.1045 91.5812 55.835C91.0984 53.5655 90.6804 51.7315 90.6491 51.7382Z" fill="#455A64"/>
<path d="M88.9659 52.071C88.9347 52.0777 89.2766 53.8044 89.7281 55.9265C90.1797 58.0485 90.573 59.7641 90.6043 59.7574C90.6356 59.7507 90.2936 58.024 89.8421 55.9019C89.3906 53.7798 88.9972 52.0643 88.9659 52.071Z" fill="#455A64"/>
<path d="M87.2404 52.2142C87.2091 52.2209 87.5266 53.8338 87.949 55.8176C88.3715 57.8014 88.7404 59.4054 88.7717 59.3987C88.803 59.392 88.4855 57.779 88.0631 55.793C87.6406 53.8092 87.2717 52.2052 87.2404 52.2119V52.2142Z" fill="#455A64"/>
<path d="M85.5438 52.4908C85.5125 52.4976 85.6891 53.4515 85.9395 54.6243C86.1899 55.7949 86.4179 56.7399 86.4492 56.7332C86.4805 56.7265 86.3039 55.7726 86.0535 54.5997C85.8031 53.4291 85.5751 52.4841 85.5438 52.4908Z" fill="#455A64"/>
<path d="M29.8298 58.8929C29.8298 58.9242 40.9364 58.951 54.6358 58.951C68.3352 58.951 79.4441 58.9242 79.4441 58.8929C79.4441 58.8616 68.3397 58.8348 54.6358 58.8348C40.9319 58.8348 29.8298 58.8616 29.8298 58.8929Z" fill="#263238"/>
<path d="M30.8044 57.7716C30.8044 57.8029 41.4349 57.8297 54.542 57.8297C67.6491 57.8297 78.2819 57.8029 78.2819 57.7716C78.2819 57.7404 67.6536 57.7136 54.542 57.7136C41.4304 57.7136 30.8044 57.7404 30.8044 57.7716Z" fill="#263238"/>
<path d="M32.2797 56.6235C32.2797 56.6548 42.3336 56.6816 54.7321 56.6816C67.1307 56.6816 77.1868 56.6548 77.1868 56.6235C77.1868 56.5923 67.1352 56.5655 54.7321 56.5655C42.3291 56.5655 32.2797 56.5923 32.2797 56.6235Z" fill="#263238"/>
<path d="M33.2654 55.4754C33.2654 55.5067 42.8409 55.5335 54.6516 55.5335C66.4623 55.5335 76.04 55.5067 76.04 55.4754C76.04 55.4441 66.4668 55.4173 54.6516 55.4173C42.8364 55.4173 33.2654 55.4441 33.2654 55.4754Z" fill="#263238"/>
<path d="M34.906 54.3807C34.906 54.412 43.7841 54.4388 54.7343 54.4388C65.6844 54.4388 74.5648 54.412 74.5648 54.3807C74.5648 54.3494 65.6889 54.3226 54.7343 54.3226C43.7797 54.3226 34.906 54.3494 34.906 54.3807Z" fill="#263238"/>
<path d="M36.7657 53.2885C36.7657 53.3198 44.7877 53.3466 54.6784 53.3466C64.5691 53.3466 72.5934 53.3198 72.5934 53.2885C72.5934 53.2573 64.5736 53.2305 54.6784 53.2305C44.7833 53.2305 36.7657 53.2573 36.7657 53.2885Z" fill="#263238"/>
<g opacity="0.3">
<path d="M50.9478 18.473L92.4954 18.4083C92.4954 18.4083 90.7743 20.4633 87.6093 20.4455C84.7214 20.4298 56.6185 20.4432 51.6854 20.4455C51.6854 20.4455 51.5647 20.4455 51.3412 20.4455C51.0841 20.4455 50.9478 20.4455 50.9478 20.4455C46.3947 20.4432 22.2101 20.4298 19.7111 20.4455C16.9507 20.4633 15.5962 18.473 15.5962 18.473H50.9478Z" fill="black"/>
</g>
<path d="M15.4486 17.5885L23.3097 3.96931C23.4327 3.7571 23.6562 3.62084 23.9021 3.60967L50.9478 2.45035L53.5428 2.33867C53.8535 2.32526 54.1642 2.32526 54.4749 2.33867L57.0699 2.45035L84.1156 3.60967C84.3615 3.62084 84.585 3.75487 84.708 3.96931L92.5691 17.5885C92.8217 18.0264 92.5557 18.5826 92.0528 18.6585C91.941 18.6742 91.8225 18.692 91.6951 18.7054C91.0089 18.7814 63.5721 18.7322 54.01 18.7121C44.4456 18.7322 17.0088 18.7814 16.3248 18.7054C16.1996 18.692 16.0789 18.6764 15.9672 18.6585C15.4665 18.5826 15.1983 18.0286 15.4508 17.5885H15.4486ZM19.0674 17.0167L54.0077 17.2535L88.9481 17.0167C89.5002 17.0122 89.8422 16.4158 89.565 15.94C88.0585 13.3355 84.2743 6.81735 83.6686 6.06458C82.5689 4.69975 65.5592 4.51881 56.5111 4.52105C56.4575 4.53445 56.4016 4.54115 56.3435 4.54115C55.8138 4.53669 55.0136 4.53222 54.0077 4.52775C53.0019 4.53222 52.2017 4.53669 51.672 4.54115C51.6139 4.54115 51.558 4.53445 51.5043 4.52105C42.4563 4.52105 25.4443 4.69975 24.3469 6.06458C23.7411 6.81735 19.957 13.3355 18.4505 15.94C18.1755 16.4158 18.5175 17.0122 19.0674 17.0167Z" fill="#263238"/>
<path d="M45.1363 16.2615C45.1363 15.4841 44.8368 13.2883 44.1171 12.7031C43.5605 12.2519 42.244 12.1156 41.5936 12.0776C41.5734 12.0776 41.5533 12.0776 41.531 12.0776C41.1868 12.0821 38.8845 12.1424 38.1961 12.7031C37.4763 13.2883 37.1746 15.4841 37.1768 16.2615V16.2838C37.1768 16.7663 37.568 17.1572 38.053 17.1572H44.2624C44.7452 17.1572 45.1385 16.7663 45.1385 16.2838V16.2615H45.1363Z" fill="#263238"/>
<g opacity="0.3">
<path d="M45.1363 16.2615C45.1363 15.4841 44.8368 13.2883 44.1171 12.7031C43.5605 12.2519 42.244 12.1156 41.5936 12.0776C41.5734 12.0776 41.5533 12.0776 41.531 12.0776C41.1868 12.0821 38.8845 12.1424 38.1961 12.7031C37.4763 13.2883 37.1746 15.4841 37.1768 16.2615V16.2838C37.1768 16.7663 37.568 17.1572 38.053 17.1572H44.2624C44.7452 17.1572 45.1385 16.7663 45.1385 16.2838V16.2615H45.1363Z" fill="black"/>
</g>
<path d="M42.0005 15.6899C42.0005 14.4189 41.511 10.8248 40.3308 9.86649C39.4189 9.12712 37.2641 8.90598 36.2002 8.84343C36.1667 8.84343 36.1331 8.8412 36.0996 8.84343C35.5363 8.85013 31.7678 8.95065 30.6391 9.86873C29.4589 10.827 28.9694 14.4234 28.9694 15.6921V15.7301C28.9694 16.5209 29.6109 17.162 30.4021 17.162H40.5677C41.359 17.162 42.0005 16.5209 42.0005 15.7301V15.6921V15.6899Z" fill="#263238"/>
<g opacity="0.3">
<path d="M29.5482 52.8552C29.5482 52.8552 29.7159 53.8715 27.3354 57.2333C26.609 58.2609 24.3 60.3315 23.4372 61.0933C23.2271 61.2787 22.9544 61.3747 22.6728 61.3636C20.2767 61.2586 8.72305 60.7247 6.80526 60.1618C5.93801 59.9071 5.28533 59.61 4.79806 59.3241C3.95316 58.826 3.45919 57.899 3.49496 56.9206C3.55531 55.2609 3.65812 52.3414 3.65812 51.5774C3.65812 50.4918 4.41361 49.5782 5.82177 49.7502C6.74937 49.8619 29.5482 52.8574 29.5482 52.8574V52.8552ZM22.0984 52.6228L7.12489 51.2647L6.69126 57.2981L17.7129 59.0829L22.0961 52.6251L22.0984 52.6228Z" fill="black"/>
</g>
<g opacity="0.3">
<path d="M4.00227 37.3663C4.00227 37.3663 2.8735 40.7929 10.0484 42.3878C17.3128 44.0028 28.0618 46.929 28.0618 46.929L22.2883 42.8167C22.2883 42.8167 5.68089 40.049 5.26739 37.5092C4.79353 34.6054 5.26739 31.3418 5.26739 31.3418L4.00227 37.3663Z" fill="black"/>
</g>
<path d="M32.0292 52.7524C32.0292 52.7524 32.0046 52.7413 31.9532 52.7256C31.8973 52.71 31.8235 52.6876 31.7297 52.6608C31.524 52.605 31.2335 52.5224 30.8647 52.4196C30.1092 52.2208 29.0162 51.9371 27.6549 51.6244C24.9347 50.9922 21.1506 50.235 16.9484 49.5515C14.8451 49.2119 12.8402 48.8992 11.0073 48.6669C10.0931 48.5463 9.22363 48.4301 8.41002 48.3206C7.59865 48.2112 6.83645 48.104 6.13237 48.1285C5.43276 48.1487 4.78455 48.3207 4.33528 48.6602C3.8793 48.9863 3.56862 49.366 3.36522 49.7011C3.15958 50.0362 3.06123 50.3288 3.01653 50.5298C2.96959 50.7309 2.96958 50.8403 2.96958 50.8403C2.99193 50.8493 2.98746 50.3869 3.40321 49.7257C3.60884 49.3996 3.92178 49.0288 4.37328 48.7138C4.81808 48.3854 5.44616 48.2246 6.13683 48.2112C6.82974 48.1933 7.5897 48.3028 8.40107 48.4167C9.21468 48.5284 10.0819 48.6468 10.9961 48.7719C12.8245 49.0087 14.8295 49.3236 16.9328 49.6654C21.1349 50.3489 24.9191 51.0927 27.6415 51.7048C29.0027 52.0064 30.1002 52.2789 30.858 52.462C31.2312 52.5559 31.524 52.6296 31.7297 52.681C31.8258 52.7033 31.8995 52.7212 31.9577 52.7346C32.0091 52.7457 32.0359 52.7502 32.0359 52.7502L32.0292 52.7524Z" fill="#263238"/>
<path d="M3.09053 43.8933C3.09053 43.8933 3.09947 43.8486 3.10171 43.766C3.10394 43.6699 3.10841 43.5493 3.11288 43.3996C3.12182 43.0668 3.13299 42.6111 3.14864 42.0549C3.18216 40.9201 3.25817 39.3543 3.41016 37.6276C3.56439 35.9009 3.76778 34.3462 3.93319 33.2226C4.01589 32.6731 4.08519 32.2241 4.1366 31.8935C4.15895 31.7461 4.17683 31.6277 4.19024 31.5317C4.20141 31.449 4.20588 31.4043 4.20141 31.4043C4.19694 31.4043 4.18576 31.4468 4.16788 31.5272C4.14776 31.621 4.12318 31.7394 4.09189 31.8846C4.0293 32.1951 3.9466 32.6485 3.85272 33.2092C3.66497 34.3306 3.45039 35.8875 3.29617 37.6164C3.14417 39.3453 3.08158 40.9157 3.06817 42.0527C3.06147 42.62 3.0637 43.0802 3.06817 43.3996C3.07264 43.547 3.07711 43.6699 3.07935 43.766C3.08382 43.8486 3.08606 43.8933 3.09053 43.8933Z" fill="#263238"/>
<path d="M8.08126 28.4586C8.10361 28.4586 8.10809 28.0699 8.22433 27.4511C8.33833 26.8345 8.55963 25.9946 8.848 25.0786C9.13637 24.1627 9.43368 23.345 9.64828 22.7553C9.75111 22.4783 9.83606 22.2437 9.90536 22.056C9.96571 21.8907 9.99477 21.7969 9.98807 21.7947C9.98136 21.7924 9.93665 21.8796 9.86288 22.0382C9.79135 22.199 9.68853 22.4336 9.57228 22.7262C9.33533 23.3115 9.02684 24.1269 8.73847 25.0451C8.44786 25.9633 8.23774 26.8122 8.14385 27.4377C8.11479 27.5919 8.10808 27.7371 8.09243 27.8622C8.07678 27.9873 8.07232 28.0945 8.07232 28.1839C8.07232 28.3603 8.07232 28.4586 8.08126 28.4586Z" fill="#263238"/>
<path d="M9.43613 30.0215C9.43613 30.0215 5.69667 28.6589 5.21834 31.5561C4.74001 34.4533 4.78919 37.3371 5.41728 38.349C6.04536 39.3631 11.8188 40.7436 11.8188 40.7436L21.8034 42.9371C21.8034 42.9371 22.5209 43.0868 22.0895 42.2737C21.6045 41.3645 18.9602 35.5344 17.4314 34.1182C14.6106 31.5025 9.43613 30.0193 9.43613 30.0193V30.0215Z" fill="#F5F5F5"/>
<g opacity="0.3">
<path d="M13.1199 41.0317C13.1199 41.0317 13.1355 34.2031 12.6349 33.4458C12.1342 32.6886 6.24893 29.9656 6.24893 29.9656C6.24893 29.9656 6.82114 29.4787 7.99684 29.702C9.17255 29.9254 11.1283 30.457 12.7511 31.2902C14.3761 32.1234 16.9756 33.3163 17.9456 34.6967C18.3681 35.2954 19.251 36.7294 20.0937 38.2841C21.1889 40.3057 22.226 42.468 22.226 42.5864C22.226 42.8343 22.2841 43.0599 21.3141 42.8544C19.0655 42.3741 13.1199 41.0361 13.1199 41.0361V41.0317Z" fill="black"/>
</g>
<path d="M16.3739 40.4159C15.0357 40.4159 13.9508 39.3317 13.9508 37.9942C13.9508 36.6568 15.0357 35.5726 16.3739 35.5726C17.7122 35.5726 18.7971 36.6568 18.7971 37.9942C18.7971 39.3317 17.7122 40.4159 16.3739 40.4159Z" fill="#F5F5F5"/>
<path d="M18.7949 37.9941C18.7949 37.9941 18.8239 37.7774 18.7412 37.3976C18.6585 37.0245 18.4215 36.4705 17.8627 36.0371C17.5855 35.8249 17.2345 35.6439 16.8277 35.5679C16.4231 35.4965 15.9648 35.5054 15.5289 35.6685C15.3099 35.7444 15.0953 35.8584 14.9008 36.0036C14.7041 36.1465 14.523 36.323 14.3754 36.5286C14.0692 36.9329 13.8971 37.4557 13.8926 37.9918C13.8971 38.5302 14.0714 39.0507 14.3754 39.4573C14.523 39.6628 14.7041 39.8393 14.9008 39.9823C15.0953 40.1275 15.3076 40.2414 15.5289 40.3174C15.9671 40.4805 16.4231 40.4916 16.8277 40.4179C17.2345 40.342 17.5855 40.161 17.8627 39.9488C18.4215 39.5154 18.6585 38.9614 18.7412 38.5883C18.8239 38.2085 18.7949 37.9918 18.7949 37.9918C18.7792 37.9918 18.7949 38.2085 18.6965 38.5771C18.6026 38.939 18.3589 39.473 17.8135 39.884C17.543 40.0851 17.2032 40.2548 16.8121 40.3241C16.4231 40.3889 15.9849 40.3755 15.5669 40.2169C15.3568 40.1431 15.1534 40.0337 14.9678 39.8929C14.7801 39.7567 14.6079 39.5869 14.4693 39.3903C14.1787 39.0038 14.0156 38.5056 14.0111 37.9941C14.0156 37.4825 14.1787 36.9843 14.4693 36.5978C14.6102 36.4012 14.7801 36.2314 14.9678 36.0952C15.1534 35.9567 15.3568 35.845 15.5669 35.7712C15.9849 35.6126 16.4231 35.5992 16.8121 35.664C17.2032 35.731 17.543 35.903 17.8135 36.1041C18.3589 36.5151 18.6026 37.0468 18.6965 37.411C18.7926 37.7796 18.7792 37.9985 18.7949 37.9963V37.9941Z" fill="#263238"/>
<path d="M16.3739 37.8892C17.2636 37.8892 18.037 38.3829 18.4372 39.109C18.6227 38.7716 18.7278 38.3874 18.7278 37.9763C18.7278 36.6761 17.6727 35.6217 16.3717 35.6217C15.0707 35.6217 14.0155 36.6761 14.0155 37.9763C14.0155 38.3874 14.1206 38.7739 14.3061 39.109C14.7063 38.3807 15.4797 37.8892 16.3694 37.8892H16.3739Z" fill="#E0E0E0"/>
<path d="M17.418 37.9138C17.418 38.4902 16.9508 38.9571 16.374 38.9571C15.7973 38.9571 15.3301 38.4902 15.3301 37.9138C15.3301 37.3375 15.7973 36.8706 16.374 36.8706C16.9508 36.8706 17.418 37.3375 17.418 37.9138Z" fill="white"/>
<path d="M17.418 37.9136C17.418 37.9136 17.4247 37.8913 17.4269 37.8466C17.4291 37.8019 17.4269 37.7371 17.4068 37.6545C17.3755 37.4914 17.2749 37.2456 17.029 37.0535C16.7943 36.8592 16.3919 36.743 15.9985 36.886C15.6073 37.0155 15.2653 37.4288 15.2697 37.9158C15.2653 38.4029 15.6073 38.8184 15.9985 38.9457C16.3919 39.0865 16.7943 38.9703 17.029 38.7782C17.2727 38.5838 17.3733 38.3403 17.4046 38.1772C17.4224 38.0946 17.4269 38.0275 17.4247 37.9851C17.4247 37.9404 17.4202 37.9181 17.4157 37.9181C17.4046 37.9181 17.4068 38.0119 17.3621 38.1683C17.3174 38.3224 17.2123 38.5458 16.9798 38.7156C16.7563 38.8876 16.3897 38.9815 16.0365 38.8497C15.6855 38.7268 15.3837 38.3559 15.3882 37.9203C15.3837 37.4847 15.6855 37.1138 16.0365 36.991C16.3897 36.8592 16.7563 36.953 16.9798 37.1228C17.2123 37.2926 17.3174 37.516 17.3621 37.6701C17.4068 37.8265 17.4046 37.9203 17.4157 37.9203L17.418 37.9136Z" fill="#263238"/>
<path d="M17.2884 36.276C17.3286 36.2134 17.1699 36.0057 16.7854 35.8627C16.4121 35.7197 15.7973 35.6773 15.2184 35.9833C14.6416 36.2916 14.3331 36.8255 14.2437 37.2143C14.1498 37.6119 14.2326 37.8621 14.3063 37.8621C14.3913 37.8666 14.4606 37.6499 14.6282 37.3639C14.7914 37.078 15.0753 36.7205 15.4933 36.4971C15.9113 36.276 16.3674 36.2402 16.696 36.2648C17.0268 36.2849 17.2459 36.3497 17.2884 36.276Z" fill="white"/>
<path d="M17.894 36.6603C18.0259 36.5687 18.0907 36.4324 18.0237 36.3676C17.9566 36.3028 17.8225 36.3698 17.7353 36.5061C17.6481 36.6402 17.5967 36.763 17.6191 36.7854C17.6414 36.8055 17.7621 36.7519 17.8962 36.6603H17.894Z" fill="white"/>
<path d="M54.5062 30.3791C54.5062 30.3791 54.4749 30.3746 54.4101 30.3724C54.3408 30.3724 54.2492 30.3679 54.1285 30.3657C53.8759 30.3635 53.5138 30.359 53.0489 30.3545C52.1056 30.3501 50.7489 30.3411 49.077 30.3322C45.7175 30.3233 41.0884 30.3121 35.9743 30.3009C33.415 30.3009 30.9787 30.2987 28.7592 30.2965C27.6505 30.2965 26.5977 30.2965 25.612 30.2965C25.1203 30.2965 24.6442 30.2965 24.186 30.2965C23.7255 30.2674 23.2606 30.4037 22.9253 30.6717C22.2883 31.2145 21.7094 31.7082 21.202 32.1415C20.9494 32.3582 20.7147 32.557 20.4979 32.7424C20.2766 32.9167 20.0375 33.0239 19.814 33.082C19.5882 33.14 19.3826 33.149 19.2015 33.1378C19.0227 33.1333 18.8707 33.1289 18.7456 33.1244C18.6271 33.1222 18.5332 33.1199 18.4639 33.1199C18.4013 33.1199 18.3678 33.1199 18.3678 33.1199C18.3678 33.1199 18.3991 33.1244 18.4639 33.1289C18.5332 33.1333 18.6249 33.1378 18.7433 33.1467C18.8685 33.1534 19.0205 33.1601 19.1993 33.1713C19.3781 33.1869 19.5927 33.1825 19.8229 33.1244C20.0531 33.0685 20.3012 32.9613 20.5315 32.7849C20.7505 32.6017 20.9897 32.4029 21.2445 32.1884C21.7541 31.7596 22.3353 31.2726 22.9745 30.7343C23.2986 30.4796 23.73 30.3545 24.1837 30.3836C24.642 30.3836 25.1181 30.3858 25.6098 30.388C26.5955 30.3903 27.6483 30.3947 28.7569 30.397C30.9742 30.4014 33.4128 30.4059 35.9721 30.4104C41.0862 30.4104 45.7153 30.4104 49.0747 30.4104C50.7467 30.4037 52.1034 30.3992 53.0467 30.397C53.5116 30.3925 53.8737 30.3903 54.1262 30.388C54.2447 30.3858 54.3386 30.3836 54.4079 30.3836C54.4705 30.3836 54.504 30.3791 54.504 30.3769L54.5062 30.3791Z" fill="#263238"/>
<path d="M101.358 62.219C101.237 61.9666 100.982 61.7857 100.479 61.8415C99.0824 62.0001 84.4375 62.3262 82.4214 61.8415C80.403 61.3568 73.6796 53.7307 70.8342 53.2125C68.447 52.7769 56.8397 52.5446 53.1606 52.6496C49.4793 52.5424 37.872 52.7769 35.487 53.2125C32.6416 53.733 26.0188 62.1029 24.0004 62.5876C21.982 63.0723 7.23656 62.0001 5.83957 61.8415C5.33442 61.7834 5.07961 61.9644 4.96114 62.219C4.71304 62.7439 5.11537 63.3493 5.69875 63.3672C8.81683 63.4543 20.8622 63.5928 23.1153 63.5526C25.4801 63.5101 49.6603 63.0678 53.7127 62.9941C59.8214 63.0321 80.6936 63.1661 82.9042 63.1974C85.5104 63.2331 97.5088 63.4543 100.629 63.3672C101.21 63.3515 101.615 62.7462 101.367 62.219H101.358Z" fill="#263238"/>
<path d="M49.0503 3.33925C49.171 3.33925 49.0726 5.43899 50.7691 5.39878C52.4656 5.35857 55.6619 5.39878 55.6619 5.39878L57.0679 2.77411L49.0503 3.33925Z" fill="#263238"/>
<path d="M49.8036 6.12933C49.5667 6.12933 49.3454 6.24102 49.2068 6.43313C48.8023 6.98486 47.9931 8.12631 47.9708 8.48372C47.9417 8.95951 48.2099 9.34818 48.7017 9.40849C49.1688 9.46434 58.1185 9.41519 59.0461 9.40849C59.1042 9.40849 59.1601 9.40179 59.216 9.38616C59.4596 9.32585 60.0944 9.12481 60.0475 8.69146C60.0028 8.29608 59.3143 7.09655 58.9522 6.48897C58.8181 6.26559 58.5789 6.12933 58.3174 6.12933H49.8036Z" fill="#263238"/>
<path d="M22.4291 2.77403C22.4291 2.77403 22.4157 2.78966 22.3955 2.82094C22.3732 2.85891 22.3441 2.90582 22.3106 2.9639C22.2324 3.09792 22.1251 3.28333 21.991 3.51787C21.7116 4.01153 21.3159 4.7107 20.8309 5.56846C19.8564 7.31303 18.5197 9.70986 17.04 12.3591C15.8442 14.5214 14.7423 16.5139 13.8639 18.1043L13.875 18.0909C12.82 18.9219 11.9505 19.6076 11.3381 20.0901C11.043 20.3269 10.8106 20.5123 10.643 20.6463C10.5692 20.7067 10.5088 20.7558 10.4641 20.7938C10.4239 20.8273 10.4038 20.8474 10.406 20.8474C10.406 20.8474 10.4306 20.834 10.4731 20.8049L10.6608 20.6665C10.8307 20.5369 11.0699 20.3582 11.3716 20.1303C11.9908 19.6546 12.867 18.9822 13.9354 18.1624L13.9421 18.1557L13.9466 18.1468C14.8317 16.5608 15.9403 14.5705 17.1429 12.4127C18.6091 9.759 19.9368 7.35547 20.9024 5.60644C21.3763 4.73974 21.7585 4.03387 22.0312 3.53574C22.1586 3.29673 22.2592 3.10686 22.333 2.9706C22.3642 2.91029 22.3888 2.86115 22.4089 2.82317C22.4246 2.78967 22.4335 2.7718 22.4313 2.76956L22.4291 2.77403Z" fill="#263238"/>
<path d="M26.5554 1.51655C26.5509 1.50315 26.3273 1.54559 25.9741 1.65506C25.6232 1.76899 25.1381 1.95665 24.6798 2.29845C24.2238 2.64248 23.9064 3.05577 23.6985 3.35959C23.4928 3.66788 23.39 3.87118 23.4034 3.87788C23.4191 3.88681 23.5465 3.69916 23.7656 3.40651C23.9869 3.11832 24.3065 2.72291 24.7491 2.39004C25.194 2.05941 25.6612 1.86282 26.001 1.73102C26.343 1.60145 26.5598 1.53219 26.5554 1.51432V1.51655Z" fill="#263238"/>
<g opacity="0.3">
<path d="M13.922 18.1446L13.7074 18.292C13.6203 18.1848 18.8707 29.1816 21.3406 32.0833L22.9656 30.7073C19.4608 27.3164 16.8434 22.047 13.922 18.1446Z" fill="black"/>
</g>
<path d="M24.3381 61.3814C24.3381 61.3814 24.3872 61.3814 24.4677 61.3345C24.5482 61.2898 24.6622 61.2161 24.803 61.1088C25.0891 60.8966 25.4892 60.5571 25.9943 60.1081C27.0024 59.2079 28.424 57.8677 30.1294 56.1588C30.5563 55.7322 30.9989 55.281 31.4549 54.8052C31.9176 54.3361 32.3557 53.8022 32.9033 53.3599C33.4531 52.9199 34.0946 52.5558 34.801 52.3011C35.5073 52.0442 36.2717 51.8946 37.063 51.8365C37.4586 51.8075 37.8609 51.8075 38.27 51.8052C38.679 51.8008 39.0925 51.7985 39.5105 51.7941C40.3464 51.7874 41.198 51.7784 42.0675 51.7717C43.8043 51.7561 45.6014 51.7405 47.4431 51.7226C54.8103 51.6489 61.4779 51.5819 66.3103 51.5327C68.7221 51.5037 70.6734 51.4791 72.0279 51.4612C72.6985 51.4501 73.2215 51.4411 73.5814 51.4367C73.7557 51.4322 73.8898 51.43 73.9859 51.4277C74.0776 51.4255 74.1245 51.421 74.1245 51.421C74.1245 51.421 74.0776 51.4166 73.9859 51.4166C73.8898 51.4166 73.7557 51.4166 73.5814 51.4166C73.2215 51.4166 72.6985 51.4166 72.0279 51.4188C70.6734 51.4277 68.7221 51.4389 66.3103 51.4523C61.4779 51.4925 54.8103 51.5461 47.4431 51.6087C45.6014 51.6265 43.8043 51.6422 42.0675 51.66C41.2003 51.669 40.3464 51.6757 39.5105 51.6846C39.0925 51.6891 38.679 51.6936 38.27 51.6958C37.8632 51.7003 37.4564 51.7003 37.0563 51.7293C36.2561 51.7918 35.4827 51.9437 34.7652 52.2051C34.0499 52.4642 33.3995 52.8372 32.8429 53.284C32.2864 53.7374 31.8505 54.2735 31.3923 54.7426C30.9386 55.2184 30.496 55.6719 30.0713 56.1008C28.3726 57.8141 26.9622 59.1655 25.9631 60.0724C25.4646 60.5258 25.069 60.8698 24.7873 61.0887C24.6488 61.1982 24.537 61.2764 24.4588 61.3233C24.3805 61.3724 24.3336 61.3769 24.3358 61.3814H24.3381Z" fill="#263238"/>
<g opacity="0.3">
<path d="M12.297 48.0615C11.6063 47.3779 10.9088 46.6898 10.0884 46.1715C9.26805 45.6533 8.08775 45.0456 7.34336 45.5282C6.96557 45.9392 6.66155 46.4151 6.44472 46.9266C6.37095 47.1009 6.30836 47.3064 6.39107 47.4762C6.49614 47.6884 6.76663 47.742 7.00135 47.7711C8.71143 47.9855 10.4215 48.2 12.1338 48.4167C12.2322 48.4301 12.3574 48.4301 12.4043 48.343C12.4557 48.2492 12.373 48.1375 12.297 48.0615Z" fill="white"/>
</g>
<path d="M10.9873 62.6434L10.9918 62.6591C11.1014 63.0388 10.8152 63.4611 10.4196 63.4521L6.7043 63.3896C6.4137 63.3829 6.17227 63.0947 6.1365 62.8065L6.11192 62.601C6.06721 62.2346 6.40699 61.8995 6.7736 61.9263L10.4598 62.1966C10.7057 62.2145 10.9225 62.4044 10.9896 62.6434H10.9873Z" fill="white"/>
<path d="M80.3026 60.4811C80.3026 60.4498 68.322 60.423 53.5475 60.423C38.7729 60.423 26.7901 60.4498 26.7901 60.4811C26.7901 60.5124 38.7685 60.5392 53.5475 60.5392C68.3265 60.5392 80.3026 60.5124 80.3026 60.4811Z" fill="#455A64"/>
<path d="M38.5849 62.4292H37.0156L36.9039 60.4812H38.7034L38.5849 62.4292Z" fill="#455A64"/>
<path d="M53.2612 62.4292H51.6919L51.5824 60.4812H53.3796L53.2612 62.4292Z" fill="#455A64"/>
<path d="M67.9398 62.4292H66.3705L66.261 60.4812H68.0582L67.9398 62.4292Z" fill="#455A64"/>
<path d="M79.4731 59.7753C76.6345 57.3315 72.8101 53.5721 70.8431 53.2125C68.4559 52.7769 56.8486 52.5446 53.1695 52.6496C49.4882 52.5424 37.8809 52.7769 35.4959 53.2125C33.6653 53.5475 30.2701 57.1327 27.5454 59.7753H79.4731Z" fill="#455A64"/>
<path d="M3.93304 58.4952C3.93304 58.4952 3.98221 58.4662 4.06939 58.3992L4.45161 58.1065C4.79135 57.8407 5.27192 57.4655 5.87318 56.9964L5.84412 57.0053C7.68367 57.2398 10.4575 57.5972 13.5577 57.9926C15.0665 58.1803 16.4992 58.3567 17.7755 58.5153L17.7576 58.5086C19.3089 59.3418 20.6209 60.0477 21.5575 60.5503C22.0157 60.7915 22.3822 60.9859 22.6415 61.1221C22.7622 61.1847 22.8583 61.2316 22.9321 61.2695C22.9991 61.3031 23.0327 61.3187 23.0349 61.3165C23.0349 61.3142 23.0036 61.2941 22.941 61.2561C22.8695 61.2159 22.7756 61.1601 22.6594 61.0931C22.4024 60.9501 22.0403 60.7468 21.5887 60.4944C20.6567 59.9829 19.3513 59.2636 17.8091 58.417L17.8001 58.4126H17.7889C16.5127 58.2495 15.0821 58.0686 13.5712 57.8765C10.4687 57.4967 7.69486 57.155 5.85307 56.9294H5.83742L5.82625 56.9383C5.23392 57.4185 4.76006 57.805 4.42479 58.0753C4.26832 58.2048 4.14539 58.3076 4.05375 58.3835C3.97105 58.455 3.92857 58.493 3.93081 58.4952H3.93304Z" fill="#263238"/>
<path d="M23.0349 54.2312C23.0349 54.2312 23.7949 52.949 23.0349 52.6251C22.1632 52.2543 7.6077 50.5097 7.01538 50.4561C5.8352 50.3511 5.40605 50.885 5.12888 52.2699C4.85172 53.6548 4.24151 57.0904 5.40604 58.0889C6.57057 59.0873 8.40118 59.5296 12.0043 59.7508C15.6096 59.9719 17.5051 60.0948 19.2798 59.0963C21.0545 58.0978 23.0327 54.2289 23.0327 54.2289L23.0349 54.2312Z" fill="#263238"/>
<path d="M22.2905 42.8166C22.3262 42.801 22.1921 42.3944 21.9016 41.6774C21.611 40.9604 21.1662 39.9328 20.556 38.6886C20.2453 38.0699 19.9055 37.3908 19.4987 36.6805C19.0919 35.9724 18.6427 35.2196 18.0749 34.478C17.7888 34.1139 17.4558 33.7341 17.0803 33.4192C16.7048 33.0975 16.2868 32.8071 15.8487 32.5502C15.4106 32.2934 14.9636 32.0611 14.5098 31.8176C14.0561 31.5763 13.5934 31.3328 13.1151 31.0983C12.1629 30.6292 11.1995 30.2182 10.2317 29.9189C9.74887 29.7692 9.26385 29.6486 8.78775 29.5525C8.31389 29.4543 7.82215 29.385 7.33041 29.4073C6.8409 29.4319 6.33799 29.5682 5.93789 29.8675C5.54003 30.1691 5.29193 30.5912 5.14217 30.9933C4.98794 31.3976 4.90748 31.793 4.83595 32.1683C4.76666 32.5368 4.6996 32.892 4.63478 33.2293C4.36656 34.583 4.1654 35.6842 4.05364 36.4504C3.94188 37.2166 3.91729 37.6455 3.95529 37.6522C3.99552 37.6589 4.09611 37.2434 4.27715 36.4928C4.45821 35.7356 4.71748 34.6522 5.03711 33.3164C5.11758 32.9814 5.19581 32.6217 5.27628 32.2576C5.35898 31.8958 5.44616 31.5227 5.59144 31.172C5.73226 30.8213 5.94236 30.4997 6.24188 30.2807C6.54362 30.0641 6.93701 29.9591 7.35499 29.9434C7.77744 29.93 8.22002 29.9948 8.67823 30.0976C9.13644 30.1936 9.59911 30.3165 10.064 30.4617C10.9939 30.7565 11.9259 31.1586 12.8625 31.6188C13.3319 31.8488 13.7901 32.0879 14.2416 32.3269C14.6931 32.5681 15.1446 32.7982 15.5626 33.0417C15.9828 33.2829 16.3695 33.5465 16.7249 33.8436C17.0847 34.1384 17.3731 34.4623 17.657 34.8108C18.2113 35.5077 18.6695 36.2382 19.0875 36.9262C19.5054 37.6142 19.8653 38.2754 20.1961 38.8785C20.8466 40.0892 21.3472 41.0854 21.7004 41.7712C22.0513 42.457 22.257 42.8345 22.295 42.8166H22.2905Z" fill="#263238"/>
<path d="M9.15425 35.4947C10.2876 35.4947 11.2734 36.1224 11.7831 37.0495C12.02 36.6206 12.1542 36.1291 12.1542 35.6064C12.1542 33.951 10.8107 32.6084 9.15425 32.6084C7.49781 32.6084 6.15433 33.951 6.15433 35.6064C6.15433 36.1291 6.28846 36.6206 6.52542 37.0495C7.03509 36.1224 8.02089 35.4947 9.15425 35.4947Z" fill="#E0E0E0"/>
<path d="M10.4486 35.5079C10.4486 36.2206 9.86963 36.7992 9.15654 36.7992C8.44344 36.7992 7.86448 36.2206 7.86448 35.5079C7.86448 34.7953 8.44344 34.2167 9.15654 34.2167C9.86963 34.2167 10.4486 34.7953 10.4486 35.5079Z" fill="white"/>
<path d="M10.4486 35.5078C10.4486 35.5078 10.4553 35.4788 10.4553 35.4252C10.4553 35.3716 10.4508 35.2889 10.4285 35.1884C10.386 34.9873 10.263 34.6857 9.96126 34.4489C9.67066 34.2121 9.17886 34.0714 8.69601 34.2456C8.45906 34.3283 8.23105 34.4891 8.06786 34.7125C7.9002 34.9337 7.80632 35.2174 7.80408 35.5101C7.80632 35.8027 7.9002 36.0864 8.06786 36.3076C8.23105 36.531 8.45906 36.6919 8.69601 36.7745C9.17886 36.9488 9.67066 36.808 9.96126 36.5712C10.263 36.3344 10.386 36.0328 10.4285 35.8318C10.4508 35.729 10.4575 35.6486 10.4553 35.595C10.4553 35.5413 10.4508 35.5123 10.4486 35.5123C10.4374 35.5123 10.4396 35.6285 10.386 35.8228C10.3323 36.015 10.2004 36.292 9.91207 36.5064C9.63265 36.7209 9.17439 36.8415 8.73178 36.6762C8.29364 36.5243 7.91362 36.0574 7.92033 35.5123C7.91586 34.9672 8.29364 34.5003 8.73178 34.3484C9.17439 34.1831 9.63265 34.3015 9.91207 34.5182C10.2004 34.7327 10.3323 35.0119 10.386 35.2018C10.4396 35.3961 10.4374 35.5123 10.4486 35.5123V35.5078Z" fill="#263238"/>
<path d="M12.154 35.6062C12.154 35.6062 12.1585 35.5414 12.154 35.4141C12.154 35.3516 12.1518 35.2734 12.1361 35.1818C12.125 35.0902 12.1138 34.9852 12.0802 34.869C11.9774 34.4088 11.6823 33.7252 10.9916 33.1913C10.6496 32.9299 10.2159 32.7065 9.71518 32.6149C9.21668 32.5256 8.65113 32.539 8.1124 32.74C7.84191 32.8339 7.57813 32.9746 7.33894 33.1533C7.09528 33.3298 6.87398 33.5465 6.69068 33.8012C6.3129 34.2994 6.10054 34.945 6.09383 35.6062C6.0983 36.2697 6.3129 36.9131 6.69068 37.4113C6.87398 37.6637 7.09528 37.8827 7.33894 38.0592C7.58036 38.2379 7.84191 38.3786 8.1124 38.4724C8.65113 38.6757 9.21668 38.6869 9.71518 38.5975C10.2181 38.5059 10.6518 38.2826 10.9916 38.0212C11.6823 37.4873 11.9752 36.8037 12.0802 36.3435C12.1138 36.2273 12.125 36.1223 12.1361 36.0307C12.1518 35.9391 12.154 35.8609 12.154 35.7984C12.1563 35.6733 12.154 35.6062 12.154 35.6062C12.1361 35.6062 12.154 35.8743 12.0378 36.3323C11.9215 36.7813 11.622 37.4448 10.9447 37.9564C10.6094 38.2066 10.1869 38.4188 9.69953 38.5037C9.21668 38.5864 8.67125 38.5707 8.15039 38.3719C7.88885 38.2803 7.63626 38.144 7.40601 37.9698C7.1713 37.8 6.95893 37.5878 6.78456 37.3443C6.42243 36.8617 6.21901 36.2429 6.2123 35.6062C6.21901 34.9696 6.42243 34.3507 6.78456 33.8682C6.95893 33.6247 7.1713 33.4125 7.40601 33.2427C7.6385 33.0684 7.88885 32.9322 8.15039 32.8406C8.66901 32.6417 9.21445 32.6261 9.69953 32.7088C10.1869 32.7936 10.6094 33.0059 10.9447 33.2561C11.622 33.7677 11.9238 34.4289 12.0378 34.8802C12.154 35.3382 12.1361 35.6085 12.154 35.6062Z" fill="#263238"/>
<path d="M10.2876 33.4797C10.3278 33.4193 10.1221 33.1781 9.65494 33.015C9.19892 32.8519 8.45452 32.8095 7.7593 33.1781C7.06633 33.5512 6.68408 34.1901 6.5656 34.6592C6.44042 35.1395 6.52537 35.4433 6.5969 35.4433C6.68408 35.4478 6.75113 35.1753 6.94785 34.8089C7.14009 34.4425 7.49553 33.9778 8.02979 33.6919C8.56629 33.4082 9.14973 33.3724 9.56104 33.4171C9.97683 33.4573 10.2406 33.5556 10.2853 33.4797H10.2876Z" fill="white"/>
<path d="M11.0387 33.9554C11.1706 33.8638 11.2287 33.7186 11.1505 33.6426C11.0722 33.5667 10.9269 33.6292 10.8398 33.7633C10.7526 33.8973 10.7123 34.0269 10.7436 34.0604C10.7772 34.0917 10.9046 34.047 11.0365 33.9554H11.0387Z" fill="white"/>
<path d="M28.062 46.929C28.1022 46.7726 24.1549 45.6423 19.2464 44.4026C14.338 43.1629 10.3258 42.285 10.2878 42.4413C10.2476 42.5977 14.1949 43.728 19.1056 44.9677C24.0141 46.2075 28.024 47.0853 28.0642 46.929H28.062Z" fill="#263238"/>
<path d="M4.41806 30.5241C4.41806 30.5241 4.42476 30.5018 4.4337 30.4571C4.44264 30.4124 4.45605 30.3454 4.4784 30.2605C4.52534 30.0908 4.60357 29.8384 4.77121 29.5457C4.93885 29.2576 5.20932 28.9314 5.61835 28.6902C5.71894 28.6277 5.83516 28.583 5.94916 28.5294C6.07209 28.4936 6.19279 28.4423 6.32467 28.4177C6.45654 28.3953 6.59289 28.3574 6.73371 28.3551C6.87452 28.3462 7.02205 28.3507 7.16957 28.3641C7.7686 28.4154 8.41456 28.5673 9.10076 28.755C9.78696 28.9426 10.5089 29.1749 11.2644 29.4363C12.7709 29.9657 14.416 30.6001 16.0879 31.3774C16.2958 31.4757 16.5015 31.5762 16.7004 31.6834C16.8993 31.7884 17.0781 31.9202 17.2547 32.0587C17.6034 32.3357 17.9186 32.6462 18.189 32.9813C18.6986 33.676 19.1658 34.3841 19.6128 35.043C20.5047 36.3699 21.2736 37.5895 21.9016 38.6237C22.5275 39.6602 23.0125 40.509 23.3433 41.0987C23.5065 41.3891 23.6339 41.617 23.7256 41.7778C23.768 41.8515 23.8015 41.9074 23.8261 41.9543C23.8485 41.9945 23.8619 42.0124 23.8641 42.0124C23.8641 42.0124 23.8574 41.99 23.8373 41.9498C23.815 41.9029 23.7837 41.8426 23.7457 41.7689C23.6652 41.6103 23.5445 41.3757 23.3836 41.0786C23.0639 40.4822 22.5901 39.6245 21.9732 38.5813C21.354 37.5404 20.5918 36.3163 19.7022 34.9849C19.253 34.3193 18.797 33.6223 18.2784 32.912C18.0035 32.568 17.6816 32.2531 17.3285 31.9694C17.1497 31.8309 16.9641 31.6924 16.7585 31.5829C16.5551 31.4735 16.3495 31.3729 16.1393 31.2724C14.4607 30.4928 12.8134 29.8629 11.3002 29.3358C10.5425 29.0766 9.81603 28.8466 9.12535 28.6612C8.43692 28.478 7.78424 28.3306 7.17627 28.2814C7.02428 28.268 6.87452 28.2658 6.727 28.277C6.57947 28.2814 6.44313 28.3216 6.30678 28.3462C6.17043 28.373 6.04751 28.4266 5.92233 28.4646C5.80611 28.5227 5.68764 28.5696 5.58482 28.6344C5.16684 28.889 4.89415 29.2263 4.73098 29.5234C4.56781 29.825 4.49405 30.0818 4.45606 30.2561C4.43594 30.3432 4.42699 30.4102 4.42252 30.4571C4.41805 30.5018 4.41805 30.5264 4.42029 30.5264L4.41806 30.5241Z" fill="#263238"/>
<g opacity="0.3">
<path d="M3.48816 31.7884C3.26688 31.8621 2.05318 32.6172 1.53909 32.9053C1.025 33.1935 0.575714 33.6469 0.425957 34.2165C0.278435 34.7839 0.441612 35.3825 0.602545 35.9455C1.13228 37.7883 1.74696 41.101 2.27669 42.9416C2.6902 39.5999 3.14171 33.9083 3.48816 31.7862" fill="white"/>
</g>
<path d="M20.1337 58.2988C20.1381 58.2675 16.6892 57.7627 12.429 57.1752C8.16873 56.5855 4.71315 56.1343 4.70868 56.1656C4.70421 56.1968 8.15309 56.7017 12.4133 57.2891C16.6714 57.8789 20.1292 58.3301 20.1337 58.2988Z" fill="#455A64"/>
<path d="M19.0316 59.1431C19.0316 59.1431 18.9824 59.1275 18.8886 59.1119C18.7835 59.094 18.6472 59.0716 18.4773 59.0448C18.1197 58.989 17.6011 58.9131 16.9596 58.8237C15.6766 58.645 13.9041 58.4239 11.9416 58.1915C9.98807 57.9592 8.2178 57.747 6.9214 57.5929C6.28884 57.517 5.77251 57.4544 5.39924 57.4097C5.22936 57.3919 5.09079 57.3762 4.98573 57.3651C4.89186 57.3561 4.84044 57.3539 4.84044 57.3561C4.84044 57.3606 4.88962 57.3718 4.9835 57.3874C5.08855 57.4053 5.2249 57.4276 5.39478 57.4544C5.75241 57.5103 6.27096 57.5862 6.91246 57.6755C8.19545 57.8542 9.96796 58.0754 11.9304 58.3077C13.884 58.54 15.652 58.7522 16.9507 58.9064C17.5832 58.9823 18.0995 59.0448 18.4728 59.0895C18.6427 59.1074 18.7813 59.123 18.8863 59.1342C18.9802 59.1431 19.0316 59.1454 19.0316 59.1431Z" fill="#455A64"/>
<path d="M16.6155 59.7752C16.6267 59.7752 16.4791 59.7529 16.2266 59.7216C15.9539 59.6859 15.5895 59.6412 15.147 59.5854C14.2171 59.4737 12.9654 59.324 11.5819 59.1565C10.1983 59.0001 8.94435 58.8594 8.01451 58.7522C7.57195 58.7075 7.20539 58.6695 6.93269 58.6427C6.67788 58.6204 6.53482 58.6092 6.53482 58.6181C6.53482 58.6271 6.67341 58.6516 6.92822 58.6874C7.20091 58.7254 7.56525 58.7745 8.00558 58.8348C8.91753 58.9532 10.1759 59.1096 11.5685 59.2726C12.961 59.4357 14.2216 59.5742 15.1358 59.668C16.0478 59.7596 16.6244 59.8065 16.6133 59.7775L16.6155 59.7752Z" fill="#455A64"/>
<path d="M20.9383 57.3382C20.9428 57.3069 17.3129 56.8021 12.8313 56.2146C8.34754 55.6249 4.7109 55.1737 4.70866 55.205C4.70419 55.2362 8.33412 55.7411 12.8179 56.3285C17.2994 56.9183 20.9361 57.3695 20.9406 57.3382H20.9383Z" fill="#455A64"/>
<path d="M21.5688 56.4447C21.5733 56.4134 17.8137 55.8929 13.1757 55.2831C8.53549 54.6733 4.76922 54.2042 4.76475 54.2355C4.76028 54.2668 8.51762 54.7872 13.1601 55.397C17.8003 56.0069 21.5644 56.4759 21.5688 56.4424V56.4447Z" fill="#455A64"/>
<path d="M22.2772 55.3904C22.2817 55.3592 18.417 54.8253 13.6471 54.1976C8.87504 53.5699 5.0037 53.0874 5.00147 53.1209C4.997 53.1522 8.86162 53.6861 13.6337 54.3138C18.4036 54.9415 22.2749 55.4239 22.2794 55.3904H22.2772Z" fill="#455A64"/>
<path d="M22.8226 54.3136C22.8271 54.2824 18.8932 53.7396 14.0384 53.1007C9.18132 52.4619 5.24293 51.9704 5.23846 52.0039C5.23399 52.0352 9.16567 52.578 14.0227 53.2169C18.8775 53.8557 22.8182 54.3471 22.8226 54.3136Z" fill="#455A64"/>
<path d="M23.3702 53.237C23.3747 53.2058 19.4095 52.6585 14.5144 52.0152C9.6194 51.3718 5.64748 50.876 5.64301 50.9072C5.63854 50.9385 9.60375 51.4858 14.4988 52.1291C19.3938 52.7724 23.3658 53.2683 23.3702 53.237Z" fill="#455A64"/>
<path d="M10.5514 50.7799C10.5201 50.7732 10.0843 52.6965 9.5769 55.0754C9.06951 57.4544 8.68507 59.3888 8.71636 59.3955C8.74765 59.4022 9.18351 57.479 9.69089 55.1C10.1983 52.7211 10.5827 50.7866 10.5514 50.7799Z" fill="#455A64"/>
<path d="M9.08745 50.5365C9.05616 50.5298 8.6203 52.453 8.11291 54.832C7.60553 57.2109 7.22108 59.1454 7.25238 59.1521C7.28367 59.1588 7.71953 57.2355 8.22691 54.8565C8.7343 52.4776 9.11874 50.5432 9.08745 50.5365Z" fill="#455A64"/>
<path d="M7.62557 50.293C7.59427 50.2863 7.18076 52.1068 6.7002 54.3562C6.21963 56.6079 5.85753 58.4373 5.88883 58.444C5.92012 58.4507 6.33363 56.6324 6.8142 54.3808C7.29252 52.1314 7.65686 50.2997 7.62557 50.293Z" fill="#455A64"/>
<path d="M6.03864 50.6257C6.03864 50.6257 6.0051 50.7084 5.96487 50.8625C5.92463 51.0167 5.87098 51.2401 5.81062 51.5193C5.68544 52.0756 5.53342 52.8463 5.38365 53.7019C5.23164 54.5419 5.09529 55.3015 4.99023 55.889C4.94329 56.1504 4.90304 56.3716 4.87175 56.5525C4.84492 56.7089 4.83598 56.7982 4.84269 56.7982C4.85163 56.7982 4.87622 56.7156 4.91646 56.5614C4.9567 56.4073 5.01035 56.1839 5.0707 55.9047C5.19588 55.3484 5.34789 54.5777 5.49766 53.7198C5.64967 52.8798 5.78603 52.1203 5.89109 51.5327C5.93804 51.2714 5.97828 51.0502 6.00958 50.8692C6.0364 50.7129 6.04534 50.6235 6.03864 50.6235V50.6257Z" fill="#455A64"/>
<path d="M12.2412 51.0836C12.2099 51.0769 11.7875 52.9331 11.298 55.2294C10.8084 57.5257 10.4374 59.3932 10.4687 59.3999C10.5 59.4066 10.9224 57.5503 11.4119 55.254C11.9015 52.9577 12.2725 51.0903 12.2412 51.0836Z" fill="#455A64"/>
<path d="M13.9243 51.4232C13.893 51.4165 13.4706 53.2772 12.9788 55.5802C12.4893 57.8832 12.1161 59.7551 12.1473 59.7618C12.1786 59.7685 12.6011 57.9078 13.0928 55.6048C13.5823 53.304 13.9556 51.4321 13.9243 51.4254V51.4232Z" fill="#455A64"/>
<path d="M15.6589 51.5148C15.6276 51.5081 15.2074 53.3532 14.7224 55.6338C14.2351 57.9167 13.8685 59.7708 13.8998 59.7775C13.9311 59.7842 14.3513 57.9413 14.8364 55.6584C15.3214 53.3777 15.6902 51.5215 15.6589 51.5148Z" fill="#455A64"/>
<path d="M17.3667 51.7382C17.3354 51.7315 16.9174 53.5655 16.4346 55.835C15.9518 58.1045 15.5852 59.9495 15.6165 59.9562C15.6478 59.9629 16.0658 58.129 16.5486 55.8595C17.0314 53.59 17.398 51.7449 17.3667 51.7382Z" fill="#455A64"/>
<path d="M19.0517 52.071C19.0204 52.0643 18.6293 53.7798 18.1755 55.9019C17.724 58.024 17.382 59.7507 17.4133 59.7574C17.4446 59.7641 17.8358 58.0485 18.2895 55.9265C18.741 53.8044 19.083 52.0777 19.0517 52.071Z" fill="#455A64"/>
<path d="M20.7752 52.214C20.7439 52.2073 20.3751 53.8113 19.9526 55.7951C19.5301 57.7788 19.2127 59.394 19.244 59.4007C19.2753 59.4074 19.6441 57.8057 20.0666 55.8196C20.4891 53.8359 20.8065 52.2229 20.7752 52.2162V52.214Z" fill="#455A64"/>
<path d="M22.4717 52.4908C22.4405 52.4841 22.2124 53.4291 21.9621 54.5997C21.7117 55.7703 21.5351 56.7265 21.5664 56.7332C21.5977 56.7399 21.8257 55.7949 22.0761 54.6243C22.3264 53.4537 22.503 52.4976 22.4717 52.4908Z" fill="#455A64"/>
<path d="M78.188 58.8929C78.188 58.8616 67.0814 58.8348 53.3819 58.8348C39.6825 58.8348 28.5737 58.8616 28.5737 58.8929C28.5737 58.9242 39.678 58.951 53.3819 58.951C67.0858 58.951 78.188 58.9242 78.188 58.8929Z" fill="#263238"/>
<path d="M77.2136 57.7716C77.2136 57.7404 66.5831 57.7136 53.476 57.7136C40.3689 57.7136 29.7361 57.7404 29.7361 57.7716C29.7361 57.8029 40.3644 57.8297 53.476 57.8297C66.5876 57.8297 77.2136 57.8029 77.2136 57.7716Z" fill="#263238"/>
<path d="M75.7361 56.6235C75.7361 56.5923 65.6822 56.5655 53.2837 56.5655C40.8851 56.5655 30.829 56.5923 30.829 56.6235C30.829 56.6548 40.8807 56.6816 53.2837 56.6816C65.6867 56.6816 75.7361 56.6548 75.7361 56.6235Z" fill="#263238"/>
<path d="M74.7526 55.4754C74.7526 55.4441 65.177 55.4173 53.3663 55.4173C41.5556 55.4173 31.9779 55.4441 31.9779 55.4754C31.9779 55.5067 41.5512 55.5335 53.3663 55.5335C65.1815 55.5335 74.7526 55.5067 74.7526 55.4754Z" fill="#263238"/>
<path d="M73.1119 54.3807C73.1119 54.3494 64.2338 54.3226 53.2836 54.3226C42.3335 54.3226 33.4531 54.3494 33.4531 54.3807C33.4531 54.412 42.329 54.4388 53.2836 54.4388C64.2383 54.4388 73.1119 54.412 73.1119 54.3807Z" fill="#263238"/>
<path d="M71.25 53.2885C71.25 53.2573 63.2279 53.2305 53.3373 53.2305C43.4466 53.2305 35.4223 53.2573 35.4223 53.2885C35.4223 53.3198 43.4421 53.3466 53.3373 53.3466C63.2324 53.3466 71.25 53.3198 71.25 53.2885Z" fill="#263238"/>
<path d="M53.7195 5.22241H54.3275V6.31483H53.7195V5.22241Z" fill="#263238"/>
<g opacity="0.3">
<path d="M87.9694 25.7015C87.9694 25.7015 86.8741 25.3284 87.0887 24.5086C87.0887 24.5086 83.9125 26.3671 79.5897 26.3023C75.2691 26.2376 59.435 27.2048 59.435 27.2048L57.6201 29.7088C57.6201 29.7088 84.4311 29.0878 85.4257 29.7356L87.9694 25.7015Z" fill="white"/>
</g>
<g opacity="0.3">
<path d="M98.0297 27.6939C98.251 27.6939 91.1967 30.1175 90.2826 30.8792L88.8431 30.5643L93.879 22.2189L94.4579 22.0849C94.4579 22.0849 96.1879 27.7028 98.0319 27.6939H98.0297Z" fill="white"/>
</g>
<g opacity="0.3">
<path d="M81.0648 2.33188C80.9307 2.33188 53.4491 1.15692 53.4939 0.797287C53.5386 0.437652 65.7471 0.482327 71.1093 0.797287C76.4693 1.11225 81.0648 2.33188 81.0648 2.33188Z" fill="white"/>
</g>
<g opacity="0.2">
<path d="M92.567 17.5885L70.2264 12.0779L66.0153 2.85913L84.0845 3.60967C84.3795 3.62084 84.4958 3.71019 84.6433 3.96484L92.567 17.5885Z" fill="white"/>
</g>
</svg>
