<svg width="24" height="24" viewBox="0 0 24 24" fill="none" xmlns="http://www.w3.org/2000/svg">
<path fill-rule="evenodd" clip-rule="evenodd" d="M12 22C14.177 22 16.1915 21.3044 17.8333 20.1233V18.8333C17.8333 18.1703 17.5699 17.5344 17.1011 17.0656C16.6323 16.5967 15.9964 16.3333 15.3333 16.3333H8.66667C8.00363 16.3333 7.36774 16.5967 6.8989 17.0656C6.43006 17.5344 6.16667 18.1703 6.16667 18.8333V20.1233C7.80853 21.3044 9.82303 22 12 22ZM18.2796 15.8871C19.0107 16.6182 19.4421 17.5931 19.4946 18.6207C21.0537 16.8571 22 14.5391 22 12C22 6.47715 17.5228 2 12 2C6.47715 2 2 6.47715 2 12C2 14.5391 2.94629 16.8571 4.50543 18.6207C4.5579 17.5931 4.98925 16.6182 5.72039 15.8871C6.50179 15.1057 7.5616 14.6667 8.66667 14.6667H15.3333C16.4384 14.6667 17.4982 15.1057 18.2796 15.8871ZM12 24C18.6274 24 24 18.6274 24 12C24 5.37258 18.6274 0 12 0C5.37258 0 0 5.37258 0 12C0 18.6274 5.37258 24 12 24ZM9.5 8.83333C9.5 7.45262 10.6193 6.33333 12 6.33333C13.3807 6.33333 14.5 7.45262 14.5 8.83333C14.5 10.214 13.3807 11.3333 12 11.3333C10.6193 11.3333 9.5 10.214 9.5 8.83333ZM12 4.66667C9.69881 4.66667 7.83333 6.53215 7.83333 8.83333C7.83333 11.1345 9.69881 13 12 13C14.3012 13 16.1667 11.1345 16.1667 8.83333C16.1667 6.53215 14.3012 4.66667 12 4.66667Z" fill="black"/>
</svg>
