<svg width="153" height="72" viewBox="0 0 153 72" fill="none" xmlns="http://www.w3.org/2000/svg">
<path d="M28.306 48.0127L34.8481 64.407H31.7978L30.3209 60.7259H22.3242L20.8473 64.407H17.7747L24.3428 48.0127H28.306ZM23.4263 57.9799H29.2188L26.3096 50.7327L23.4263 57.9799Z" fill="#009ACA"/>
<path d="M48.5446 58.7777L52.7675 64.407H49.2014L45.4275 59.3418H40.4773V64.407H37.453V48.0127H46.0583C47.6391 48.0127 48.9899 48.5693 50.1142 49.6789C51.2386 50.7884 51.8026 52.1243 51.8026 53.6902C51.8026 54.7998 51.5058 55.8091 50.9121 56.7145C50.3183 57.62 49.5279 58.3102 48.5446 58.7777ZM45.9656 56.4325C46.7485 56.4325 47.4128 56.1653 47.9583 55.6347C48.5038 55.104 48.7783 54.4547 48.7783 53.6865C48.7783 52.9184 48.5038 52.269 47.9583 51.7272C47.4128 51.1891 46.7448 50.9183 45.9656 50.9183H40.4773V56.4288H45.9656V56.4325Z" fill="#009ACA"/>
<path d="M69.7926 48.0127L62.6865 55.5159L70.5645 64.407H66.7906L60.716 57.5829L58.5563 59.8798V64.407H55.532V48.0127H58.5563V55.8944L66.015 48.0127H69.7926Z" fill="#009ACA"/>
<path d="M79.7343 54.859C80.4393 55.0779 81.0034 55.2671 81.4338 55.423C81.8643 55.5788 82.3801 55.8089 82.9812 56.1132C83.5824 56.4175 84.0536 56.7292 84.3876 57.052C84.7253 57.3712 85.0185 57.7831 85.2671 58.284C85.5157 58.785 85.6419 59.3305 85.6419 59.9242C85.6419 60.7999 85.4489 61.5607 85.0667 62.21C84.6845 62.8594 84.1576 63.3604 83.4822 63.7092C82.8105 64.0617 82.0758 64.3215 81.278 64.4959C80.4802 64.6666 79.6118 64.7556 78.673 64.7556C76.2981 64.7556 74.0605 64.1545 71.9676 62.9485L73.4927 60.5328C75.3221 61.5347 77.0885 62.0319 78.7917 62.0319C81.2631 62.0319 82.4988 61.3825 82.4988 60.0838C82.4988 59.7386 82.4023 59.4307 82.2057 59.1561C82.009 58.8815 81.701 58.6403 81.278 58.4287C80.8549 58.2172 80.4616 58.0465 80.0942 57.9129C79.7269 57.7793 79.2148 57.6124 78.558 57.4083C78.5283 57.3934 78.4986 57.386 78.4763 57.386C78.4541 57.386 78.4281 57.3786 78.4058 57.3637C78.3835 57.3489 78.3539 57.3415 78.3242 57.3415C77.5597 57.1077 76.9734 56.9184 76.5653 56.7774C76.1571 56.6364 75.6376 56.4138 75.0067 56.1095C74.3722 55.8052 73.8935 55.4935 73.5632 55.1707C73.2367 54.8515 72.9435 54.4322 72.6838 53.9164C72.424 53.4006 72.2978 52.8217 72.2978 52.1798C72.2978 50.8513 72.8433 49.7789 73.938 48.9662C75.1255 48.1053 76.8065 47.6748 78.981 47.6748C81.1555 47.6748 83.2187 48.276 85.3116 49.482L83.8347 51.8272C82.0832 50.8587 80.4171 50.3726 78.84 50.3726C77.7304 50.3726 76.8844 50.5247 76.3055 50.829C75.7266 51.1333 75.4372 51.5452 75.4372 52.061C75.4372 52.343 75.5151 52.6028 75.671 52.8477C75.8268 53.0889 75.9975 53.2893 76.1868 53.4451C76.376 53.601 76.6766 53.768 77.0885 53.9498C77.5041 54.1279 77.8418 54.2615 78.109 54.3469C78.3761 54.4322 78.788 54.5621 79.3521 54.7328C79.5228 54.781 79.6489 54.8181 79.7269 54.8515L79.7343 54.859Z" fill="#29CFCF"/>
<path d="M97.5832 48.0127C99.2568 48.0127 100.682 48.599 101.862 49.7716C103.042 50.9442 103.632 52.358 103.632 54.0168C103.632 55.6755 103.042 57.0856 101.862 58.2508C100.682 59.416 99.2531 59.9986 97.5832 59.9986H92.3547V64.407H89.3304V48.0127H97.587H97.5832ZM97.4905 57.0893C98.3514 57.0893 99.0861 56.7887 99.6947 56.1876C100.303 55.5864 100.608 54.8628 100.608 54.0168C100.608 53.1707 100.303 52.4471 99.6947 51.8348C99.0861 51.2263 98.3514 50.922 97.4905 50.922H92.3547V57.0893H97.4905Z" fill="#29CFCF"/>
<path d="M114.396 48.0127L120.939 64.407H117.888L116.411 60.7259H108.415L106.938 64.407H103.865L110.433 48.0127H114.396ZM109.517 57.9799H115.309L112.4 50.7327L109.517 57.9799Z" fill="#29CFCF"/>
<path d="M134.075 60.3251L136.116 62.5293C134.442 64.0767 132.49 64.8523 130.253 64.8523C127.878 64.8523 125.844 64.0025 124.156 62.3067C122.467 60.6108 121.621 58.5736 121.621 56.1987C121.621 53.8238 122.467 51.7903 124.156 50.1019C125.844 48.4134 127.878 47.5674 130.253 47.5674C132.627 47.5674 134.475 48.3244 136.116 49.8421L134.052 52.0686C132.973 51.0667 131.707 50.5694 130.253 50.5694C128.705 50.5694 127.384 51.1223 126.289 52.2244C125.195 53.3265 124.649 54.6513 124.649 56.1987C124.649 57.7461 125.195 59.0709 126.289 60.173C127.384 61.2751 128.705 61.828 130.253 61.828C131.8 61.828 132.995 61.327 134.075 60.3288V60.3251Z" fill="#29CFCF"/>
<path d="M153 50.8255H142.821V54.7886H151.241V57.6274H142.821V61.5682H153V64.407H139.797V48.0127H153V50.8255Z" fill="#29CFCF"/>
<path d="M8.60905 63.3789C7.8706 63.3789 7.1841 63.301 6.55698 63.1451L7.39933 59.7497C7.75928 59.8833 8.16004 59.9501 8.60905 59.9501C9.2807 59.9501 9.91896 59.8202 10.5238 59.5642C11.1287 59.3082 11.6556 58.9519 12.1046 58.5066C12.5536 58.0576 12.9062 57.5307 13.1622 56.9258C13.4182 56.321 13.5481 55.6716 13.5481 54.9739C13.5481 54.2763 13.4182 53.6677 13.1622 53.074C12.9062 52.4803 12.5499 51.9571 12.1046 51.5118C11.6556 51.0628 11.1287 50.7102 10.5238 50.4542C9.91896 50.1981 9.2807 50.0683 8.60905 50.0683C7.93739 50.0683 7.29914 50.1981 6.69428 50.4542C6.08942 50.7102 5.56248 51.0665 5.11347 51.5118C4.66447 51.9608 4.31195 52.4803 4.0559 53.074C3.79986 53.6677 3.66997 54.3023 3.66997 54.9739V71.2124L0.241198 67.7502V54.9739C0.241198 53.831 0.460134 52.7512 0.898008 51.7307C1.33588 50.7102 1.92961 49.8196 2.67919 49.0589C3.42877 48.2982 4.31566 47.6934 5.33613 47.2443C6.35659 46.7953 7.44757 46.5727 8.61276 46.5727C9.77795 46.5727 10.8429 46.7953 11.8745 47.2443C12.9062 47.6934 13.8005 48.2982 14.5649 49.0589C15.3293 49.8196 15.9305 50.7102 16.3795 51.7307C16.8285 52.7512 17.0511 53.831 17.0511 54.9739C17.0511 56.1169 16.8285 57.2338 16.3795 58.2506C15.9305 59.271 15.3256 60.1616 14.5649 60.9223C13.8042 61.6831 12.9062 62.2842 11.8745 62.7221C10.8429 63.16 9.75569 63.3789 8.61276 63.3789H8.60905Z" fill="white"/>
<path d="M8.60905 63.3789C7.8706 63.3789 7.1841 63.301 6.55698 63.1451L7.39933 59.7497C7.75928 59.8833 8.16004 59.9501 8.60905 59.9501C9.2807 59.9501 9.91896 59.8202 10.5238 59.5642C11.1287 59.3082 11.6556 58.9519 12.1046 58.5066C12.5536 58.0576 12.9062 57.5307 13.1622 56.9258C13.4182 56.321 13.5481 55.6716 13.5481 54.9739C13.5481 54.2763 13.4182 53.6677 13.1622 53.074C12.9062 52.4803 12.5499 51.9571 12.1046 51.5118C11.6556 51.0628 11.1287 50.7102 10.5238 50.4542C9.91896 50.1981 9.2807 50.0683 8.60905 50.0683C7.93739 50.0683 7.29914 50.1981 6.69428 50.4542C6.08942 50.7102 5.56248 51.0665 5.11347 51.5118C4.66447 51.9608 4.31195 52.4803 4.0559 53.074C3.79986 53.6677 3.66997 54.3023 3.66997 54.9739V71.2124L0.241198 67.7502V54.9739C0.241198 53.831 0.460134 52.7512 0.898008 51.7307C1.33588 50.7102 1.92961 49.8196 2.67919 49.0589C3.42877 48.2982 4.31566 47.6934 5.33613 47.2443C6.35659 46.7953 7.44757 46.5727 8.61276 46.5727C9.77795 46.5727 10.8429 46.7953 11.8745 47.2443C12.9062 47.6934 13.8005 48.2982 14.5649 49.0589C15.3293 49.8196 15.9305 50.7102 16.3795 51.7307C16.8285 52.7512 17.0511 53.831 17.0511 54.9739C17.0511 56.1169 16.8285 57.2338 16.3795 58.2506C15.9305 59.271 15.3256 60.1616 14.5649 60.9223C13.8042 61.6831 12.9062 62.2842 11.8745 62.7221C10.8429 63.16 9.75569 63.3789 8.61276 63.3789H8.60905Z" fill="#009ACA" stroke="#009ACA" stroke-width="0.48" stroke-miterlimit="22.93"/>
<path fill-rule="evenodd" clip-rule="evenodd" d="M76.5175 0C86.622 0 94.8155 8.19344 94.8155 18.2979C94.8155 28.4024 86.622 36.5959 76.5175 36.5959C66.413 36.5959 58.2196 28.4024 58.2196 18.2979C58.2196 8.19344 66.413 0 76.5175 0Z" fill="#009ACA"/>
<path d="M74.8664 22.7622L74.9295 19.1479L75.3414 19.1293C75.5529 19.1182 75.8015 19.1071 76.0539 19.0959C78.9112 18.9735 82.0283 18.8436 83.238 15.9974C83.3641 15.7006 83.4606 15.3889 83.5237 15.066C83.5868 14.7432 83.6202 14.4092 83.6202 14.0604C83.6202 13.7116 83.5868 13.3962 83.5274 13.0882C83.4643 12.7727 83.3678 12.4722 83.2417 12.179C83.1118 11.8821 82.9634 11.6075 82.7853 11.3478C82.6146 11.0955 82.4142 10.8543 82.1878 10.6279C81.9652 10.4052 81.724 10.2049 81.4642 10.0305C81.2045 9.85605 80.9224 9.70391 80.6181 9.57403C80.3176 9.44415 80.0096 9.34767 79.6942 9.28459C79.3825 9.2215 79.0559 9.19182 78.7182 9.19182C78.0503 9.19182 77.4157 9.31798 76.8183 9.57403C76.514 9.70391 76.232 9.85605 75.9722 10.0305C75.7125 10.2049 75.4713 10.4015 75.2486 10.6242C75.0223 10.8543 74.8219 11.0917 74.6512 11.3478C74.4768 11.6075 74.3246 11.8859 74.1948 12.179C74.0686 12.4722 73.9721 12.7727 73.909 13.0882C73.8459 13.3962 73.8163 13.719 73.8163 14.0604V32.5402L69.2557 28.8553L69.2297 14.1346V14.0604C69.2297 13.4184 69.2928 12.7876 69.419 12.1716C69.5451 11.5556 69.7307 10.9582 69.9756 10.383C70.2242 9.8041 70.5136 9.26603 70.8513 8.76137C71.189 8.2567 71.5675 7.78914 71.9943 7.35497C72.421 6.92081 72.8848 6.53489 73.3858 6.18978C73.8868 5.84839 74.4248 5.54781 75 5.29548C75.5789 5.04315 76.18 4.85018 76.8034 4.72402C77.4269 4.59414 78.0688 4.53106 78.7219 4.53106C79.375 4.53106 79.9984 4.59414 80.6181 4.72402C81.2379 4.85018 81.839 5.04315 82.4253 5.29548C83.0079 5.54781 83.5534 5.84839 84.0581 6.18607C84.5664 6.53118 85.0377 6.9171 85.4682 7.34755C85.8949 7.77429 86.2808 8.24185 86.6296 8.75394C86.9747 9.26232 87.2716 9.80039 87.5239 10.3719C87.7763 10.9507 87.9692 11.5482 88.0954 12.1642C88.2216 12.7802 88.2884 13.411 88.2884 14.0567C88.2884 14.7024 88.2253 15.3517 88.0954 15.9752C87.9692 16.5986 87.7763 17.1997 87.5239 17.7786C87.2716 18.3501 86.9785 18.8918 86.6371 19.4002C86.2957 19.9123 85.906 20.3799 85.4607 20.8066C84.3327 21.8902 82.852 22.5507 81.2527 22.9181C79.2897 23.3708 77.1448 23.3819 75.2672 23.2001L74.8664 23.1593L74.8738 22.7548L74.8664 22.7622Z" fill="white"/>
<path fill-rule="evenodd" clip-rule="evenodd" d="M66.1606 18.0346L66.1309 25.8384L61.3662 21.8047C62.9656 20.5022 64.5649 19.1998 66.1643 17.8973V18.0346H66.1606Z" fill="white"/>
<path fill-rule="evenodd" clip-rule="evenodd" d="M75.3077 17.4446H75.3226C76.6399 17.4743 79.1929 17.5857 80.2134 16.9103C81.5048 16.0531 81.8536 14.6578 81.4973 13.3071C81.3341 12.6874 80.9259 12.3237 80.8294 12.1196C80.4843 11.7783 80.1466 11.5333 79.7644 11.3589C78.9814 11.0027 78.1502 10.9507 77.345 11.2625C76.7364 11.4999 76.1464 11.9304 75.7567 12.539C75.2706 13.2923 75.2706 14.1161 75.2818 14.977C75.2892 15.797 75.3226 16.632 75.3077 17.4409V17.4446Z" fill="#29CFCF"/>
</svg>
