<svg width="46" height="51" viewBox="0 0 46 51" fill="none" xmlns="http://www.w3.org/2000/svg">
<path d="M37.3333 15.8333C37.3333 12.0319 35.8232 8.38616 33.1352 5.69814C30.4472 3.01011 26.8014 1.5 23 1.5C19.1986 1.5 15.5528 3.01011 12.8648 5.69814C10.1768 8.38616 8.66667 12.0319 8.66667 15.8333C8.66667 32.5556 1.5 37.3333 1.5 37.3333H44.5C44.5 37.3333 37.3333 32.5556 37.3333 15.8333Z" stroke="#7E7E7E" stroke-width="3" stroke-linecap="round" stroke-linejoin="round"/>
<path d="M27.1327 46.8887C26.7127 47.6127 26.1099 48.2137 25.3846 48.6314C24.6593 49.0492 23.837 49.2691 23 49.2691C22.1629 49.2691 21.3406 49.0492 20.6153 48.6314C19.89 48.2137 19.2872 47.6127 18.8672 46.8887" stroke="#7E7E7E" stroke-width="3" stroke-linecap="round" stroke-linejoin="round"/>
</svg>
