<svg width="42" height="43" viewBox="0 0 42 43" fill="none" xmlns="http://www.w3.org/2000/svg">
<path d="M20.7249 27.9888L20.8217 22.44L21.4541 22.4115C21.7788 22.3945 22.1605 22.3774 22.5479 22.3603C26.9345 22.1723 31.7199 21.9729 33.577 17.6034C33.7707 17.1476 33.9189 16.6691 34.0157 16.1735C34.1125 15.6778 34.1638 15.1651 34.1638 14.6296C34.1638 14.0941 34.1125 13.6099 34.0214 13.137C33.9245 12.6528 33.7764 12.1913 33.5827 11.7413C33.3833 11.2855 33.1555 10.864 32.882 10.4652C32.62 10.0778 32.3123 9.70749 31.9648 9.35998C31.623 9.01817 31.2527 8.71054 30.8539 8.44278C30.4551 8.17503 30.0222 7.94146 29.555 7.74207C29.0936 7.54267 28.6207 7.39456 28.1365 7.29771C27.658 7.20086 27.1566 7.15529 26.6382 7.15529C25.6128 7.15529 24.6386 7.34898 23.7214 7.74207C23.2543 7.94146 22.8213 8.17503 22.4225 8.44278C22.0238 8.71054 21.6535 9.01247 21.3116 9.35428C20.9641 9.70749 20.6565 10.0721 20.3944 10.4652C20.1267 10.864 19.8931 11.2912 19.6937 11.7413C19.5 12.1913 19.3519 12.6528 19.2551 13.137C19.1582 13.6099 19.1126 14.1055 19.1126 14.6296V43.0001L12.1112 37.3431L12.0713 14.7435V14.6296C12.0713 13.644 12.1681 12.6756 12.3618 11.7299C12.5555 10.7842 12.8404 9.867 13.2164 8.98399C13.5981 8.09527 14.0424 7.26922 14.5608 6.49445C15.0793 5.71967 15.6603 5.00186 16.3155 4.33533C16.9706 3.66879 17.6827 3.07632 18.4518 2.54651C19.2209 2.02239 20.0469 1.56095 20.93 1.17356C21.8187 0.78617 22.7416 0.489932 23.6986 0.296238C24.6557 0.0968468 25.6413 0 26.6439 0C27.6466 0 28.6037 0.0968468 29.555 0.296238C30.5064 0.489932 31.4293 0.78617 32.3294 1.17356C33.2238 1.56095 34.0613 2.02239 34.836 2.54081C35.6165 3.07062 36.34 3.6631 37.0009 4.32393C37.656 4.97908 38.2485 5.69688 38.784 6.48305C39.3138 7.26353 39.7696 8.08958 40.1569 8.9669C40.5443 9.85561 40.8406 10.7728 41.0343 11.7185C41.228 12.6642 41.3305 13.6326 41.3305 14.6239C41.3305 15.6152 41.2337 16.6121 41.0343 17.5692C40.8406 18.5263 40.5443 19.4492 40.1569 20.3379C39.7696 21.2152 39.3195 22.0469 38.7954 22.8274C38.2713 23.6136 37.6731 24.3314 36.9895 24.9865C35.2576 26.65 32.9846 27.6641 30.5292 28.2281C27.5156 28.9231 24.2227 28.9402 21.3401 28.661L20.7249 28.5984L20.7363 27.9774L20.7249 27.9888Z" fill="#009ACA"/>
<path fill-rule="evenodd" clip-rule="evenodd" d="M7.36037 20.7313L7.3148 32.7118L0 26.5193C2.45536 24.5197 4.91071 22.5201 7.36607 20.5205V20.7313H7.36037Z" fill="#009ACA"/>
<path fill-rule="evenodd" clip-rule="evenodd" d="M21.403 19.8252H21.4258C23.4482 19.8707 27.3677 20.0417 28.9343 19.0048C30.9168 17.6888 31.4523 15.5468 30.9054 13.4731C30.6548 12.5218 30.0281 11.9635 29.88 11.6501C29.3502 11.126 28.8318 10.75 28.245 10.4823C27.0429 9.93538 25.7668 9.85562 24.5306 10.3342C23.5963 10.6988 22.6905 11.3596 22.0923 12.2939C21.3461 13.4504 21.3461 14.7151 21.3631 16.0367C21.3745 17.2958 21.4258 18.5776 21.403 19.8195V19.8252Z" fill="#29CFCF"/>
</svg>
