<svg width="14" height="20" viewBox="0 0 14 20" fill="none" xmlns="http://www.w3.org/2000/svg">
<path d="M7.4685 3.75981L7.45775 3.75958H7.447C6.80742 3.75958 6.12444 3.84507 5.57114 4.16979C4.93145 4.54521 4.57489 5.17631 4.57489 5.94707V5.94832C4.57489 6.5875 4.86437 7.08878 5.25145 7.45318C5.60989 7.79062 6.06704 8.02809 6.49636 8.21266C6.93447 8.401 7.43418 8.57091 7.92009 8.73535C7.93838 8.74154 7.95667 8.74773 7.97497 8.75392C8.45607 8.91669 8.93883 9.08002 9.41895 9.27034C10.4224 9.66811 11.3118 10.1462 11.9509 10.8343C12.5615 11.4918 13 12.4012 13 13.7982C13 15.4759 12.3438 16.7298 11.2354 17.5898C10.0982 18.4721 8.40231 18.9996 6.26336 19C4.54196 18.9916 2.83814 18.6737 1.23354 18.0636V15.0851C2.87451 15.7751 4.7059 16.2513 6.26045 16.2513C6.92797 16.2513 7.66579 16.1722 8.26662 15.8394C8.58465 15.6632 8.87603 15.4093 9.08244 15.0568C9.2885 14.7049 9.37614 14.3123 9.37614 13.9101C9.37614 12.5977 8.28831 11.9264 7.49408 11.5517C7.05316 11.3437 6.55362 11.1587 6.06473 10.9826C5.9777 10.9513 5.89078 10.9201 5.80393 10.889C5.38888 10.7403 4.97546 10.5922 4.56025 10.4257C3.55037 10.0208 2.66059 9.55542 2.02346 8.90441C1.41971 8.28751 1 7.4611 1 6.20644C1 4.54628 1.62742 3.28671 2.6848 2.42251C3.76491 1.53974 5.3818 1.0009 7.447 1.0009V1.00096L7.45808 1.00084C8.9804 0.983957 10.493 1.22243 11.9327 1.70464V4.62808C10.5091 4.08772 8.99938 3.79274 7.4685 3.75981Z" stroke="#0096C2" stroke-width="2"/>
</svg>
