<svg width="38" height="29" viewBox="0 0 38 29" fill="none" xmlns="http://www.w3.org/2000/svg">
<path d="M31.913 24.7761C33.8996 24.7761 37 24.7761 37 24.7761V14.7015M31.913 24.7761C31.6973 22.8941 30.2314 21.5522 28.3913 21.5522C26.5512 21.5522 25.0853 22.8941 24.8696 24.7761M31.913 24.7761C31.6973 26.6581 30.2314 28 28.3913 28C26.5512 28 25.0853 26.6581 24.8696 24.7761M37 14.7015L30.7391 5.83582M37 14.7015H26.0435L24.8696 13.4925V5.83582H30.7391M30.7391 5.83582L31.5217 5.43284L27.2174 1H1V5.83582M6.08696 24.7761C4.10038 24.7761 1 24.7761 1 24.7761V5.83582M6.08696 24.7761C6.30269 22.8941 7.76857 21.5522 9.6087 21.5522C11.4488 21.5522 12.9147 22.8941 13.1304 24.7761M6.08696 24.7761C6.30269 26.6581 7.76857 28 9.6087 28C11.4488 28 12.9147 26.6581 13.1304 24.7761M13.1304 24.7761C17.7149 24.7761 20.2852 24.7761 24.8696 24.7761M1 5.83582H20.663" stroke="#0096C2" stroke-width="2" stroke-linecap="round" stroke-linejoin="round"/>
</svg>
