<svg width="31" height="26" viewBox="0 0 31 26" fill="none" xmlns="http://www.w3.org/2000/svg">
<path d="M28.2109 18.54V11.7387L26.4217 9.6736M2.08949 18.54V4.22162L4.95211 0.999988H11.0352M9.24603 21.4036C11.7614 21.4036 15.6869 21.4036 15.6869 21.4036M9.24603 21.4036C9.34904 19.0335 7.32134 17.0051 4.95211 17.1081C2.67945 17.207 0.809211 19.1374 1.01601 21.4036C1.20486 23.4732 2.87665 24.8937 4.95211 24.9832C7.1329 25.0772 8.94524 23.5664 9.24603 21.4036ZM22.1278 21.4036C19.6125 21.4036 15.6869 21.4036 15.6869 21.4036M22.1278 21.4036C22.3254 19.229 24.2479 17.6263 26.4217 17.824C28.3898 18.003 30 19.4267 30 21.4036C30 23.3806 28.3898 24.8042 26.4217 24.9832C24.2479 25.1809 22.3254 23.5783 22.1278 21.4036ZM15.6869 21.4036L11.0352 8.87508M11.0352 8.87508V0.999988M11.0352 8.87508L26.4217 9.6736M11.0352 0.999988H18.9074L26.4217 9.6736" stroke="#0096C2" stroke-width="2" stroke-linecap="round" stroke-linejoin="round"/>
</svg>
