<svg width="24" height="22" viewBox="0 0 24 22" fill="none" xmlns="http://www.w3.org/2000/svg">
<path d="M1.50386 4.71208C1.19229 4.89012 1 5.22147 1 5.58032V19.2768C1 20.0446 1.82948 20.526 2.49614 20.1451L7.53533 17.2655C7.82563 17.0996 8.17963 17.0898 8.47868 17.2393L15.5213 20.7607C15.8204 20.9102 16.1744 20.9004 16.4647 20.7345L22.4961 17.2879C22.8077 17.1099 23 16.7785 23 16.4197V2.72318C23 1.95536 22.1705 1.47399 21.5039 1.85494L16.4647 4.73447C16.1744 4.90036 15.8204 4.91019 15.5213 4.76066L8.47868 1.23934C8.17963 1.08981 7.82563 1.09964 7.53533 1.26553L1.50386 4.71208Z" stroke="#0096C2" stroke-width="2" stroke-linecap="round" stroke-linejoin="round"/>
<path d="M8 1V17" stroke="#0096C2" stroke-width="2" stroke-linecap="round" stroke-linejoin="round"/>
<path d="M16 5V21" stroke="#0096C2" stroke-width="2" stroke-linecap="round" stroke-linejoin="round"/>
</svg>
