<svg width="113" height="430" viewBox="0 0 113 430" fill="none" xmlns="http://www.w3.org/2000/svg">
<path d="M73.6488 427.998L86.4464 367.209C86.4693 367.1 86.5103 366.996 86.5676 366.901L105.947 334.602C113.521 321.978 112.393 305.965 103.125 294.527L36.8534 212.746C25.0785 198.215 21.2173 178.816 26.5305 160.884V160.884C26.5741 160.737 26.5769 160.581 26.5385 160.432L18.0865 127.681C18.0573 127.567 18.0481 127.45 18.0595 127.333L26.582 39.9779C26.592 39.8747 26.586 39.7706 26.5641 39.6693L18.5907 2.79232C18.3972 1.89744 17.2031 1.71066 16.7456 2.50369L2.00198 28.0593" stroke="#17BEBF" stroke-width="4" stroke-linecap="round"/>
</svg>
