<svg width="30" height="43" viewBox="0 0 30 43" fill="none" xmlns="http://www.w3.org/2000/svg">
<path d="M8.65357 27.9888L8.75041 22.44L9.38277 22.4115C9.70749 22.3945 10.0892 22.3774 10.4766 22.3603C14.8632 22.1723 19.6486 21.9729 21.5057 17.6034C21.6994 17.1476 21.8476 16.6691 21.9444 16.1735C22.0412 15.6778 22.0925 15.1651 22.0925 14.6296C22.0925 14.0941 22.0412 13.6099 21.9501 13.137C21.8532 12.6528 21.7051 12.1913 21.5114 11.7413C21.312 11.2855 21.0842 10.864 20.8107 10.4652C20.5487 10.0778 20.241 9.70749 19.8935 9.35998C19.5517 9.01817 19.1814 8.71054 18.7826 8.44278C18.3838 8.17503 17.9509 7.94146 17.4837 7.74207C17.0223 7.54267 16.5494 7.39456 16.0652 7.29771C15.5867 7.20086 15.0854 7.15529 14.5669 7.15529C13.5415 7.15529 12.5673 7.34898 11.6501 7.74207C11.183 7.94146 10.75 8.17503 10.3512 8.44278C9.95246 8.71054 9.58216 9.01247 9.24035 9.35428C8.89284 9.70749 8.5852 10.0721 8.32315 10.4652C8.05539 10.864 7.82182 11.2912 7.62243 11.7413C7.42874 12.1913 7.28062 12.6528 7.18377 13.137C7.08692 13.6099 7.04135 14.1055 7.04135 14.6296V43.0001L0.039878 37.3431L0 14.7435V14.6296C0 13.644 0.0968472 12.6756 0.290541 11.7299C0.484235 10.7842 0.76908 9.867 1.14507 8.98399C1.52677 8.09527 1.97112 7.26922 2.48954 6.49445C3.00796 5.71967 3.58904 5.00186 4.24418 4.33533C4.89932 3.66879 5.61143 3.07632 6.38051 2.54651C7.14959 2.02239 7.97564 1.56095 8.85866 1.17356C9.74737 0.78617 10.6703 0.489932 11.6273 0.296238C12.5844 0.0968468 13.57 0 14.5726 0C15.5753 0 16.5324 0.0968468 17.4837 0.296238C18.4351 0.489932 19.358 0.78617 20.2581 1.17356C21.1525 1.56095 21.99 2.02239 22.7648 2.54081C23.5452 3.07062 24.2687 3.6631 24.9296 4.32393C25.5847 4.97908 26.1772 5.69688 26.7127 6.48305C27.2425 7.26353 27.6983 8.08958 28.0856 8.9669C28.473 9.85561 28.7693 10.7728 28.963 11.7185C29.1567 12.6642 29.2592 13.6326 29.2592 14.6239C29.2592 15.6152 29.1624 16.6121 28.963 17.5692C28.7693 18.5263 28.473 19.4492 28.0856 20.3379C27.6983 21.2152 27.2482 22.0469 26.7241 22.8274C26.2 23.6136 25.6018 24.3314 24.9182 24.9865C23.1863 26.65 20.9133 27.6641 18.4579 28.2281C15.4443 28.9231 12.1515 28.9402 9.26883 28.661L8.65357 28.5984L8.66496 27.9774L8.65357 27.9888Z" fill="#009ACA"/>
</svg>
