<svg width="24" height="22" viewBox="0 0 24 22" fill="none" xmlns="http://www.w3.org/2000/svg">
<path d="M7 18V19C7 19.5304 6.78929 20.0391 6.41421 20.4142C6.03914 20.7893 5.53043 21 5 21H4C3.46957 21 2.96086 20.7893 2.58579 20.4142C2.21071 20.0391 2 19.5304 2 19V17.2261C1.39157 16.6821 1 15.8922 1 15V10C1 9.40849 1.17486 8.83018 1.5026 8.33777C1.73911 7.98243 2.04761 7.68327 2.40609 7.45845L3.64697 3.73581C3.64704 3.73561 3.64711 3.73541 3.64717 3.73521C3.91194 2.93844 4.42101 2.24533 5.10209 1.75433C5.78321 1.2633 6.60173 0.999362 7.44138 1M7 18L7.44189 1C7.44172 1 7.44155 1 7.44138 1M7 18H17V19C17 19.5304 17.2107 20.0391 17.5858 20.4142C17.9609 20.7893 18.4696 21 19 21H20C20.5304 21 21.0391 20.7893 21.4142 20.4142C21.7893 20.0391 22 19.5304 22 19V17.2283C22.2351 17.0187 22.4366 16.7723 22.596 16.4976C22.8598 16.0431 22.9991 15.5271 23 15.0016V15V10C23 9.40849 22.8251 8.83018 22.4974 8.33777C22.2609 7.98243 21.9524 7.68327 21.5939 7.45845L20.353 3.73581L7 18ZM7.44138 1H16.5586H7.44138Z" stroke="#0096C2" stroke-width="2"/>
</svg>
