<svg width="24" height="24" viewBox="0 0 24 24" fill="none" xmlns="http://www.w3.org/2000/svg">
<path fill-rule="evenodd" clip-rule="evenodd" d="M12 22C14.1039 22 16.056 21.3503 17.6667 20.2406V18.8333C17.6667 18.2145 17.4208 17.621 16.9832 17.1834C16.5457 16.7458 15.9522 16.5 15.3333 16.5H8.66667C8.04783 16.5 7.45434 16.7458 7.01675 17.1834C6.57917 17.621 6.33333 18.2145 6.33333 18.8333V20.2406C7.94402 21.3503 9.89614 22 12 22ZM18.3975 15.7692C19.1173 16.4891 19.5578 17.4362 19.649 18.4419C21.116 16.7018 22 14.4541 22 12C22 6.47715 17.5228 2 12 2C6.47715 2 2 6.47715 2 12C2 14.4541 2.88404 16.7018 4.35104 18.4419C4.44223 17.4362 4.88267 16.4891 5.60254 15.7692C6.41519 14.9565 7.5174 14.5 8.66667 14.5H15.3333C16.4826 14.5 17.5848 14.9565 18.3975 15.7692ZM12 24C18.6274 24 24 18.6274 24 12C24 5.37258 18.6274 0 12 0C5.37258 0 0 5.37258 0 12C0 18.6274 5.37258 24 12 24ZM9.66667 8.83333C9.66667 7.54467 10.7113 6.5 12 6.5C13.2887 6.5 14.3333 7.54467 14.3333 8.83333C14.3333 10.122 13.2887 11.1667 12 11.1667C10.7113 11.1667 9.66667 10.122 9.66667 8.83333ZM12 4.5C9.60677 4.5 7.66667 6.4401 7.66667 8.83333C7.66667 11.2266 9.60677 13.1667 12 13.1667C14.3932 13.1667 16.3333 11.2266 16.3333 8.83333C16.3333 6.4401 14.3932 4.5 12 4.5Z" fill="#009ACA"/>
</svg>
