<svg width="26" height="23" viewBox="0 0 26 23" fill="none" xmlns="http://www.w3.org/2000/svg">
<path d="M3.89655 12.2241C3.17241 6.43103 8.24138 1 14.5 1C20.299 1 25 5.70101 25 11.5C25 17.299 20.299 22 14.5 22C10.9319 22 7.77945 20.2202 5.88203 17.5M3.89655 12.2241L1 10M3.89655 12.2241L7 10.75" stroke="#7E7E7E" stroke-width="2" stroke-linecap="round" stroke-linejoin="round"/>
<path d="M14.559 12.9658L16.9921 8.35303H18.5128L16.0188 12.9658H14.559ZM14.559 13.7768V12.9658L15.0659 12.5704H20.1754V13.7768H14.559ZM17.9248 15.48V10.9382H19.2832V15.48H17.9248Z" fill="#7E7E7E"/>
<path d="M8.96545 14.6889L11.652 11.8807C11.8412 11.678 11.9933 11.4989 12.1082 11.3434C12.2299 11.1812 12.3177 11.0291 12.3718 10.8872C12.4259 10.7385 12.4529 10.5898 12.4529 10.4411C12.4529 10.1438 12.3549 9.91059 12.1589 9.74162C11.9697 9.57266 11.723 9.48818 11.4188 9.48818C11.1079 9.48818 10.8308 9.56928 10.5875 9.73149C10.351 9.89369 10.1279 10.1505 9.91842 10.502L8.97559 9.70107C9.25945 9.22121 9.6109 8.85962 10.0299 8.61631C10.4557 8.36625 10.9424 8.24121 11.4898 8.24121C11.9561 8.24121 12.3617 8.33245 12.7064 8.51494C13.0578 8.69742 13.3281 8.95087 13.5174 9.27528C13.7066 9.59969 13.8012 9.97818 13.8012 10.4107C13.8012 10.7013 13.7641 10.9649 13.6897 11.2015C13.6221 11.438 13.5039 11.6746 13.3349 11.9111C13.1727 12.1409 12.9463 12.4011 12.6557 12.6918L10.699 14.6889H8.96545ZM8.96545 15.4797V14.6889L10.1415 14.2834H13.9533V15.4797H8.96545Z" fill="#7E7E7E"/>
</svg>
