<svg width="52" height="29" viewBox="0 0 52 29" fill="none" xmlns="http://www.w3.org/2000/svg">
<path d="M44.8017 23.0874C47.2223 23.0874 51 23.0874 51 23.0874V13.2708M44.8017 23.0874C44.0408 21.0495 42.4493 19.9038 40.2562 19.8152C37.9308 19.7212 36.1043 20.9265 35.2975 23.0874M44.8017 23.0874C44.9158 25.6852 42.8807 27.8828 40.2562 27.9957C37.5202 28.1134 35.1786 25.7956 35.2975 23.0874M35.2975 23.0874C33.6031 23.0874 30.9587 23.0874 30.9587 23.0874C30.9587 23.0874 26.8032 23.0874 24.1405 23.0874M24.1405 23.0874C23.4642 21.0205 21.79 19.8152 19.595 19.8152C17.4001 19.8152 15.7259 21.0205 15.0496 23.0874M24.1405 23.0874C24.3685 25.6779 22.222 27.9957 19.595 27.9957C16.9681 27.9957 14.8216 25.6779 15.0496 23.0874M51 13.2708H37.7769L35.2975 11.2256V4.27221H44.3333M51 13.2708L44.3333 4.27221M44.3333 4.27221L41.9091 1H30.9587H21.2479V12.0437H1V17.361V23.0874C1 23.0874 9.56288 23.0874 15.0496 23.0874M25.3802 4.27221H30.9587V12.0437H25.3802V4.27221Z" stroke="#7A7A7A" stroke-width="2" stroke-linecap="round" stroke-linejoin="round"/>
</svg>
