<svg width="25" height="23" viewBox="0 0 25 23" fill="none" xmlns="http://www.w3.org/2000/svg">
<path d="M21.7 5.6001H3.3C2.02974 5.6001 1 6.62984 1 7.9001V19.4001C1 20.6704 2.02974 21.7001 3.3 21.7001H21.7C22.9703 21.7001 24 20.6704 24 19.4001V7.9001C24 6.62984 22.9703 5.6001 21.7 5.6001Z" stroke="#0096C2" stroke-width="2" stroke-linecap="round" stroke-linejoin="round"/>
<path d="M17.1004 21.7V3.3C17.1004 2.69 16.8581 2.10499 16.4267 1.67365C15.9954 1.24232 15.4104 1 14.8004 1H10.2004C9.59039 1 9.00538 1.24232 8.57405 1.67365C8.14271 2.10499 7.90039 2.69 7.90039 3.3V21.7" stroke="#0096C2" stroke-width="2" stroke-linecap="round" stroke-linejoin="round"/>
</svg>
