<svg width="19" height="22" viewBox="0 0 19 22" fill="none" xmlns="http://www.w3.org/2000/svg">
<g clip-path="url(#clip0_44_1165)">
<rect width="19" height="22" fill="#D3D3D3"/>
<path d="M7.17413 4.11012L7.17647 4.10902C7.42663 3.9921 7.69934 3.93184 7.9749 3.93191C7.97492 3.93191 7.97495 3.93191 7.97498 3.93191C7.97515 3.93191 7.97532 3.93191 7.9755 3.93191L13.4165 3.93191C14.1018 3.93191 14.7559 3.97557 15.3664 4.07197C15.5394 4.09907 15.7116 4.13139 15.8826 4.16891M7.17413 4.11012L15.3727 2.3792C15.7458 2.79655 15.962 3.2038 16.0709 3.65819C16.1127 3.83291 16.1406 4.02286 16.1528 4.23254C16.0631 4.20973 15.9731 4.18852 15.8826 4.16891M7.17413 4.11012C6.90232 4.23801 6.66427 4.42973 6.48168 4.67037C6.29901 4.91112 6.17761 5.19333 6.12945 5.49297L6.12944 5.49302M7.17413 4.11012L6.12944 5.49302M15.8826 4.16891C15.8822 4.16881 15.8817 4.1687 15.8812 4.1686L15.6695 5.14594M15.8826 4.16891C15.8831 4.169 15.8835 4.1691 15.8839 4.1692L15.6695 5.14594M7.59987 5.01496C7.71702 4.96021 7.84515 4.93184 7.9749 4.93191H13.4165C14.0608 4.93191 14.6619 4.97307 15.2111 5.05983C15.3648 5.08389 15.5177 5.1126 15.6695 5.14594M7.59987 5.01496L15.6695 5.14594M7.59987 5.01496C7.47282 5.07474 7.36248 5.16392 7.27832 5.27483L7.59987 5.01496ZM6.12944 5.49302L4.03189 18.5488H1.07503L3.88461 1.05957H10.8229C13.1451 1.05957 14.6348 1.55424 15.3726 2.37914L6.12944 5.49302Z" stroke="#323232" stroke-width="2"/>
<path d="M17.6327 7.53124C17.9532 8.17232 18.0296 9.06028 17.7906 10.2666L17.6327 7.53124ZM17.6327 7.53124C17.0397 9.37117 16.039 10.743 14.6942 11.6817C13.071 12.8147 11.0618 13.236 8.94106 13.236H6.91125L5.66649 20.9812H8.6089L8.62357 20.9059L9.30177 16.6871L9.30382 16.6743L9.3062 16.6616L9.34817 16.4376C9.42189 16.0031 9.64874 15.6116 9.98415 15.3303L10.6268 16.0965L9.98415 15.3303C10.323 15.0461 10.7509 14.8921 11.1907 14.892H11.1911H11.7317C13.3608 14.892 14.6944 14.5656 15.6912 13.8699C16.6647 13.1904 17.4309 12.0791 17.7906 10.2668L17.6327 7.53124ZM5.57532 21.5485L5.57538 21.5481C5.57536 21.5482 5.57534 21.5484 5.57532 21.5485Z" stroke="#323232" stroke-width="2"/>
</g>
<defs>
<clipPath id="clip0_44_1165">
<rect width="19" height="22" fill="white"/>
</clipPath>
</defs>
</svg>
