<svg width="18" height="21" viewBox="0 0 18 21" fill="none" xmlns="http://www.w3.org/2000/svg">
<path d="M18 7.44448V18.4663C18 19.5709 17.1046 20.4663 16 20.4663H13.5C12.9477 20.4663 12.5 20.0186 12.5 19.4663V11.4663C12.5 10.914 12.0523 10.4663 11.5 10.4663H7C6.44772 10.4663 6 10.914 6 11.4663V19.4663C6 20.0186 5.55228 20.4663 5 20.4663H2C0.895431 20.4663 0 19.5709 0 18.4663V7.44448C0 6.8273 0.284945 6.24468 0.772118 5.86577L7.77212 0.421327C8.49434 -0.1404 9.50566 -0.140401 10.2279 0.421326L17.2279 5.86577C17.7151 6.24468 18 6.8273 18 7.44448Z" fill="#0096C2"/>
</svg>
