<svg width="128" height="180" viewBox="0 0 128 180" fill="none" xmlns="http://www.w3.org/2000/svg">
<g opacity="0.1">
<path d="M0.500002 27.0368C0.500002 47.6765 25.5 65.3676 25.5 65.3676C25.5 65.3676 50.5 47.6765 50.5 27.0368C50.5 19.9988 47.8661 13.249 43.1777 8.27243C38.4893 3.29583 32.1304 0.5 25.5 0.5C18.8696 0.5 12.5107 3.29583 7.82233 8.27243C3.13393 13.249 0.500002 19.9988 0.500002 27.0368Z" stroke="white" stroke-linecap="round" stroke-linejoin="round"/>
<circle cx="11.0709" cy="11.0709" r="11.0709" transform="matrix(-1 0 0 1 36.6616 14.3384)" stroke="white"/>
</g>
<g opacity="0.1">
<path d="M36.5 85.0368C36.5 105.676 61.5 123.368 61.5 123.368C61.5 123.368 86.5 105.676 86.5 85.0368C86.5 77.9988 83.8661 71.249 79.1777 66.2724C74.4893 61.2958 68.1304 58.5 61.5 58.5C54.8696 58.5 48.5107 61.2958 43.8223 66.2724C39.1339 71.249 36.5 77.9988 36.5 85.0368Z" stroke="white" stroke-linecap="round" stroke-linejoin="round"/>
<circle cx="11.0709" cy="11.0709" r="11.0709" transform="matrix(-1 0 0 1 72.6616 72.3384)" stroke="white"/>
</g>
<g opacity="0.1">
<path d="M77.5 141.037C77.5 161.676 102.5 179.368 102.5 179.368C102.5 179.368 127.5 161.676 127.5 141.037C127.5 133.999 124.866 127.249 120.178 122.272C115.489 117.296 109.13 114.5 102.5 114.5C95.8696 114.5 89.5107 117.296 84.8223 122.272C80.1339 127.249 77.5 133.999 77.5 141.037Z" stroke="white" stroke-linecap="round" stroke-linejoin="round"/>
<circle cx="11.0709" cy="11.0709" r="11.0709" transform="matrix(-1 0 0 1 113.662 128.338)" stroke="white"/>
</g>
</svg>
