<svg width="65" height="24" viewBox="0 0 65 24" fill="none" xmlns="http://www.w3.org/2000/svg">
<path d="M61.0747 20.768C62.2166 20.768 63.9987 20.768 63.9987 20.768V13.529M61.0747 20.768C61.1519 19.2324 59.8826 17.903 58.4165 17.9838C57.0219 18.0607 55.9508 19.3072 56.0242 20.768M61.0747 20.768C60.8506 22.1405 59.7441 23.0676 58.4165 22.9954C57.1682 22.9275 56.2349 22.0586 56.0242 20.768M63.9987 13.529L61.8722 8.79582M63.9987 13.529H57.8849L56.5558 12.4153V8.79582H61.8722M61.8722 8.79582L62.4038 8.23898L60.0114 5.45475H53.1002V20.768M53.1002 20.768C53.1002 20.768 54.8823 20.768 56.0242 20.768M53.1002 20.768H44.0624C44.0624 20.768 43.9479 19.3236 43.5308 18.5406C42.9931 17.5313 41.4042 16.5917 41.4042 16.5917M53.1002 16.5917H51.2395M51.2395 16.5917V13.2506M51.2395 16.5917H41.4042M51.2395 13.2506V0.99998H0.99998V13.2506M51.2395 13.2506H0.99998M0.99998 13.2506V16.5917H41.4042M37.6828 20.768C32.5962 20.768 29.7443 20.768 24.6577 20.768M37.6828 20.768C37.5362 19.3133 38.6785 17.9838 40.0751 17.9838C41.4717 17.9838 42.6227 19.3142 42.4675 20.768C42.3286 22.0692 41.3252 22.9954 40.0751 22.9954C38.8251 22.9954 37.8293 22.0683 37.6828 20.768ZM24.6577 20.768C24.7349 19.2324 23.4656 17.903 21.9996 17.9838C20.6049 18.0607 19.452 19.3142 19.6072 20.768C19.7461 22.0692 20.7512 22.9275 21.9996 22.9954C23.3272 23.0676 24.4336 22.1405 24.6577 20.768ZM18.2781 20.768C18.2781 19.0975 17.2151 17.9838 15.8858 17.9838C14.5564 17.9838 13.4934 19.3759 13.4934 20.768C13.4934 21.9982 14.7113 22.9954 15.8858 22.9954C17.0602 22.9954 18.2781 21.9982 18.2781 20.768ZM12.4301 20.768C12.5769 19.3841 11.6307 18.0646 10.3036 17.9838C8.90935 17.8989 7.75606 19.3142 7.91123 20.768C8.05012 22.0692 9.05573 23.0723 10.3036 22.9954C11.476 22.9232 12.3004 21.9906 12.4301 20.768Z" stroke="#7A7A7A" stroke-width="2" stroke-linecap="round" stroke-linejoin="round"/>
</svg>
