<svg width="40" height="29" viewBox="0 0 40 29" fill="none" xmlns="http://www.w3.org/2000/svg">
<path d="M34.0968 24.6576C36.0116 24.6576 39 24.6576 39 24.6576V19.8846M34.0968 24.6576C33.8714 22.489 32.1575 20.9222 30.0108 20.9222C27.864 20.9222 26.1501 22.489 25.9247 24.6576M34.0968 24.6576C33.6482 26.6827 32.0542 27.978 30.0108 27.978C27.9673 27.978 26.3733 26.6827 25.9247 24.6576M34.914 6.39559L39 15.1116V19.8846M34.914 6.39559L35.7312 5.98055L30.828 1H1V5.98055M34.914 6.39559L30.0108 6.33559M5.90323 24.6576C3.9884 24.6576 1 24.6576 1 24.6576V16.7717M5.90323 24.6576C6.10532 22.6048 7.55974 21.1275 9.58065 20.9222C11.8373 20.693 13.8496 22.3654 14.0753 24.6576M5.90323 24.6576C6.31384 26.5643 7.66837 27.7873 9.58065 27.978C11.7406 28.1933 13.6115 26.8113 14.0753 24.6576M14.0753 24.6576C18.7028 24.6576 21.2972 24.6576 25.9247 24.6576M1 5.98055V16.7717M1 5.98055L10.3978 6.09556M39 19.8846L30.0108 16.7717M30.0108 16.7717V6.33559M30.0108 16.7717H19.7957M1 16.7717H10.3978M30.0108 6.33559L19.7957 6.21057M19.7957 16.7717V6.21057M19.7957 16.7717H10.3978M19.7957 6.21057L10.3978 6.09556M10.3978 6.09556V16.7717" stroke="#0096C2" stroke-width="2" stroke-linecap="round" stroke-linejoin="round"/>
</svg>
