<svg width="46" height="46" viewBox="0 0 46 46" fill="none" xmlns="http://www.w3.org/2000/svg">
<circle cx="23" cy="23" r="23" fill="#D3D3D3"/>
<path d="M32.5556 32.8748V30.5554C32.5556 29.3251 32.0668 28.1452 31.1969 27.2752C30.3269 26.4052 29.147 25.9165 27.9167 25.9165H18.6389C17.4086 25.9165 16.2287 26.4052 15.3587 27.2752C14.4887 28.1452 14 29.3251 14 30.5554V32.8748" stroke="#7E7E7E" stroke-width="2" stroke-linecap="round" stroke-linejoin="round"/>
<path d="M23.2778 21.2778C25.8398 21.2778 27.9167 19.2009 27.9167 16.6389C27.9167 14.0769 25.8398 12 23.2778 12C20.7158 12 18.6389 14.0769 18.6389 16.6389C18.6389 19.2009 20.7158 21.2778 23.2778 21.2778Z" stroke="#7E7E7E" stroke-width="2" stroke-linecap="round" stroke-linejoin="round"/>
</svg>
