<svg width="38" height="27" viewBox="0 0 38 27" fill="none" xmlns="http://www.w3.org/2000/svg">
<path d="M31.2461 19.3401L25.5053 4.51192M25.5053 4.51192V0.999982H20.5299M25.5053 4.51192L20.5299 8.41408H13.6408L9.04818 5.68257H1.39373V8.02386L7.51729 11.1456L12.11 11.5358L15.5545 17.389M15.5545 17.389H20.5299C20.5299 17.389 21.2981 13.442 22.8262 11.5358C24.4004 9.57205 25.7572 8.57943 28.1843 8.02386C30.8455 7.41472 35.0733 9.19451 35.0733 9.19451M15.5545 17.389C15.5545 17.389 12.9453 17.007 11.3445 17.389C9.71744 17.7773 7.51729 19.3401 7.51729 19.3401M31.2461 25.9738C34.628 25.7583 37.1983 22.7883 36.9869 19.3401C36.7892 16.1138 34.4105 13.6885 31.2461 13.4869C27.8641 13.2714 24.9512 15.892 24.7398 19.3401C24.5157 22.9967 27.6598 26.2023 31.2461 25.9738ZM7.51729 13.4869C4.14463 13.1527 1.22237 15.892 1.011 19.3401C0.786858 22.9967 3.94067 26.3267 7.51729 25.9738C10.7936 25.6505 13.0794 22.6897 12.8754 19.3401C12.6854 16.2194 10.5696 13.7894 7.51729 13.4869Z" stroke="#F9F9F9" stroke-width="2" stroke-linecap="round" stroke-linejoin="round"/>
</svg>
