<svg width="30" height="30" viewBox="0 0 30 30" fill="none" xmlns="http://www.w3.org/2000/svg">
<rect width="30" height="30" fill="#FF0000" fill-opacity="0.01"/>
<path fill-rule="evenodd" clip-rule="evenodd" d="M3.17028 6.46053C2.81063 5.63051 3.65015 4.78752 4.48164 5.14375L26.2868 14.4855C27.0955 14.8319 27.0949 15.9785 26.286 16.3242L4.45463 25.6532C3.62655 26.0071 2.78932 25.1719 3.14117 24.343L6.25332 17.0112C6.40321 16.658 6.74192 16.4218 7.1251 16.4031L27.5696 15.4058L7.09043 14.1336C6.715 14.1103 6.38442 13.8782 6.23487 13.5331L3.17028 6.46053Z" fill="#0D9FCC"/>
<mask id="mask0_44_4416" style="mask-type:luminance" maskUnits="userSpaceOnUse" x="3" y="5" width="25" height="21">
<path fill-rule="evenodd" clip-rule="evenodd" d="M3.17028 6.46053C2.81063 5.63051 3.65015 4.78752 4.48164 5.14375L26.2868 14.4855C27.0955 14.8319 27.0949 15.9785 26.286 16.3242L4.45463 25.6532C3.62655 26.0071 2.78932 25.1719 3.14117 24.343L6.25332 17.0112C6.40321 16.658 6.74192 16.4218 7.1251 16.4031L27.5696 15.4058L7.09043 14.1336C6.715 14.1103 6.38442 13.8782 6.23487 13.5331L3.17028 6.46053Z" fill="white"/>
</mask>
<g mask="url(#mask0_44_4416)">
<rect width="30" height="30" fill="#0D9FCC"/>
</g>
</svg>
