<svg width="66" height="24" viewBox="0 0 66 24" fill="none" xmlns="http://www.w3.org/2000/svg">
<path d="M61.5826 20.7684C62.7342 20.7684 64.5313 20.7684 64.5313 20.7684V13.5293M61.5826 20.7684C61.6604 19.2328 60.3804 17.9033 58.902 17.9841C57.4955 18.061 56.4154 19.3076 56.4894 20.7684M61.5826 20.7684C61.3566 22.141 60.2408 23.0681 58.902 22.9959C57.6431 22.9279 56.7019 22.059 56.4894 20.7684M64.5313 13.5293L62.3868 8.796M64.5313 13.5293H58.3658L57.0255 12.4156V8.796H62.3868M62.3868 8.796L62.9229 8.23914L60.5104 5.45486H53.5407V20.7684M53.5407 20.7684C53.5407 20.7684 55.3379 20.7684 56.4894 20.7684M53.5407 20.7684H44.4265C44.4265 20.7684 44.311 19.324 43.8904 18.541C43.3481 17.5316 41.7458 16.592 41.7458 16.592M53.5407 16.592H51.6642M51.6642 16.592V13.2509M51.6642 16.592H41.7458M51.6642 13.2509V1H1V13.2509M51.6642 13.2509H1M1 13.2509V16.592H41.7458M37.9929 20.7684C32.8633 20.7684 29.9874 20.7684 24.8578 20.7684M37.9929 20.7684C37.8451 19.3137 38.9971 17.9841 40.4055 17.9841C41.8139 17.9841 42.9746 19.3146 42.8181 20.7684C42.678 22.0696 41.6661 22.9959 40.4055 22.9959C39.1449 22.9959 38.1407 22.0687 37.9929 20.7684ZM24.8578 20.7684C24.9356 19.2328 23.6555 17.9033 22.1771 17.9841C20.7707 18.061 19.608 19.3146 19.7645 20.7684C19.9046 22.0696 20.9182 22.9279 22.1771 22.9959C23.5159 23.0681 24.6317 22.141 24.8578 20.7684ZM18.4242 20.7684C18.4242 19.0979 17.3523 17.9841 16.0116 17.9841C14.671 17.9841 13.599 19.3763 13.599 20.7684C13.599 21.9986 14.8272 22.9959 16.0116 22.9959C17.196 22.9959 18.4242 21.9986 18.4242 20.7684ZM12.5268 20.7684C12.6748 19.3845 11.7206 18.065 10.3823 17.9841C8.97624 17.8992 7.8132 19.3146 7.96968 20.7684C8.10974 22.0696 9.12386 23.0727 10.3823 22.9959C11.5646 22.9236 12.396 21.9911 12.5268 20.7684Z" stroke="#0096C2" stroke-width="2" stroke-linecap="round" stroke-linejoin="round"/>
</svg>
