<svg width="37" height="29" viewBox="0 0 37 29" fill="none" xmlns="http://www.w3.org/2000/svg">
<path d="M30.5098 24.84C32.6539 24.84 36 24.84 36 24.84V16.4259M30.5098 24.84C30.3206 23.0082 28.8813 21.6847 27.0784 21.6847C25.2756 21.6847 23.8363 23.0082 23.6471 24.84M30.5098 24.84C30.3206 26.6718 28.8813 27.9953 27.0784 27.9953C25.2756 27.9953 23.8363 26.6718 23.6471 24.84M36 16.4259L29.8235 9.76471M36 16.4259H26.049L24.6765 15.0235V9.76471H29.8235M29.8235 9.76471H36V6.60941M5.11765 24.84C3.50961 24.84 1 24.84 1 24.84V6.60941M5.11765 24.84C5.20729 23.0998 6.50265 21.7763 8.20588 21.6847C10.0062 21.5879 11.5425 23.0006 11.6373 24.84M5.11765 24.84C5.20729 26.5802 6.50265 27.9037 8.20588 27.9953C10.0062 28.0921 11.5425 26.6794 11.6373 24.84M11.6373 24.84C12.7093 24.84 14.3824 24.84 14.3824 24.84M23.6471 24.84C22.843 24.84 21.5882 24.84 21.5882 24.84M21.5882 24.84V9.76471H14.3824V24.84M21.5882 24.84H14.3824M1 6.60941V3.45412H13.3529L19.5294 1H31.8824L36 5.20706V6.60941M1 6.60941H36M10.951 16.0753V9.76471H4.08824V16.0753H10.951Z" stroke="#7A7A7A" stroke-width="2" stroke-linecap="round" stroke-linejoin="round"/>
</svg>
