<svg width="61" height="61" viewBox="0 0 61 61" fill="none" xmlns="http://www.w3.org/2000/svg">
<path fill-rule="evenodd" clip-rule="evenodd" d="M30.5 0C47.3427 0 61 13.6573 61 30.5C61 47.3427 47.3427 61 30.5 61C13.6573 61 0 47.3427 0 30.5C0 13.6573 13.6573 0 30.5 0Z" fill="#7E7E7E"/>
<path d="M31.2109 36.1779L31.2804 32.1777L31.7342 32.1571C31.9673 32.1448 32.2412 32.1325 32.5193 32.1202C35.6676 31.9846 39.1022 31.8409 40.4352 28.6908C40.5742 28.3622 40.6805 28.0172 40.75 27.6599C40.8195 27.3026 40.8563 26.933 40.8563 26.5469C40.8563 26.1608 40.8195 25.8117 40.7541 25.4709C40.6846 25.1218 40.5783 24.7891 40.4393 24.4646C40.2961 24.1361 40.1326 23.8321 39.9363 23.5446C39.7482 23.2654 39.5275 22.9984 39.278 22.7479C39.0327 22.5015 38.7669 22.2797 38.4807 22.0866C38.1945 21.8936 37.8838 21.7252 37.5485 21.5815C37.2173 21.4377 36.8779 21.3309 36.5304 21.2611C36.1869 21.1913 35.8271 21.1585 35.455 21.1585C34.719 21.1585 34.0199 21.2981 33.3616 21.5815C33.0263 21.7252 32.7155 21.8936 32.4293 22.0866C32.1431 22.2797 31.8773 22.4973 31.632 22.7438C31.3826 22.9984 31.1618 23.2613 30.9737 23.5446C30.7815 23.8321 30.6139 24.1402 30.4708 24.4646C30.3318 24.7891 30.2255 25.1218 30.156 25.4709C30.0864 25.8117 30.0537 26.1691 30.0537 26.5469V47L25.0286 42.9217L25 26.629V26.5469C25 25.8364 25.0695 25.1382 25.2085 24.4564C25.3475 23.7746 25.552 23.1134 25.8218 22.4768C26.0958 21.8361 26.4147 21.2406 26.7868 20.682C27.1589 20.1235 27.5759 19.606 28.0461 19.1255C28.5164 18.6449 29.0275 18.2178 29.5794 17.8359C30.1314 17.458 30.7243 17.1253 31.3581 16.8461C31.9959 16.5668 32.6583 16.3532 33.3452 16.2136C34.0321 16.0698 34.7395 16 35.4591 16C36.1787 16 36.8657 16.0698 37.5485 16.2136C38.2313 16.3532 38.8937 16.5668 39.5397 16.8461C40.1817 17.1253 40.7827 17.458 41.3388 17.8317C41.8989 18.2137 42.4182 18.6408 42.8925 19.1172C43.3627 19.5896 43.788 20.107 44.1723 20.6738C44.5526 21.2365 44.8797 21.832 45.1577 22.4645C45.4357 23.1052 45.6484 23.7664 45.7874 24.4482C45.9264 25.13 46 25.8282 46 26.5428C46 27.2574 45.9305 27.9762 45.7874 28.6661C45.6484 29.3561 45.4357 30.0215 45.1577 30.6622C44.8797 31.2946 44.5567 31.8943 44.1805 32.4569C43.8043 33.0237 43.375 33.5412 42.8843 34.0135C41.6414 35.2128 40.0099 35.9438 38.2477 36.3504C36.0847 36.8515 33.7214 36.8638 31.6525 36.6626L31.2109 36.6174L31.219 36.1697L31.2109 36.1779Z" fill="white"/>
<path fill-rule="evenodd" clip-rule="evenodd" d="M21.9954 31.1383L21.9582 39L16 34.9364C18 33.6243 20 32.3121 22 31V31.1383H21.9954Z" fill="white"/>
<path fill-rule="evenodd" clip-rule="evenodd" d="M32.0316 29.9763H32.048C33.5003 30.0041 36.3147 30.1082 37.4397 29.4764C38.8633 28.6743 39.2479 27.3689 38.8552 26.1051C38.6752 25.5253 38.2252 25.1851 38.1188 24.9941C37.7384 24.6747 37.3661 24.4456 36.9447 24.2824C36.0816 23.9491 35.1652 23.9005 34.2775 24.1921C33.6066 24.4143 32.9562 24.817 32.5266 25.3864C31.9907 26.0912 31.9907 26.862 32.003 27.6675C32.0112 28.4348 32.048 29.216 32.0316 29.9728V29.9763Z" fill="#29CFCF"/>
</svg>
