<svg width="41" height="29" viewBox="0 0 41 29" fill="none" xmlns="http://www.w3.org/2000/svg">
<path d="M35.6667 23.2057C37.3589 23.2057 40 23.2057 40 23.2057V17.5454L35.2333 11.8852H27.4333M35.6667 23.2057C35.7863 20.4403 33.6522 18.1011 30.9 17.9808C28.0308 17.8555 25.5753 20.3228 25.7 23.2057M35.6667 23.2057C35.5523 25.8484 33.5301 27.8803 30.9 27.9952C28.1478 28.1154 25.8197 25.9711 25.7 23.2057M27.4333 11.8852L20.9333 2.30622L18.3333 1H13.1333M27.4333 11.8852H13.1333M1 11.8852L3.6 1H13.1333M1 11.8852V23.2057C1 23.2057 3.37696 23.2057 4.9 23.2057M1 11.8852H13.1333M4.9 23.2057C4.6609 20.4482 6.91185 17.9808 9.66667 17.9808C12.4215 17.9808 14.6724 20.4482 14.4333 23.2057M4.9 23.2057C4.9 25.8509 7.03411 27.9952 9.66667 27.9952C12.2992 27.9952 14.4333 25.8509 14.4333 23.2057M14.4333 23.2057C18.8332 23.2057 21.3001 23.2057 25.7 23.2057M13.1333 11.8852V1" stroke="#F9F9F9" stroke-width="2" stroke-linecap="round" stroke-linejoin="round"/>
</svg>
