<svg width="40" height="26" viewBox="0 0 40 26" fill="none" xmlns="http://www.w3.org/2000/svg">
<path d="M29.7822 18.3333V1H1V18.3333H29.7822ZM29.7822 18.3333H39V11.6667L35.0495 7.66667H29.7822V18.3333ZM19.2475 21.6667C19.2475 23.5076 17.7736 25 15.9554 25C14.1373 25 12.6634 23.5076 12.6634 21.6667C12.6634 19.8257 14.1373 18.3333 15.9554 18.3333C17.7736 18.3333 19.2475 19.8257 19.2475 21.6667ZM36.3663 21.6667C36.3663 23.5076 34.8924 25 33.0743 25C31.2561 25 29.7822 23.5076 29.7822 21.6667C29.7822 19.8257 31.2561 18.3333 33.0743 18.3333C34.8924 18.3333 36.3663 19.8257 36.3663 21.6667Z" stroke="#7A7A7A" stroke-width="2" stroke-linecap="round" stroke-linejoin="round"/>
</svg>
