<svg width="19" height="22" viewBox="0 0 19 22" fill="none" xmlns="http://www.w3.org/2000/svg">
<g clip-path="url(#clip0_22_5695)">
<path d="M7.17401 4.10987L7.17634 4.10877C7.42651 3.99186 7.69922 3.93159 7.97477 3.93167C7.9748 3.93167 7.97483 3.93167 7.97486 3.93167C7.97503 3.93167 7.9752 3.93167 7.97537 3.93167L13.4163 3.93167C14.1016 3.93167 14.7558 3.97533 15.3663 4.07173C15.5393 4.09882 15.7115 4.13115 15.8825 4.16866M7.17401 4.10987L15.3725 2.37896C15.7457 2.7963 15.9619 3.20355 16.0707 3.65795C16.1126 3.83267 16.1405 4.02262 16.1527 4.23229C16.063 4.20949 15.9729 4.18827 15.8825 4.16866M7.17401 4.10987C6.90219 4.23776 6.66415 4.42948 6.48156 4.67013C6.29889 4.91088 6.17748 5.19308 6.12933 5.49272L6.12932 5.49278M7.17401 4.10987L6.12932 5.49278M15.8825 4.16866C15.882 4.16856 15.8816 4.16846 15.8811 4.16836L15.6694 5.1457M15.8825 4.16866C15.8829 4.16876 15.8834 4.16886 15.8838 4.16895L15.6694 5.1457M7.59975 5.01472C7.7169 4.95997 7.84502 4.93159 7.97477 4.93167H13.4163C14.0607 4.93167 14.6617 4.97283 15.211 5.05959C15.3646 5.08364 15.5175 5.11236 15.6694 5.1457M7.59975 5.01472L15.6694 5.1457M7.59975 5.01472C7.4727 5.07449 7.36235 5.16367 7.2782 5.27458L7.59975 5.01472ZM6.12932 5.49278L4.03177 18.5486H1.07491L3.88449 1.05933H10.8228C13.1449 1.05933 14.6347 1.554 15.3725 2.3789L6.12932 5.49278Z" stroke="#0096C2" stroke-width="2"/>
<path d="M17.6326 7.53149C17.9531 8.17256 18.0295 9.06053 17.7905 10.2668L17.6326 7.53149ZM17.6326 7.53149C17.0396 9.37141 16.0389 10.7433 14.694 11.682C13.0709 12.815 11.0616 13.2363 8.94094 13.2363H6.91113L5.66636 20.9815H8.60877L8.62345 20.9061L9.30165 16.6873L9.3037 16.6745L9.30608 16.6618L9.34805 16.4379C9.42176 16.0034 9.64862 15.6119 9.98403 15.3306L10.6267 16.0967L9.98403 15.3306C10.3228 15.0464 10.7508 14.8924 11.1906 14.8922H11.191H11.7316C13.3606 14.8922 14.6943 14.5658 15.691 13.8701C16.6645 13.1906 17.4308 12.0794 17.7904 10.267L17.6326 7.53149ZM5.5752 21.5487L5.57526 21.5484C5.57524 21.5485 5.57522 21.5486 5.5752 21.5487Z" stroke="#0096C2" stroke-width="2"/>
</g>
<defs>
<clipPath id="clip0_22_5695">
<rect width="19" height="22" fill="white"/>
</clipPath>
</defs>
</svg>
