<svg width="40" height="40" viewBox="0 0 40 40" fill="none" xmlns="http://www.w3.org/2000/svg">
<path d="M25.4084 10.2983H14.5923V29.7353H25.4084V10.2983Z" fill="#FF5F00"/>
<path d="M15.279 20.0176C15.2772 18.1456 15.7014 16.2979 16.5194 14.6141C17.3374 12.9304 18.5277 11.4548 20.0003 10.2991C18.1767 8.86575 15.9867 7.97437 13.6805 7.72685C11.3743 7.47932 9.04498 7.88564 6.95879 8.89935C4.8726 9.91307 3.1137 11.4933 1.88314 13.4594C0.652576 15.4255 0 17.6981 0 20.0176C0 22.337 0.652576 24.6097 1.88314 26.5758C3.1137 28.5418 4.8726 30.1221 6.95879 31.1358C9.04498 32.1495 11.3743 32.5558 13.6805 32.3083C15.9867 32.0608 18.1767 31.1694 20.0003 29.736C18.5277 28.5803 17.3374 27.1047 16.5194 25.421C15.7014 23.7372 15.2773 21.8895 15.279 20.0176Z" fill="#EB001B"/>
<path d="M40 20.0176C40.0001 22.337 39.3476 24.6096 38.1171 26.5757C36.8866 28.5418 35.1278 30.122 33.0416 31.1357C30.9555 32.1495 28.6262 32.5558 26.32 32.3083C24.0139 32.0608 21.8239 31.1694 20.0004 29.736C21.4716 28.5791 22.661 27.1033 23.4788 25.4198C24.2967 23.7364 24.7216 21.8892 24.7216 20.0176C24.7216 18.1459 24.2967 16.2988 23.4788 14.6153C22.661 12.9318 21.4716 11.456 20.0004 10.2991C21.8239 8.86575 24.0139 7.97437 26.32 7.72685C28.6262 7.47932 30.9555 7.88565 33.0416 8.89937C35.1278 9.9131 36.8866 11.4933 38.1171 13.4594C39.3476 15.4255 40.0001 17.6981 40 20.0176Z" fill="#F79E1B"/>
<path d="M38.8207 27.6771V27.2791H38.9812V27.1981H38.5725V27.2791H38.733V27.6771H38.8207ZM39.6141 27.6771V27.1973H39.4888L39.3447 27.5273L39.2006 27.1973H39.0753V27.6771H39.1637V27.3152L39.2988 27.6272H39.3906L39.5257 27.3144V27.6771H39.6141Z" fill="#F79E1B"/>
</svg>
