<svg width="19" height="22" viewBox="0 0 19 22" fill="none" xmlns="http://www.w3.org/2000/svg">
<mask id="path-1-inside-1_135_2304" fill="white">
<path d="M12.8978 17.9926C13.3942 18.3138 13.5415 18.9828 13.1529 19.4285C12.6593 19.9947 12.0819 20.4851 11.4392 20.8818C10.4919 21.4666 9.42631 21.8331 8.31973 21.9548C7.21315 22.0765 6.09336 21.9503 5.04161 21.5854C3.98986 21.2205 3.03253 20.626 2.2391 19.8451C1.44566 19.0642 0.836021 18.1165 0.454408 17.0707C0.0727945 16.0249 -0.0712164 14.9073 0.0328246 13.7989C0.136866 12.6905 0.486349 11.6192 1.05592 10.6627C1.44233 10.0137 1.92348 9.42868 2.48178 8.92604C2.92118 8.53044 3.5925 8.66706 3.92157 9.15828C4.25064 9.64949 4.10934 10.3081 3.69319 10.7281C3.38735 11.0368 3.11926 11.3825 2.89558 11.7581C2.48862 12.4416 2.23891 13.207 2.16457 13.999C2.09023 14.791 2.19313 15.5895 2.4658 16.3368C2.73846 17.084 3.17406 17.7612 3.74098 18.3191C4.3079 18.8771 4.99193 19.3018 5.74342 19.5626C6.49491 19.8233 7.29502 19.9134 8.08568 19.8265C8.87635 19.7395 9.63775 19.4777 10.3146 19.0599C10.6866 18.8302 11.028 18.5567 11.3318 18.2459C11.7451 17.8231 12.4014 17.6714 12.8978 17.9926Z"/>
</mask>
<path d="M12.8978 17.9926C13.3942 18.3138 13.5415 18.9828 13.1529 19.4285C12.6593 19.9947 12.0819 20.4851 11.4392 20.8818C10.4919 21.4666 9.42631 21.8331 8.31973 21.9548C7.21315 22.0765 6.09336 21.9503 5.04161 21.5854C3.98986 21.2205 3.03253 20.626 2.2391 19.8451C1.44566 19.0642 0.836021 18.1165 0.454408 17.0707C0.0727945 16.0249 -0.0712164 14.9073 0.0328246 13.7989C0.136866 12.6905 0.486349 11.6192 1.05592 10.6627C1.44233 10.0137 1.92348 9.42868 2.48178 8.92604C2.92118 8.53044 3.5925 8.66706 3.92157 9.15828C4.25064 9.64949 4.10934 10.3081 3.69319 10.7281C3.38735 11.0368 3.11926 11.3825 2.89558 11.7581C2.48862 12.4416 2.23891 13.207 2.16457 13.999C2.09023 14.791 2.19313 15.5895 2.4658 16.3368C2.73846 17.084 3.17406 17.7612 3.74098 18.3191C4.3079 18.8771 4.99193 19.3018 5.74342 19.5626C6.49491 19.8233 7.29502 19.9134 8.08568 19.8265C8.87635 19.7395 9.63775 19.4777 10.3146 19.0599C10.6866 18.8302 11.028 18.5567 11.3318 18.2459C11.7451 17.8231 12.4014 17.6714 12.8978 17.9926Z" stroke="#7A7A7A" stroke-width="14" mask="url(#path-1-inside-1_135_2304)"/>
<path d="M17.9998 17.1426L15.3998 17.9998L12.1999 12.6427H7.39993L6.69994 9.32131M5.99956 6.49992L6.69994 9.32131M6.69994 9.32131H11.1999" stroke="#7A7A7A" stroke-width="2" stroke-linecap="round" stroke-linejoin="round"/>
<circle cx="5.49993" cy="2.49997" r="2.49997" fill="#7A7A7A"/>
</svg>
