<svg width="41" height="29" viewBox="0 0 41 29" fill="none" xmlns="http://www.w3.org/2000/svg">
<path d="M35.8511 23.6452C37.4713 23.6452 40 23.6452 40 23.6452V15.8065L38.3404 12.7581L31.7021 10.5806M35.8511 23.6452C35.3956 21.5204 33.7771 20.1613 31.7021 20.1613C29.6272 20.1613 28.0087 21.5204 27.5532 23.6452M35.8511 23.6452C35.8511 26.0503 33.9935 28 31.7021 28C29.4107 28 27.5532 26.0503 27.5532 23.6452M31.7021 10.5806L23.4043 1H17.8032M31.7021 10.5806H17.8032M3.90426 10.5806L8.88298 1H17.8032M3.90426 10.5806L1 13.629V23.6452C1 23.6452 4.03441 23.6452 5.97872 23.6452M3.90426 10.5806H17.8032M5.97872 23.6452C5.97872 21.2401 7.83627 19.2903 10.1277 19.2903C12.4191 19.2903 14.2766 21.2401 14.2766 23.6452M5.97872 23.6452C5.97872 26.0503 7.83627 28 10.1277 28C12.4191 28 14.2766 26.0503 14.2766 23.6452M17.8032 10.5806V1M14.2766 23.6452C19.4614 23.6452 22.3684 23.6452 27.5532 23.6452" stroke="#F9F9F9" stroke-width="2" stroke-linecap="round" stroke-linejoin="round"/>
</svg>
