<svg width="46" height="46" viewBox="0 0 46 46" fill="none" xmlns="http://www.w3.org/2000/svg">
<circle cx="23" cy="23" r="23" fill="#0096C2"/>
<path d="M34 30.346C34 30.921 33.7893 31.4725 33.4142 31.8792C33.0391 32.2858 32.5304 32.5142 32 32.5142H14C13.4696 32.5142 12.9609 32.2858 12.5858 31.8792C12.2107 31.4725 12 30.921 12 30.346V18.4206C12 17.8456 12.2107 17.2941 12.5858 16.8874C12.9609 16.4808 13.4696 16.2524 14 16.2524H18L20 13H26L28 16.2524H32C32.5304 16.2524 33.0391 16.4808 33.4142 16.8874C33.7893 17.2941 34 17.8456 34 18.4206V30.346Z" stroke="#F9F9F9" stroke-width="2" stroke-linecap="round" stroke-linejoin="round"/>
<path d="M23 28.1779C25.2091 28.1779 27 26.2364 27 23.8414C27 21.4464 25.2091 19.5049 23 19.5049C20.7909 19.5049 19 21.4464 19 23.8414C19 26.2364 20.7909 28.1779 23 28.1779Z" stroke="#F9F9F9" stroke-width="2" stroke-linecap="round" stroke-linejoin="round"/>
</svg>
