<svg width="28" height="39" viewBox="0 0 28 39" fill="none" xmlns="http://www.w3.org/2000/svg">
<g filter="url(#filter0_d_62_4687)">
<path fill-rule="evenodd" clip-rule="evenodd" d="M14.3784 0C22.3184 0 28 6.92364 28 15.4622C28 22.8286 17.8615 34.9165 15.078 38.0964C14.6983 38.5301 14.0487 38.5385 13.6574 38.1153C10.7445 34.9647 0 22.8433 0 15.4622C0 6.92364 6.43834 0 14.3784 0Z" fill="#009ACA"/>
<path d="M13.0811 19.2343L13.1307 16.1802L13.4544 16.1645C13.6206 16.1551 13.8159 16.1457 14.0142 16.1363C16.2595 16.0328 18.7088 15.923 19.6594 13.518C19.7586 13.2671 19.8344 13.0037 19.884 12.7309C19.9335 12.4581 19.9598 12.1759 19.9598 11.8811C19.9598 11.5864 19.9335 11.3198 19.8869 11.0596C19.8373 10.793 19.7615 10.539 19.6624 10.2913C19.5603 10.0405 19.4437 9.80841 19.3037 9.58891C19.1696 9.37568 19.0121 9.17186 18.8342 8.98058C18.6593 8.79244 18.4697 8.62311 18.2656 8.47573C18.0615 8.32835 17.8399 8.19979 17.6008 8.09004C17.3646 7.98029 17.1226 7.89876 16.8747 7.84546C16.6298 7.79215 16.3732 7.76706 16.1079 7.76706C15.583 7.76706 15.0844 7.87368 14.6149 8.09004C14.3758 8.19979 14.1542 8.32835 13.9501 8.47573C13.746 8.62311 13.5564 8.7893 13.3815 8.97745C13.2036 9.17186 13.0461 9.37254 12.912 9.58891C12.775 9.80841 12.6554 10.0436 12.5533 10.2913C12.4542 10.539 12.3784 10.793 12.3288 11.0596C12.2793 11.3198 12.2559 11.5926 12.2559 11.8811V27.4969L8.67227 24.3832L8.65186 11.9438V11.8811C8.65186 11.3386 8.70143 10.8056 8.80057 10.285C8.89971 9.76451 9.0455 9.25966 9.23795 8.77362C9.43332 8.28445 9.66076 7.82978 9.92611 7.40332C10.1915 6.97686 10.4889 6.58176 10.8242 6.21489C11.1595 5.84801 11.524 5.5219 11.9177 5.23027C12.3113 4.94179 12.7341 4.6878 13.1861 4.47457C13.641 4.26134 14.1134 4.09828 14.6032 3.99167C15.0931 3.88192 15.5976 3.82861 16.1108 3.82861C16.624 3.82861 17.1138 3.88192 17.6008 3.99167C18.0878 4.09828 18.5601 4.26134 19.0209 4.47457C19.4787 4.6878 19.9073 4.94179 20.3039 5.22714C20.7033 5.51876 21.0737 5.84487 21.4119 6.20862C21.7472 6.56922 22.0505 6.96432 22.3246 7.39705C22.5958 7.82664 22.829 8.28132 23.0273 8.76422C23.2256 9.25339 23.3772 9.75824 23.4764 10.2788C23.5755 10.7993 23.628 11.3324 23.628 11.878C23.628 12.4236 23.5784 12.9723 23.4764 13.4991C23.3772 14.0259 23.2256 14.5339 23.0273 15.0231C22.829 15.506 22.5987 15.9638 22.3304 16.3934C22.0622 16.8261 21.756 17.2212 21.4061 17.5818C20.5196 18.4975 19.3562 19.0556 18.0994 19.366C16.5569 19.7486 14.8715 19.758 13.396 19.6044L13.0811 19.5699L13.087 19.2281L13.0811 19.2343Z" fill="white"/>
<path fill-rule="evenodd" clip-rule="evenodd" d="M6.24014 15.2396L6.21681 21.8339L2.47278 18.4254C3.72954 17.3248 4.9863 16.2242 6.24306 15.1235V15.2396H6.24014Z" fill="white"/>
<path fill-rule="evenodd" clip-rule="evenodd" d="M13.4278 14.7409H13.4395C14.4746 14.7659 16.4808 14.86 17.2827 14.2893C18.2974 13.565 18.5715 12.3859 18.2916 11.2445C18.1633 10.7209 17.8425 10.4136 17.7667 10.2411C17.4955 9.95263 17.2302 9.74567 16.9298 9.59829C16.3146 9.29726 15.6614 9.25336 15.0287 9.51676C14.5505 9.71745 14.0868 10.0812 13.7807 10.5954C13.3987 11.232 13.3987 11.9281 13.4074 12.6556C13.4133 13.3486 13.4395 14.0541 13.4278 14.7377V14.7409Z" fill="#29CFCF"/>
</g>
<defs>
<filter id="filter0_d_62_4687" x="-5" y="-1" width="36" height="46.4272" filterUnits="userSpaceOnUse" color-interpolation-filters="sRGB">
<feFlood flood-opacity="0" result="BackgroundImageFix"/>
<feColorMatrix in="SourceAlpha" type="matrix" values="0 0 0 0 0 0 0 0 0 0 0 0 0 0 0 0 0 0 127 0" result="hardAlpha"/>
<feOffset dx="-1" dy="3"/>
<feGaussianBlur stdDeviation="2"/>
<feComposite in2="hardAlpha" operator="out"/>
<feColorMatrix type="matrix" values="0 0 0 0 0 0 0 0 0 0 0 0 0 0 0 0 0 0 0.25 0"/>
<feBlend mode="normal" in2="BackgroundImageFix" result="effect1_dropShadow_62_4687"/>
<feBlend mode="normal" in="SourceGraphic" in2="effect1_dropShadow_62_4687" result="shape"/>
</filter>
</defs>
</svg>
