<svg width="46" height="40" viewBox="0 0 46 40" fill="none" xmlns="http://www.w3.org/2000/svg">
<path d="M22.9995 6.92225L25.18 4.77107C26.2307 3.73404 27.4782 2.9114 28.8512 2.35014C30.2242 1.78888 31.6959 1.5 33.1821 1.5C34.6684 1.5 36.1401 1.78888 37.5131 2.35014C38.8861 2.9114 40.1336 3.73404 41.1843 4.77107C42.2355 5.80761 43.0693 7.03831 43.6383 8.39286C44.2072 9.74741 44.5 11.1993 44.5 12.6655C44.5 14.1317 44.2072 15.5836 43.6383 16.9382C43.0693 18.2927 42.2355 19.5234 41.1843 20.5599L39.0038 22.7111L22.9995 38.5M22.9995 6.92225L20.8189 4.77107C18.6966 2.67733 15.8181 1.50109 12.8168 1.50109C9.81537 1.50109 6.93691 2.67733 4.8146 4.77107C2.6923 6.8648 1.5 9.70452 1.5 12.6655C1.5 15.6265 2.6923 18.4662 4.8146 20.5599L6.99514 22.7111L22.9995 38.5M22.9995 6.92225L18.5 19.5L28.8512 25.5L22.9995 38.5" stroke="#7E7E7E" stroke-width="3" stroke-linecap="round" stroke-linejoin="round"/>
</svg>
