<svg width="19" height="22" viewBox="0 0 19 22" fill="none" xmlns="http://www.w3.org/2000/svg">
<g clip-path="url(#clip0_62_3284)">
<path d="M7.17404 4.11012L7.17637 4.10902C7.42654 3.9921 7.69925 3.93184 7.9748 3.93191C7.97483 3.93191 7.97486 3.93191 7.97489 3.93191C7.97506 3.93191 7.97523 3.93191 7.9754 3.93191L13.4164 3.93191C14.1017 3.93191 14.7558 3.97557 15.3663 4.07197C15.5393 4.09907 15.7115 4.13139 15.8825 4.16891M7.17404 4.11012L15.3726 2.3792C15.7458 2.79655 15.9619 3.2038 16.0708 3.65819C16.1126 3.83291 16.1406 4.02286 16.1527 4.23254C16.063 4.20973 15.973 4.18852 15.8825 4.16891M7.17404 4.11012C6.90222 4.23801 6.66418 4.42973 6.48159 4.67037C6.29892 4.91112 6.17752 5.19333 6.12936 5.49297L6.12935 5.49302M7.17404 4.11012L6.12935 5.49302M15.8825 4.16891C15.8821 4.16881 15.8816 4.1687 15.8811 4.1686L15.6694 5.14594M15.8825 4.16891C15.883 4.169 15.8834 4.1691 15.8838 4.1692L15.6694 5.14594M7.59978 5.01496C7.71693 4.96021 7.84505 4.93184 7.9748 4.93191H13.4164C14.0607 4.93191 14.6618 4.97307 15.211 5.05983C15.3647 5.08389 15.5176 5.1126 15.6694 5.14594M7.59978 5.01496L15.6694 5.14594M7.59978 5.01496C7.47273 5.07474 7.36238 5.16392 7.27823 5.27483L7.59978 5.01496ZM6.12935 5.49302L4.0318 18.5488H1.07494L3.88452 1.05957H10.8228C13.145 1.05957 14.6347 1.55424 15.3725 2.37914L6.12935 5.49302Z" stroke="white" stroke-width="2"/>
<path d="M17.6326 7.53124C17.9532 8.17232 18.0295 9.06028 17.7905 10.2666L17.6326 7.53124ZM17.6326 7.53124C17.0396 9.37117 16.0389 10.743 14.6941 11.6817C13.0709 12.8147 11.0617 13.236 8.94098 13.236H6.91118L5.66641 20.9812H8.60882L8.6235 20.9059L9.30169 16.6871L9.30374 16.6743L9.30613 16.6616L9.3481 16.4376C9.42181 16.0031 9.64867 15.6116 9.98407 15.3303L10.6267 16.0965L9.98407 15.3303C10.3229 15.0461 10.7508 14.8921 11.1907 14.892H11.191H11.7316C13.3607 14.892 14.6943 14.5656 15.6911 13.8699C16.6646 13.1904 17.4309 12.0791 17.7905 10.2668L17.6326 7.53124ZM5.57524 21.5485L5.57531 21.5481C5.57528 21.5482 5.57527 21.5484 5.57524 21.5485Z" stroke="white" stroke-width="2"/>
</g>
<defs>
<clipPath id="clip0_62_3284">
<rect width="19" height="22" fill="white"/>
</clipPath>
</defs>
</svg>
