<svg width="31" height="26" viewBox="0 0 31 26" fill="none" xmlns="http://www.w3.org/2000/svg">
<path d="M28.2109 18.54V11.7388L26.4217 9.67364M2.08938 18.54V4.22163L4.95201 0.999992H11.0351M9.24595 21.4037C11.7613 21.4037 15.6869 21.4037 15.6869 21.4037M9.24595 21.4037C9.34896 19.0336 7.32125 17.0051 4.95201 17.1082C2.67934 17.207 0.809092 19.1375 1.01589 21.4037C1.20474 23.4733 2.87654 24.8938 4.95201 24.9833C7.1328 25.0773 8.94515 23.5665 9.24595 21.4037ZM22.1278 21.4037C19.6124 21.4037 15.6869 21.4037 15.6869 21.4037M22.1278 21.4037C22.3254 19.2291 24.2479 17.6264 26.4217 17.8241C28.3898 18.0031 30 19.4268 30 21.4037C30 23.3807 28.3898 24.8043 26.4217 24.9833C24.2479 25.181 22.3254 23.5784 22.1278 21.4037ZM15.6869 21.4037L11.0351 8.87511M11.0351 8.87511V0.999992M11.0351 8.87511L26.4217 9.67364M11.0351 0.999992H18.9073L26.4217 9.67364" stroke="#F9F9F9" stroke-width="2" stroke-linecap="round" stroke-linejoin="round"/>
</svg>
