<svg width="23" height="24" viewBox="0 0 23 24" fill="none" xmlns="http://www.w3.org/2000/svg">
<path d="M11.6295 4.58824C11.6295 6.29383 10.1915 7.67648 8.41768 7.67648C6.64387 7.67648 5.20592 6.29383 5.20592 4.58824M11.6295 4.58824C11.6295 2.88265 10.1915 1.5 8.41768 1.5C6.64387 1.5 5.20592 2.88265 5.20592 4.58824M11.6295 4.58824H21.2648M5.20592 4.58824H2.11768" stroke="#0096C2" stroke-width="3" stroke-linecap="round"/>
<path d="M11.0118 19.412C11.0118 21.1176 9.57382 22.5002 7.80001 22.5002C6.0262 22.5002 4.58824 21.1176 4.58824 19.412M11.0118 19.412C11.0118 17.7064 9.57382 16.3237 7.80001 16.3237C6.0262 16.3237 4.58824 17.7064 4.58824 19.412M11.0118 19.412H20.6471M4.58824 19.412H1.5" stroke="#0096C2" stroke-width="3" stroke-linecap="round"/>
<path d="M18.7556 11.9999C18.7556 13.7054 17.4075 15.0881 15.7445 15.0881C14.0816 15.0881 12.7335 13.7054 12.7335 11.9999M18.7556 11.9999C18.7556 10.2943 17.4075 8.91162 15.7445 8.91162C14.0816 8.91162 12.7335 10.2943 12.7335 11.9999M18.7556 11.9999H21.2648M12.7335 11.9999H2.11768" stroke="#0096C2" stroke-width="3" stroke-linecap="round"/>
</svg>
