<svg width="29" height="30" viewBox="0 0 29 30" fill="none" xmlns="http://www.w3.org/2000/svg">
<path d="M14.4595 19.527L14.5271 15.6558L14.9682 15.6359C15.1948 15.624 15.4611 15.6121 15.7314 15.6002C18.7918 15.469 22.1304 15.3299 23.4261 12.2814C23.5612 11.9634 23.6646 11.6296 23.7322 11.2838C23.7997 10.938 23.8355 10.5803 23.8355 10.2067C23.8355 9.83308 23.7997 9.49524 23.7361 9.16535C23.6686 8.82751 23.5652 8.50557 23.4301 8.19158C23.291 7.87362 23.132 7.5795 22.9412 7.30128C22.7584 7.03101 22.5438 6.77266 22.3013 6.53021C22.0628 6.29174 21.8045 6.07711 21.5263 5.89031C21.2481 5.7035 20.946 5.54054 20.6201 5.40143C20.2981 5.26232 19.9682 5.15899 19.6304 5.09142C19.2965 5.02385 18.9468 4.99206 18.5851 4.99206C17.8697 4.99206 17.19 5.12719 16.5501 5.40143C16.2242 5.54054 15.9221 5.7035 15.6439 5.89031C15.3657 6.07711 15.1073 6.28776 14.8689 6.52624C14.6264 6.77266 14.4118 7.02703 14.229 7.30128C14.0422 7.5795 13.8792 7.87759 13.7401 8.19158C13.605 8.50557 13.5016 8.82751 13.4341 9.16535C13.3665 9.49524 13.3347 9.84102 13.3347 10.2067V30L8.44995 26.0533L8.42213 10.2862V10.2067C8.42213 9.51909 8.4897 8.84341 8.62483 8.18363C8.75997 7.52385 8.95869 6.88395 9.22102 6.26789C9.48731 5.64786 9.79733 5.07155 10.159 4.53101C10.5207 3.99046 10.9261 3.48967 11.3832 3.02464C11.8403 2.55962 12.3371 2.14627 12.8736 1.77663C13.4102 1.41097 13.9865 1.08903 14.6026 0.818761C15.2226 0.54849 15.8665 0.341812 16.5342 0.206677C17.2019 0.0675674 17.8895 0 18.5891 0C19.2886 0 19.9563 0.0675674 20.6201 0.206677C21.2838 0.341812 21.9277 0.54849 22.5557 0.818761C23.1797 1.08903 23.764 1.41097 24.3045 1.77266C24.849 2.14229 25.3538 2.55565 25.8148 3.0167C26.2719 3.47377 26.6853 3.97457 27.0589 4.52306C27.4285 5.06757 27.7465 5.64388 28.0167 6.25597C28.287 6.876 28.4937 7.5159 28.6288 8.17568C28.764 8.83546 28.8355 9.51114 28.8355 10.2027C28.8355 10.8943 28.7679 11.5898 28.6288 12.2576C28.4937 12.9253 28.287 13.5692 28.0167 14.1892C27.7465 14.8013 27.4325 15.3816 27.0668 15.9261C26.7012 16.4746 26.2838 16.9754 25.8069 17.4324C24.5986 18.593 23.0128 19.3005 21.2997 19.694C19.1972 20.1789 16.8999 20.1908 14.8887 19.996L14.4595 19.9523L14.4674 19.5191L14.4595 19.527Z" fill="#F9F9F9"/>
<path fill-rule="evenodd" clip-rule="evenodd" d="M5.13514 14.4635L5.10334 22.822L0 18.5016C1.71304 17.1066 3.42608 15.7115 5.13911 14.3164V14.4635H5.13514Z" fill="#F9F9F9"/>
</svg>
